M48
INCH,TZ
T1C0.0157
T2C0.0300
T3C0.0315
T4C0.0350
T5C0.0374
T6C0.0390
T7C0.0394
T8C0.0512
T9C0.0591
T10C0.0610
T11C0.0618
T12C0.0827
T13C0.0906
T14C0.1260
%
G90
G05
T1
X13976Y-68624
X14469Y-68012
X15354Y-60630
X15748Y-66043
X15748Y-67520
X16437Y-63878
X16535Y-60373
X17028Y-60886
X17028Y-67697
X17421Y-67717
X26625Y-66980
X26772Y-67815
X26772Y-70079
X26918Y-67272
X36811Y-49803
X39567Y-46063
X39961Y-48819
X40354Y-48819
X41142Y-48169
X41732Y-49213
X42126Y-48720
X42126Y-67520
X42126Y-70079
X42421Y-63484
X42913Y-48819
X42913Y-63484
X43012Y-46654
X43799Y-44685
X44193Y-47539
X44193Y-47923
X44193Y-48327
X44478Y-46654
X44892Y-46654
X45055Y-47980
X45079Y-51969
X45413Y-46530
X45669Y-45079
X45669Y-46260
X45872Y-44775
X45926Y-46563
X45965Y-48130
X46161Y-46161
X46358Y-48130
X46439Y-47087
X46457Y-50197
X46457Y-51083
X46850Y-45669
X47638Y-47451
X47736Y-47993
X47736Y-48357
X47736Y-48722
X49311Y-49114
X49409Y-35335
X50000Y-32972
X50343Y-31712
X52953Y-34646
X53150Y-33071
X53150Y-37008
X53150Y-40551
X53543Y-36319
X53642Y-33760
X54210Y-65937
X54685Y-67126
X54724Y-33071
X54724Y-37008
X54823Y-40945
X55220Y-67257
X60531Y-50394
X60531Y-52461
X61319Y-52854
X61811Y-50886
X63386Y-48622
X65256Y-52461
X65256Y-52854
X65846Y-50394
X65846Y-50886
X65846Y-52264
T2
X13998Y-70866
X14498Y-69866
X14998Y-70866
X15498Y-69866
X15998Y-70866
X16498Y-69866
X16998Y-70866
T3
X35531Y-29172
X35531Y-30550
X39665Y-29172
X39665Y-30550
X43799Y-29172
X43799Y-30550
T4
X17498Y-69866
T5
X27067Y-71737
X27067Y-72525
X28051Y-71737
X28051Y-72525
X42421Y-71737
X42421Y-72525
X43406Y-71737
X43406Y-72525
T6
X35049Y-72849
X36821Y-72849
T7
X47244Y-22244
X47244Y-23244
X47244Y-24244
X52933Y-71917
X53478Y-73035
X54024Y-71917
X54569Y-73035
X55114Y-71917
X55659Y-73035
X56205Y-71917
X56750Y-73035
X57295Y-71917
T8
X34553Y-71869
X37313Y-71869
T9
X22326Y-36893
X22326Y-39845
X22326Y-48704
X22326Y-51656
X23954Y-21063
X23954Y-25295
X24294Y-36893
X24294Y-39845
X24294Y-48704
X24294Y-51656
X26263Y-36893
X26263Y-39845
X26263Y-48704
X26263Y-51656
X32168Y-36893
X32168Y-39845
X32168Y-48704
X32168Y-51656
X39111Y-22146
X39111Y-25295
T10
X59055Y-23622
X59055Y-27559
X59055Y-31496
X59055Y-35433
X59055Y-39370
X59055Y-43307
X60945Y-23622
X60945Y-27559
X60945Y-31496
X60945Y-35433
X60945Y-39370
X60945Y-43307
X62835Y-31496
X62835Y-35433
X62835Y-39370
X62835Y-43307
X64724Y-31496
X64724Y-35433
X64724Y-39370
X64724Y-43307
T11
X12697Y-72066
X18799Y-72066
T12
X17362Y-20276
X17362Y-22638
X17362Y-25000
X17362Y-27362
X17362Y-29724
X17362Y-32087
X17362Y-34449
X17362Y-36811
X17362Y-39173
X17362Y-41535
X17362Y-43898
X17362Y-46260
X17362Y-48622
X17362Y-50984
X17362Y-53346
T13
X25197Y-73651
X29921Y-73651
X40551Y-73651
X45276Y-73651
T14
X9449Y-17323
X9449Y-56299
X11811Y-11811
X11811Y-61811
X19685Y-17323
X19685Y-56299
X50193Y-72476
X60035Y-72476
X61811Y-11811
X61811Y-61811
T0
M30
