M48
INCH,TZ
T1C0.0390
T2C0.0935
T3C0.1280
T4C0.1378
%
G90
G05
T1
X40696Y-47457
X41096Y-45457
X41496Y-47457
T2
X40096Y-45457
X40096Y-46707
X42096Y-45457
X42096Y-46707
T3
X13498Y-73366
X17998Y-73366
T4
X10276Y-20276
X10276Y-22638
X10276Y-25000
X10276Y-27362
X10276Y-29724
X10276Y-32087
X10276Y-34449
X10276Y-36811
X10276Y-39173
X10276Y-41535
X10276Y-43898
X10276Y-46260
X10276Y-48622
X10276Y-50984
X10276Y-53346
T0
M30
