M48
; DRILL file {KiCad 6.0.5+dfsg-1~bpo11+1} date Fri Jan 20 09:08:29 2023
; FORMAT={-:-/ absolute / metric / decimal}
; #@! TF.CreationDate,2023-01-20T09:08:29+00:00
; #@! TF.GenerationSoftware,Kicad,Pcbnew,6.0.5+dfsg-1~bpo11+1
; #@! TF.FileFunction,MixedPlating,1,4
FMAT,2
METRIC
; #@! TA.AperFunction,Plated,PTH,ViaDrill
T1C0.400
; #@! TA.AperFunction,Plated,PTH,ComponentDrill
T2C0.762
; #@! TA.AperFunction,Plated,PTH,ComponentDrill
T3C0.800
; #@! TA.AperFunction,Plated,PTH,ComponentDrill
T4C0.890
; #@! TA.AperFunction,Plated,PTH,ComponentDrill
T5C0.950
; #@! TA.AperFunction,Plated,PTH,ComponentDrill
T6C0.990
; #@! TA.AperFunction,Plated,PTH,ComponentDrill
T7C1.000
; #@! TA.AperFunction,Plated,PTH,ComponentDrill
T8C1.300
; #@! TA.AperFunction,Plated,PTH,ComponentDrill
T9C1.500
; #@! TA.AperFunction,Plated,PTH,ComponentDrill
T10C1.550
; #@! TA.AperFunction,Plated,PTH,ComponentDrill
T11C1.570
; #@! TA.AperFunction,Plated,PTH,ComponentDrill
T12C2.100
; #@! TA.AperFunction,Plated,PTH,ComponentDrill
T13C2.300
; #@! TA.AperFunction,Plated,PTH,ComponentDrill
T14C3.200
; #@! TA.AperFunction,NonPlated,NPTH,ComponentDrill
T15C0.991
; #@! TA.AperFunction,NonPlated,NPTH,ComponentDrill
T16C2.375
; #@! TA.AperFunction,NonPlated,NPTH,ComponentDrill
T17C3.250
; #@! TA.AperFunction,NonPlated,NPTH,ComponentDrill
T18C3.500
%
G90
G05
T1
X35.5Y-174.306
X36.75Y-172.75
X39.0Y-154.0
X40.0Y-167.75
X40.0Y-171.5
X41.75Y-162.25
X42.0Y-153.349
X43.25Y-154.651
X43.25Y-171.951
X44.25Y-172.0
X67.629Y-170.129
X68.0Y-172.25
X68.0Y-178.0
X68.371Y-170.871
X93.5Y-126.5
X100.5Y-117.0
X101.5Y-124.0
X102.5Y-124.0
X104.5Y-122.35
X106.0Y-125.0
X107.0Y-123.75
X107.0Y-171.5
X107.0Y-178.0
X107.75Y-161.25
X109.0Y-124.0
X109.0Y-161.25
X109.25Y-118.5
X111.25Y-113.5
X112.25Y-120.75
X112.25Y-121.724
X112.25Y-122.75
X112.975Y-118.5
X114.025Y-118.5
X114.441Y-121.87
X114.5Y-132.0
X115.349Y-118.187
X116.0Y-114.5
X116.0Y-117.5
X116.514Y-113.729
X116.651Y-118.271
X116.75Y-122.25
X117.25Y-117.25
X117.75Y-122.25
X117.955Y-119.6
X118.0Y-127.5
X118.0Y-129.75
X119.0Y-116.0
X121.0Y-120.525
X121.25Y-121.901
X121.25Y-122.828
X121.25Y-123.755
X125.25Y-124.75
X125.5Y-89.75
X127.0Y-83.75
X127.871Y-80.548
X134.5Y-88.0
X135.0Y-84.0
X135.0Y-94.0
X135.0Y-103.0
X136.0Y-92.25
X136.25Y-85.75
X137.693Y-167.48
X138.9Y-170.5
X139.0Y-84.0
X139.0Y-94.0
X139.25Y-104.0
X140.258Y-170.834
X153.75Y-128.0
X153.75Y-133.25
X155.75Y-134.25
X157.0Y-129.25
X161.0Y-123.5
X165.75Y-133.25
X165.75Y-134.25
X167.25Y-128.0
X167.25Y-129.25
X167.25Y-132.75
T2
X35.555Y-180.0
X36.825Y-177.46
X38.095Y-180.0
X39.365Y-177.46
X40.635Y-180.0
X41.905Y-177.46
X43.175Y-180.0
T3
X90.25Y-74.097
X90.25Y-77.597
X100.75Y-74.097
X100.75Y-77.597
X111.25Y-74.097
X111.25Y-77.597
T4
X44.445Y-177.46
T5
X68.75Y-182.213
X68.75Y-184.213
X71.25Y-182.213
X71.25Y-184.213
X107.75Y-182.213
X107.75Y-184.213
X110.25Y-182.213
X110.25Y-184.213
T6
X89.025Y-185.037
X93.525Y-185.037
T7
X120.0Y-56.5
X120.0Y-59.04
X120.0Y-61.58
X134.45Y-182.67
X135.835Y-185.51
X137.22Y-182.67
X138.605Y-185.51
X139.99Y-182.67
X141.375Y-185.51
X142.76Y-182.67
X144.145Y-185.51
X145.53Y-182.67
T8
X87.765Y-182.547
X94.775Y-182.547
T9
X56.707Y-93.707
X56.707Y-101.207
X56.707Y-123.707
X56.707Y-131.207
X60.842Y-53.5
X60.842Y-64.25
X61.707Y-93.707
X61.707Y-101.207
X61.707Y-123.707
X61.707Y-131.207
X66.707Y-93.707
X66.707Y-101.207
X66.707Y-123.707
X66.707Y-131.207
X81.707Y-93.707
X81.707Y-101.207
X81.707Y-123.707
X81.707Y-131.207
X99.343Y-56.25
X99.343Y-64.25
T10
X150.0Y-60.0
X150.0Y-70.0
X150.0Y-80.0
X150.0Y-90.0
X150.0Y-100.0
X150.0Y-110.0
X154.8Y-60.0
X154.8Y-70.0
X154.8Y-80.0
X154.8Y-90.0
X154.8Y-100.0
X154.8Y-110.0
X159.6Y-80.0
X159.6Y-90.0
X159.6Y-100.0
X159.6Y-110.0
X164.4Y-80.0
X164.4Y-90.0
X164.4Y-100.0
X164.4Y-110.0
T11
X32.25Y-183.048
X47.75Y-183.048
T12
X44.1Y-51.5
X44.1Y-57.5
X44.1Y-63.5
X44.1Y-69.5
X44.1Y-75.5
X44.1Y-81.5
X44.1Y-87.5
X44.1Y-93.5
X44.1Y-99.5
X44.1Y-105.5
X44.1Y-111.5
X44.1Y-117.5
X44.1Y-123.5
X44.1Y-129.5
X44.1Y-135.5
T13
X64.0Y-187.072
X76.0Y-187.072
X103.0Y-187.072
X115.0Y-187.072
T14
X24.0Y-44.0
X24.0Y-143.0
X30.0Y-30.0
X30.0Y-157.0
X50.0Y-44.0
X50.0Y-143.0
X127.49Y-184.09
X152.49Y-184.09
X157.0Y-30.0
X157.0Y-157.0
T15
X103.369Y-120.54
X104.385Y-115.46
X105.401Y-120.54
T16
X101.845Y-115.46
X101.845Y-118.635
X106.925Y-115.46
X106.925Y-118.635
T17
X34.285Y-186.35
X45.715Y-186.35
T18
X26.1Y-51.5
X26.1Y-57.5
X26.1Y-63.5
X26.1Y-69.5
X26.1Y-75.5
X26.1Y-81.5
X26.1Y-87.5
X26.1Y-93.5
X26.1Y-99.5
X26.1Y-105.5
X26.1Y-111.5
X26.1Y-117.5
X26.1Y-123.5
X26.1Y-129.5
X26.1Y-135.5
T0
M30
