G04 #@! TF.GenerationSoftware,KiCad,Pcbnew,6.0.5+dfsg-1~bpo11+1*
G04 #@! TF.CreationDate,2023-01-20T09:08:29+00:00*
G04 #@! TF.ProjectId,nascontrol,6e617363-6f6e-4747-926f-6c2e6b696361,0.1*
G04 #@! TF.SameCoordinates,Original*
G04 #@! TF.FileFunction,Soldermask,Top*
G04 #@! TF.FilePolarity,Negative*
%FSLAX46Y46*%
G04 Gerber Fmt 4.6, Leading zero omitted, Abs format (unit mm)*
G04 Created by KiCad (PCBNEW 6.0.5+dfsg-1~bpo11+1) date 2023-01-20 09:08:29*
%MOMM*%
%LPD*%
G01*
G04 APERTURE LIST*
%ADD10C,4.000000*%
%ADD11R,1.600000X1.600000*%
%ADD12C,1.600000*%
%ADD13C,3.500000*%
%ADD14C,3.100000*%
%ADD15R,1.300000X1.700000*%
%ADD16C,2.550000*%
%ADD17R,0.450000X0.600000*%
%ADD18C,2.000000*%
%ADD19R,0.250000X0.360000*%
%ADD20R,1.500000X1.000000*%
%ADD21C,6.400000*%
%ADD22C,3.000000*%
%ADD23R,3.000000X3.000000*%
%ADD24C,2.374900*%
%ADD25C,0.990600*%
%ADD26C,0.787400*%
%ADD27C,2.100000*%
%ADD28C,1.750000*%
%ADD29R,2.000000X2.400000*%
%ADD30R,1.100000X0.850000*%
%ADD31R,1.100000X0.750000*%
%ADD32R,1.000000X1.200000*%
%ADD33R,1.350000X1.900000*%
%ADD34R,1.350000X1.550000*%
%ADD35R,1.800000X1.170000*%
%ADD36R,1.000000X1.500000*%
%ADD37R,1.000000X1.800000*%
%ADD38R,0.360000X0.250000*%
%ADD39C,3.250000*%
%ADD40R,1.500000X1.500000*%
%ADD41C,1.524000*%
%ADD42C,2.300000*%
G04 APERTURE END LIST*
G36*
G01*
X140780000Y-88815000D02*
X140780000Y-89185000D01*
G75*
G02*
X140645000Y-89320000I-135000J0D01*
G01*
X140375000Y-89320000D01*
G75*
G02*
X140240000Y-89185000I0J135000D01*
G01*
X140240000Y-88815000D01*
G75*
G02*
X140375000Y-88680000I135000J0D01*
G01*
X140645000Y-88680000D01*
G75*
G02*
X140780000Y-88815000I0J-135000D01*
G01*
G37*
G36*
G01*
X139760000Y-88815000D02*
X139760000Y-89185000D01*
G75*
G02*
X139625000Y-89320000I-135000J0D01*
G01*
X139355000Y-89320000D01*
G75*
G02*
X139220000Y-89185000I0J135000D01*
G01*
X139220000Y-88815000D01*
G75*
G02*
X139355000Y-88680000I135000J0D01*
G01*
X139625000Y-88680000D01*
G75*
G02*
X139760000Y-88815000I0J-135000D01*
G01*
G37*
G36*
G01*
X142325000Y-109200000D02*
X142325000Y-108900000D01*
G75*
G02*
X142475000Y-108750000I150000J0D01*
G01*
X143650000Y-108750000D01*
G75*
G02*
X143800000Y-108900000I0J-150000D01*
G01*
X143800000Y-109200000D01*
G75*
G02*
X143650000Y-109350000I-150000J0D01*
G01*
X142475000Y-109350000D01*
G75*
G02*
X142325000Y-109200000I0J150000D01*
G01*
G37*
G36*
G01*
X142325000Y-111100000D02*
X142325000Y-110800000D01*
G75*
G02*
X142475000Y-110650000I150000J0D01*
G01*
X143650000Y-110650000D01*
G75*
G02*
X143800000Y-110800000I0J-150000D01*
G01*
X143800000Y-111100000D01*
G75*
G02*
X143650000Y-111250000I-150000J0D01*
G01*
X142475000Y-111250000D01*
G75*
G02*
X142325000Y-111100000I0J150000D01*
G01*
G37*
G36*
G01*
X144200000Y-110150000D02*
X144200000Y-109850000D01*
G75*
G02*
X144350000Y-109700000I150000J0D01*
G01*
X145525000Y-109700000D01*
G75*
G02*
X145675000Y-109850000I0J-150000D01*
G01*
X145675000Y-110150000D01*
G75*
G02*
X145525000Y-110300000I-150000J0D01*
G01*
X144350000Y-110300000D01*
G75*
G02*
X144200000Y-110150000I0J150000D01*
G01*
G37*
D10*
X127490000Y-184089669D03*
X152490000Y-184089669D03*
D11*
X134450000Y-182669669D03*
D12*
X137220000Y-182669669D03*
X139990000Y-182669669D03*
X142760000Y-182669669D03*
X145530000Y-182669669D03*
X135835000Y-185509669D03*
X138605000Y-185509669D03*
X141375000Y-185509669D03*
X144145000Y-185509669D03*
D13*
X26100000Y-93500000D03*
X26100000Y-87500000D03*
X26100000Y-81500000D03*
G36*
G01*
X42799999Y-79950000D02*
X45400001Y-79950000D01*
G75*
G02*
X45650000Y-80199999I0J-249999D01*
G01*
X45650000Y-82800001D01*
G75*
G02*
X45400001Y-83050000I-249999J0D01*
G01*
X42799999Y-83050000D01*
G75*
G02*
X42550000Y-82800001I0J249999D01*
G01*
X42550000Y-80199999D01*
G75*
G02*
X42799999Y-79950000I249999J0D01*
G01*
G37*
D14*
X44100000Y-87500000D03*
X44100000Y-93500000D03*
G36*
G01*
X92315000Y-125220000D02*
X92685000Y-125220000D01*
G75*
G02*
X92820000Y-125355000I0J-135000D01*
G01*
X92820000Y-125625000D01*
G75*
G02*
X92685000Y-125760000I-135000J0D01*
G01*
X92315000Y-125760000D01*
G75*
G02*
X92180000Y-125625000I0J135000D01*
G01*
X92180000Y-125355000D01*
G75*
G02*
X92315000Y-125220000I135000J0D01*
G01*
G37*
G36*
G01*
X92315000Y-126240000D02*
X92685000Y-126240000D01*
G75*
G02*
X92820000Y-126375000I0J-135000D01*
G01*
X92820000Y-126645000D01*
G75*
G02*
X92685000Y-126780000I-135000J0D01*
G01*
X92315000Y-126780000D01*
G75*
G02*
X92180000Y-126645000I0J135000D01*
G01*
X92180000Y-126375000D01*
G75*
G02*
X92315000Y-126240000I135000J0D01*
G01*
G37*
D15*
X164500000Y-115250000D03*
X161000000Y-115250000D03*
G36*
G01*
X140780000Y-108815000D02*
X140780000Y-109185000D01*
G75*
G02*
X140645000Y-109320000I-135000J0D01*
G01*
X140375000Y-109320000D01*
G75*
G02*
X140240000Y-109185000I0J135000D01*
G01*
X140240000Y-108815000D01*
G75*
G02*
X140375000Y-108680000I135000J0D01*
G01*
X140645000Y-108680000D01*
G75*
G02*
X140780000Y-108815000I0J-135000D01*
G01*
G37*
G36*
G01*
X139760000Y-108815000D02*
X139760000Y-109185000D01*
G75*
G02*
X139625000Y-109320000I-135000J0D01*
G01*
X139355000Y-109320000D01*
G75*
G02*
X139220000Y-109185000I0J135000D01*
G01*
X139220000Y-108815000D01*
G75*
G02*
X139355000Y-108680000I135000J0D01*
G01*
X139625000Y-108680000D01*
G75*
G02*
X139760000Y-108815000I0J-135000D01*
G01*
G37*
G36*
G01*
X142325000Y-69200000D02*
X142325000Y-68900000D01*
G75*
G02*
X142475000Y-68750000I150000J0D01*
G01*
X143650000Y-68750000D01*
G75*
G02*
X143800000Y-68900000I0J-150000D01*
G01*
X143800000Y-69200000D01*
G75*
G02*
X143650000Y-69350000I-150000J0D01*
G01*
X142475000Y-69350000D01*
G75*
G02*
X142325000Y-69200000I0J150000D01*
G01*
G37*
G36*
G01*
X142325000Y-71100000D02*
X142325000Y-70800000D01*
G75*
G02*
X142475000Y-70650000I150000J0D01*
G01*
X143650000Y-70650000D01*
G75*
G02*
X143800000Y-70800000I0J-150000D01*
G01*
X143800000Y-71100000D01*
G75*
G02*
X143650000Y-71250000I-150000J0D01*
G01*
X142475000Y-71250000D01*
G75*
G02*
X142325000Y-71100000I0J150000D01*
G01*
G37*
G36*
G01*
X144200000Y-70150000D02*
X144200000Y-69850000D01*
G75*
G02*
X144350000Y-69700000I150000J0D01*
G01*
X145525000Y-69700000D01*
G75*
G02*
X145675000Y-69850000I0J-150000D01*
G01*
X145675000Y-70150000D01*
G75*
G02*
X145525000Y-70300000I-150000J0D01*
G01*
X144350000Y-70300000D01*
G75*
G02*
X144200000Y-70150000I0J150000D01*
G01*
G37*
G36*
G01*
X165675000Y-98974999D02*
X165675000Y-101025001D01*
G75*
G02*
X165425001Y-101275000I-249999J0D01*
G01*
X163374999Y-101275000D01*
G75*
G02*
X163125000Y-101025001I0J249999D01*
G01*
X163125000Y-98974999D01*
G75*
G02*
X163374999Y-98725000I249999J0D01*
G01*
X165425001Y-98725000D01*
G75*
G02*
X165675000Y-98974999I0J-249999D01*
G01*
G37*
D16*
X159600000Y-100000000D03*
X154800000Y-100000000D03*
X150000000Y-100000000D03*
D15*
X164500000Y-105250000D03*
X161000000Y-105250000D03*
D17*
X120000000Y-68550000D03*
X120000000Y-66450000D03*
D18*
X120000000Y-56500000D03*
X120000000Y-59040000D03*
X120000000Y-61580000D03*
G36*
G01*
X165675000Y-108974999D02*
X165675000Y-111025001D01*
G75*
G02*
X165425001Y-111275000I-249999J0D01*
G01*
X163374999Y-111275000D01*
G75*
G02*
X163125000Y-111025001I0J249999D01*
G01*
X163125000Y-108974999D01*
G75*
G02*
X163374999Y-108725000I249999J0D01*
G01*
X165425001Y-108725000D01*
G75*
G02*
X165675000Y-108974999I0J-249999D01*
G01*
G37*
D16*
X159600000Y-110000000D03*
X154800000Y-110000000D03*
X150000000Y-110000000D03*
D19*
X159050000Y-121580000D03*
X159050000Y-122420000D03*
D20*
X120000000Y-182150000D03*
X120000000Y-180850000D03*
D13*
X26100000Y-51500000D03*
X26100000Y-63500000D03*
X26100000Y-57500000D03*
G36*
G01*
X42799999Y-49950000D02*
X45400001Y-49950000D01*
G75*
G02*
X45650000Y-50199999I0J-249999D01*
G01*
X45650000Y-52800001D01*
G75*
G02*
X45400001Y-53050000I-249999J0D01*
G01*
X42799999Y-53050000D01*
G75*
G02*
X42550000Y-52800001I0J249999D01*
G01*
X42550000Y-50199999D01*
G75*
G02*
X42799999Y-49950000I249999J0D01*
G01*
G37*
D14*
X44100000Y-57500000D03*
X44100000Y-63500000D03*
G36*
G01*
X113420000Y-133510000D02*
X113080000Y-133510000D01*
G75*
G02*
X112940000Y-133370000I0J140000D01*
G01*
X112940000Y-133090000D01*
G75*
G02*
X113080000Y-132950000I140000J0D01*
G01*
X113420000Y-132950000D01*
G75*
G02*
X113560000Y-133090000I0J-140000D01*
G01*
X113560000Y-133370000D01*
G75*
G02*
X113420000Y-133510000I-140000J0D01*
G01*
G37*
G36*
G01*
X113420000Y-132550000D02*
X113080000Y-132550000D01*
G75*
G02*
X112940000Y-132410000I0J140000D01*
G01*
X112940000Y-132130000D01*
G75*
G02*
X113080000Y-131990000I140000J0D01*
G01*
X113420000Y-131990000D01*
G75*
G02*
X113560000Y-132130000I0J-140000D01*
G01*
X113560000Y-132410000D01*
G75*
G02*
X113420000Y-132550000I-140000J0D01*
G01*
G37*
G36*
G01*
X168530000Y-84565000D02*
X168530000Y-84935000D01*
G75*
G02*
X168395000Y-85070000I-135000J0D01*
G01*
X168125000Y-85070000D01*
G75*
G02*
X167990000Y-84935000I0J135000D01*
G01*
X167990000Y-84565000D01*
G75*
G02*
X168125000Y-84430000I135000J0D01*
G01*
X168395000Y-84430000D01*
G75*
G02*
X168530000Y-84565000I0J-135000D01*
G01*
G37*
G36*
G01*
X167510000Y-84565000D02*
X167510000Y-84935000D01*
G75*
G02*
X167375000Y-85070000I-135000J0D01*
G01*
X167105000Y-85070000D01*
G75*
G02*
X166970000Y-84935000I0J135000D01*
G01*
X166970000Y-84565000D01*
G75*
G02*
X167105000Y-84430000I135000J0D01*
G01*
X167375000Y-84430000D01*
G75*
G02*
X167510000Y-84565000I0J-135000D01*
G01*
G37*
G36*
G01*
X111800000Y-57740000D02*
X110700000Y-57740000D01*
G75*
G02*
X110450000Y-57490000I0J250000D01*
G01*
X110450000Y-54990000D01*
G75*
G02*
X110700000Y-54740000I250000J0D01*
G01*
X111800000Y-54740000D01*
G75*
G02*
X112050000Y-54990000I0J-250000D01*
G01*
X112050000Y-57490000D01*
G75*
G02*
X111800000Y-57740000I-250000J0D01*
G01*
G37*
G36*
G01*
X111800000Y-53340000D02*
X110700000Y-53340000D01*
G75*
G02*
X110450000Y-53090000I0J250000D01*
G01*
X110450000Y-50590000D01*
G75*
G02*
X110700000Y-50340000I250000J0D01*
G01*
X111800000Y-50340000D01*
G75*
G02*
X112050000Y-50590000I0J-250000D01*
G01*
X112050000Y-53090000D01*
G75*
G02*
X111800000Y-53340000I-250000J0D01*
G01*
G37*
D19*
X96750000Y-185920000D03*
X96750000Y-185080000D03*
G36*
G01*
X142325000Y-79200000D02*
X142325000Y-78900000D01*
G75*
G02*
X142475000Y-78750000I150000J0D01*
G01*
X143650000Y-78750000D01*
G75*
G02*
X143800000Y-78900000I0J-150000D01*
G01*
X143800000Y-79200000D01*
G75*
G02*
X143650000Y-79350000I-150000J0D01*
G01*
X142475000Y-79350000D01*
G75*
G02*
X142325000Y-79200000I0J150000D01*
G01*
G37*
G36*
G01*
X142325000Y-81100000D02*
X142325000Y-80800000D01*
G75*
G02*
X142475000Y-80650000I150000J0D01*
G01*
X143650000Y-80650000D01*
G75*
G02*
X143800000Y-80800000I0J-150000D01*
G01*
X143800000Y-81100000D01*
G75*
G02*
X143650000Y-81250000I-150000J0D01*
G01*
X142475000Y-81250000D01*
G75*
G02*
X142325000Y-81100000I0J150000D01*
G01*
G37*
G36*
G01*
X144200000Y-80150000D02*
X144200000Y-79850000D01*
G75*
G02*
X144350000Y-79700000I150000J0D01*
G01*
X145525000Y-79700000D01*
G75*
G02*
X145675000Y-79850000I0J-150000D01*
G01*
X145675000Y-80150000D01*
G75*
G02*
X145525000Y-80300000I-150000J0D01*
G01*
X144350000Y-80300000D01*
G75*
G02*
X144200000Y-80150000I0J150000D01*
G01*
G37*
G36*
G01*
X144760000Y-173330000D02*
X144760000Y-173670000D01*
G75*
G02*
X144620000Y-173810000I-140000J0D01*
G01*
X144340000Y-173810000D01*
G75*
G02*
X144200000Y-173670000I0J140000D01*
G01*
X144200000Y-173330000D01*
G75*
G02*
X144340000Y-173190000I140000J0D01*
G01*
X144620000Y-173190000D01*
G75*
G02*
X144760000Y-173330000I0J-140000D01*
G01*
G37*
G36*
G01*
X143800000Y-173330000D02*
X143800000Y-173670000D01*
G75*
G02*
X143660000Y-173810000I-140000J0D01*
G01*
X143380000Y-173810000D01*
G75*
G02*
X143240000Y-173670000I0J140000D01*
G01*
X143240000Y-173330000D01*
G75*
G02*
X143380000Y-173190000I140000J0D01*
G01*
X143660000Y-173190000D01*
G75*
G02*
X143800000Y-173330000I0J-140000D01*
G01*
G37*
G36*
G01*
X142325000Y-99200000D02*
X142325000Y-98900000D01*
G75*
G02*
X142475000Y-98750000I150000J0D01*
G01*
X143650000Y-98750000D01*
G75*
G02*
X143800000Y-98900000I0J-150000D01*
G01*
X143800000Y-99200000D01*
G75*
G02*
X143650000Y-99350000I-150000J0D01*
G01*
X142475000Y-99350000D01*
G75*
G02*
X142325000Y-99200000I0J150000D01*
G01*
G37*
G36*
G01*
X142325000Y-101100000D02*
X142325000Y-100800000D01*
G75*
G02*
X142475000Y-100650000I150000J0D01*
G01*
X143650000Y-100650000D01*
G75*
G02*
X143800000Y-100800000I0J-150000D01*
G01*
X143800000Y-101100000D01*
G75*
G02*
X143650000Y-101250000I-150000J0D01*
G01*
X142475000Y-101250000D01*
G75*
G02*
X142325000Y-101100000I0J150000D01*
G01*
G37*
G36*
G01*
X144200000Y-100150000D02*
X144200000Y-99850000D01*
G75*
G02*
X144350000Y-99700000I150000J0D01*
G01*
X145525000Y-99700000D01*
G75*
G02*
X145675000Y-99850000I0J-150000D01*
G01*
X145675000Y-100150000D01*
G75*
G02*
X145525000Y-100300000I-150000J0D01*
G01*
X144350000Y-100300000D01*
G75*
G02*
X144200000Y-100150000I0J150000D01*
G01*
G37*
G36*
G01*
X166960000Y-106185000D02*
X166960000Y-105815000D01*
G75*
G02*
X167095000Y-105680000I135000J0D01*
G01*
X167365000Y-105680000D01*
G75*
G02*
X167500000Y-105815000I0J-135000D01*
G01*
X167500000Y-106185000D01*
G75*
G02*
X167365000Y-106320000I-135000J0D01*
G01*
X167095000Y-106320000D01*
G75*
G02*
X166960000Y-106185000I0J135000D01*
G01*
G37*
G36*
G01*
X167980000Y-106185000D02*
X167980000Y-105815000D01*
G75*
G02*
X168115000Y-105680000I135000J0D01*
G01*
X168385000Y-105680000D01*
G75*
G02*
X168520000Y-105815000I0J-135000D01*
G01*
X168520000Y-106185000D01*
G75*
G02*
X168385000Y-106320000I-135000J0D01*
G01*
X168115000Y-106320000D01*
G75*
G02*
X167980000Y-106185000I0J135000D01*
G01*
G37*
G36*
G01*
X120720000Y-119920000D02*
X120720000Y-119580000D01*
G75*
G02*
X120860000Y-119440000I140000J0D01*
G01*
X121140000Y-119440000D01*
G75*
G02*
X121280000Y-119580000I0J-140000D01*
G01*
X121280000Y-119920000D01*
G75*
G02*
X121140000Y-120060000I-140000J0D01*
G01*
X120860000Y-120060000D01*
G75*
G02*
X120720000Y-119920000I0J140000D01*
G01*
G37*
G36*
G01*
X121680000Y-119920000D02*
X121680000Y-119580000D01*
G75*
G02*
X121820000Y-119440000I140000J0D01*
G01*
X122100000Y-119440000D01*
G75*
G02*
X122240000Y-119580000I0J-140000D01*
G01*
X122240000Y-119920000D01*
G75*
G02*
X122100000Y-120060000I-140000J0D01*
G01*
X121820000Y-120060000D01*
G75*
G02*
X121680000Y-119920000I0J140000D01*
G01*
G37*
D11*
X111250000Y-74097349D03*
D12*
X111250000Y-77597349D03*
D21*
X50000000Y-44000000D03*
X30000000Y-30000000D03*
G36*
G01*
X113490000Y-59210000D02*
X113490000Y-58870000D01*
G75*
G02*
X113630000Y-58730000I140000J0D01*
G01*
X113910000Y-58730000D01*
G75*
G02*
X114050000Y-58870000I0J-140000D01*
G01*
X114050000Y-59210000D01*
G75*
G02*
X113910000Y-59350000I-140000J0D01*
G01*
X113630000Y-59350000D01*
G75*
G02*
X113490000Y-59210000I0J140000D01*
G01*
G37*
G36*
G01*
X114450000Y-59210000D02*
X114450000Y-58870000D01*
G75*
G02*
X114590000Y-58730000I140000J0D01*
G01*
X114870000Y-58730000D01*
G75*
G02*
X115010000Y-58870000I0J-140000D01*
G01*
X115010000Y-59210000D01*
G75*
G02*
X114870000Y-59350000I-140000J0D01*
G01*
X114590000Y-59350000D01*
G75*
G02*
X114450000Y-59210000I0J140000D01*
G01*
G37*
G36*
G01*
X140780000Y-68815000D02*
X140780000Y-69185000D01*
G75*
G02*
X140645000Y-69320000I-135000J0D01*
G01*
X140375000Y-69320000D01*
G75*
G02*
X140240000Y-69185000I0J135000D01*
G01*
X140240000Y-68815000D01*
G75*
G02*
X140375000Y-68680000I135000J0D01*
G01*
X140645000Y-68680000D01*
G75*
G02*
X140780000Y-68815000I0J-135000D01*
G01*
G37*
G36*
G01*
X139760000Y-68815000D02*
X139760000Y-69185000D01*
G75*
G02*
X139625000Y-69320000I-135000J0D01*
G01*
X139355000Y-69320000D01*
G75*
G02*
X139220000Y-69185000I0J135000D01*
G01*
X139220000Y-68815000D01*
G75*
G02*
X139355000Y-68680000I135000J0D01*
G01*
X139625000Y-68680000D01*
G75*
G02*
X139760000Y-68815000I0J-135000D01*
G01*
G37*
G36*
G01*
X166970000Y-96185000D02*
X166970000Y-95815000D01*
G75*
G02*
X167105000Y-95680000I135000J0D01*
G01*
X167375000Y-95680000D01*
G75*
G02*
X167510000Y-95815000I0J-135000D01*
G01*
X167510000Y-96185000D01*
G75*
G02*
X167375000Y-96320000I-135000J0D01*
G01*
X167105000Y-96320000D01*
G75*
G02*
X166970000Y-96185000I0J135000D01*
G01*
G37*
G36*
G01*
X167990000Y-96185000D02*
X167990000Y-95815000D01*
G75*
G02*
X168125000Y-95680000I135000J0D01*
G01*
X168395000Y-95680000D01*
G75*
G02*
X168530000Y-95815000I0J-135000D01*
G01*
X168530000Y-96185000D01*
G75*
G02*
X168395000Y-96320000I-135000J0D01*
G01*
X168125000Y-96320000D01*
G75*
G02*
X167990000Y-96185000I0J135000D01*
G01*
G37*
G36*
G01*
X104420000Y-133510000D02*
X104080000Y-133510000D01*
G75*
G02*
X103940000Y-133370000I0J140000D01*
G01*
X103940000Y-133090000D01*
G75*
G02*
X104080000Y-132950000I140000J0D01*
G01*
X104420000Y-132950000D01*
G75*
G02*
X104560000Y-133090000I0J-140000D01*
G01*
X104560000Y-133370000D01*
G75*
G02*
X104420000Y-133510000I-140000J0D01*
G01*
G37*
G36*
G01*
X104420000Y-132550000D02*
X104080000Y-132550000D01*
G75*
G02*
X103940000Y-132410000I0J140000D01*
G01*
X103940000Y-132130000D01*
G75*
G02*
X104080000Y-131990000I140000J0D01*
G01*
X104420000Y-131990000D01*
G75*
G02*
X104560000Y-132130000I0J-140000D01*
G01*
X104560000Y-132410000D01*
G75*
G02*
X104420000Y-132550000I-140000J0D01*
G01*
G37*
D22*
X61707500Y-101207500D03*
X66707500Y-101207500D03*
X56707500Y-101207500D03*
X61707500Y-93707500D03*
X66707500Y-93707500D03*
X56707500Y-93707500D03*
D23*
X81707500Y-101207500D03*
D22*
X81707500Y-93707500D03*
G36*
G01*
X142325000Y-59200000D02*
X142325000Y-58900000D01*
G75*
G02*
X142475000Y-58750000I150000J0D01*
G01*
X143650000Y-58750000D01*
G75*
G02*
X143800000Y-58900000I0J-150000D01*
G01*
X143800000Y-59200000D01*
G75*
G02*
X143650000Y-59350000I-150000J0D01*
G01*
X142475000Y-59350000D01*
G75*
G02*
X142325000Y-59200000I0J150000D01*
G01*
G37*
G36*
G01*
X142325000Y-61100000D02*
X142325000Y-60800000D01*
G75*
G02*
X142475000Y-60650000I150000J0D01*
G01*
X143650000Y-60650000D01*
G75*
G02*
X143800000Y-60800000I0J-150000D01*
G01*
X143800000Y-61100000D01*
G75*
G02*
X143650000Y-61250000I-150000J0D01*
G01*
X142475000Y-61250000D01*
G75*
G02*
X142325000Y-61100000I0J150000D01*
G01*
G37*
G36*
G01*
X144200000Y-60150000D02*
X144200000Y-59850000D01*
G75*
G02*
X144350000Y-59700000I150000J0D01*
G01*
X145525000Y-59700000D01*
G75*
G02*
X145675000Y-59850000I0J-150000D01*
G01*
X145675000Y-60150000D01*
G75*
G02*
X145525000Y-60300000I-150000J0D01*
G01*
X144350000Y-60300000D01*
G75*
G02*
X144200000Y-60150000I0J150000D01*
G01*
G37*
G36*
G01*
X165675000Y-78974999D02*
X165675000Y-81025001D01*
G75*
G02*
X165425001Y-81275000I-249999J0D01*
G01*
X163374999Y-81275000D01*
G75*
G02*
X163125000Y-81025001I0J249999D01*
G01*
X163125000Y-78974999D01*
G75*
G02*
X163374999Y-78725000I249999J0D01*
G01*
X165425001Y-78725000D01*
G75*
G02*
X165675000Y-78974999I0J-249999D01*
G01*
G37*
D16*
X159600000Y-80000000D03*
X154800000Y-80000000D03*
X150000000Y-80000000D03*
D24*
X101845000Y-118635000D03*
X106925000Y-118635000D03*
X106925000Y-115460000D03*
D25*
X105401000Y-120540000D03*
X103369000Y-120540000D03*
D24*
X101845000Y-115460000D03*
D25*
X104385000Y-115460000D03*
D26*
X103750000Y-116730000D03*
X105020000Y-116730000D03*
X103750000Y-118000000D03*
X105020000Y-118000000D03*
X103750000Y-119270000D03*
X105020000Y-119270000D03*
D27*
X87765000Y-182547500D03*
X94775000Y-182547500D03*
D28*
X93525000Y-185037500D03*
X89025000Y-185037500D03*
G36*
G01*
X116475000Y-176450000D02*
X115525000Y-176450000D01*
G75*
G02*
X115275000Y-176200000I0J250000D01*
G01*
X115275000Y-175700000D01*
G75*
G02*
X115525000Y-175450000I250000J0D01*
G01*
X116475000Y-175450000D01*
G75*
G02*
X116725000Y-175700000I0J-250000D01*
G01*
X116725000Y-176200000D01*
G75*
G02*
X116475000Y-176450000I-250000J0D01*
G01*
G37*
G36*
G01*
X116475000Y-174550000D02*
X115525000Y-174550000D01*
G75*
G02*
X115275000Y-174300000I0J250000D01*
G01*
X115275000Y-173800000D01*
G75*
G02*
X115525000Y-173550000I250000J0D01*
G01*
X116475000Y-173550000D01*
G75*
G02*
X116725000Y-173800000I0J-250000D01*
G01*
X116725000Y-174300000D01*
G75*
G02*
X116475000Y-174550000I-250000J0D01*
G01*
G37*
G36*
G01*
X101030000Y-126565000D02*
X101030000Y-126935000D01*
G75*
G02*
X100895000Y-127070000I-135000J0D01*
G01*
X100625000Y-127070000D01*
G75*
G02*
X100490000Y-126935000I0J135000D01*
G01*
X100490000Y-126565000D01*
G75*
G02*
X100625000Y-126430000I135000J0D01*
G01*
X100895000Y-126430000D01*
G75*
G02*
X101030000Y-126565000I0J-135000D01*
G01*
G37*
G36*
G01*
X100010000Y-126565000D02*
X100010000Y-126935000D01*
G75*
G02*
X99875000Y-127070000I-135000J0D01*
G01*
X99605000Y-127070000D01*
G75*
G02*
X99470000Y-126935000I0J135000D01*
G01*
X99470000Y-126565000D01*
G75*
G02*
X99605000Y-126430000I135000J0D01*
G01*
X99875000Y-126430000D01*
G75*
G02*
X100010000Y-126565000I0J-135000D01*
G01*
G37*
D29*
X113350000Y-129500000D03*
X109650000Y-129500000D03*
G36*
G01*
X112420000Y-167785000D02*
X112420000Y-167415000D01*
G75*
G02*
X112555000Y-167280000I135000J0D01*
G01*
X112825000Y-167280000D01*
G75*
G02*
X112960000Y-167415000I0J-135000D01*
G01*
X112960000Y-167785000D01*
G75*
G02*
X112825000Y-167920000I-135000J0D01*
G01*
X112555000Y-167920000D01*
G75*
G02*
X112420000Y-167785000I0J135000D01*
G01*
G37*
G36*
G01*
X113440000Y-167785000D02*
X113440000Y-167415000D01*
G75*
G02*
X113575000Y-167280000I135000J0D01*
G01*
X113845000Y-167280000D01*
G75*
G02*
X113980000Y-167415000I0J-135000D01*
G01*
X113980000Y-167785000D01*
G75*
G02*
X113845000Y-167920000I-135000J0D01*
G01*
X113575000Y-167920000D01*
G75*
G02*
X113440000Y-167785000I0J135000D01*
G01*
G37*
G36*
G01*
X120740000Y-118670000D02*
X120740000Y-118330000D01*
G75*
G02*
X120880000Y-118190000I140000J0D01*
G01*
X121160000Y-118190000D01*
G75*
G02*
X121300000Y-118330000I0J-140000D01*
G01*
X121300000Y-118670000D01*
G75*
G02*
X121160000Y-118810000I-140000J0D01*
G01*
X120880000Y-118810000D01*
G75*
G02*
X120740000Y-118670000I0J140000D01*
G01*
G37*
G36*
G01*
X121700000Y-118670000D02*
X121700000Y-118330000D01*
G75*
G02*
X121840000Y-118190000I140000J0D01*
G01*
X122120000Y-118190000D01*
G75*
G02*
X122260000Y-118330000I0J-140000D01*
G01*
X122260000Y-118670000D01*
G75*
G02*
X122120000Y-118810000I-140000J0D01*
G01*
X121840000Y-118810000D01*
G75*
G02*
X121700000Y-118670000I0J140000D01*
G01*
G37*
G36*
G01*
X168530000Y-104565000D02*
X168530000Y-104935000D01*
G75*
G02*
X168395000Y-105070000I-135000J0D01*
G01*
X168125000Y-105070000D01*
G75*
G02*
X167990000Y-104935000I0J135000D01*
G01*
X167990000Y-104565000D01*
G75*
G02*
X168125000Y-104430000I135000J0D01*
G01*
X168395000Y-104430000D01*
G75*
G02*
X168530000Y-104565000I0J-135000D01*
G01*
G37*
G36*
G01*
X167510000Y-104565000D02*
X167510000Y-104935000D01*
G75*
G02*
X167375000Y-105070000I-135000J0D01*
G01*
X167105000Y-105070000D01*
G75*
G02*
X166970000Y-104935000I0J135000D01*
G01*
X166970000Y-104565000D01*
G75*
G02*
X167105000Y-104430000I135000J0D01*
G01*
X167375000Y-104430000D01*
G75*
G02*
X167510000Y-104565000I0J-135000D01*
G01*
G37*
G36*
G01*
X106495000Y-169950000D02*
X106195000Y-169950000D01*
G75*
G02*
X106045000Y-169800000I0J150000D01*
G01*
X106045000Y-168150000D01*
G75*
G02*
X106195000Y-168000000I150000J0D01*
G01*
X106495000Y-168000000D01*
G75*
G02*
X106645000Y-168150000I0J-150000D01*
G01*
X106645000Y-169800000D01*
G75*
G02*
X106495000Y-169950000I-150000J0D01*
G01*
G37*
G36*
G01*
X107765000Y-169950000D02*
X107465000Y-169950000D01*
G75*
G02*
X107315000Y-169800000I0J150000D01*
G01*
X107315000Y-168150000D01*
G75*
G02*
X107465000Y-168000000I150000J0D01*
G01*
X107765000Y-168000000D01*
G75*
G02*
X107915000Y-168150000I0J-150000D01*
G01*
X107915000Y-169800000D01*
G75*
G02*
X107765000Y-169950000I-150000J0D01*
G01*
G37*
G36*
G01*
X109035000Y-169950000D02*
X108735000Y-169950000D01*
G75*
G02*
X108585000Y-169800000I0J150000D01*
G01*
X108585000Y-168150000D01*
G75*
G02*
X108735000Y-168000000I150000J0D01*
G01*
X109035000Y-168000000D01*
G75*
G02*
X109185000Y-168150000I0J-150000D01*
G01*
X109185000Y-169800000D01*
G75*
G02*
X109035000Y-169950000I-150000J0D01*
G01*
G37*
G36*
G01*
X110305000Y-169950000D02*
X110005000Y-169950000D01*
G75*
G02*
X109855000Y-169800000I0J150000D01*
G01*
X109855000Y-168150000D01*
G75*
G02*
X110005000Y-168000000I150000J0D01*
G01*
X110305000Y-168000000D01*
G75*
G02*
X110455000Y-168150000I0J-150000D01*
G01*
X110455000Y-169800000D01*
G75*
G02*
X110305000Y-169950000I-150000J0D01*
G01*
G37*
G36*
G01*
X110305000Y-165000000D02*
X110005000Y-165000000D01*
G75*
G02*
X109855000Y-164850000I0J150000D01*
G01*
X109855000Y-163200000D01*
G75*
G02*
X110005000Y-163050000I150000J0D01*
G01*
X110305000Y-163050000D01*
G75*
G02*
X110455000Y-163200000I0J-150000D01*
G01*
X110455000Y-164850000D01*
G75*
G02*
X110305000Y-165000000I-150000J0D01*
G01*
G37*
G36*
G01*
X109035000Y-165000000D02*
X108735000Y-165000000D01*
G75*
G02*
X108585000Y-164850000I0J150000D01*
G01*
X108585000Y-163200000D01*
G75*
G02*
X108735000Y-163050000I150000J0D01*
G01*
X109035000Y-163050000D01*
G75*
G02*
X109185000Y-163200000I0J-150000D01*
G01*
X109185000Y-164850000D01*
G75*
G02*
X109035000Y-165000000I-150000J0D01*
G01*
G37*
G36*
G01*
X107765000Y-165000000D02*
X107465000Y-165000000D01*
G75*
G02*
X107315000Y-164850000I0J150000D01*
G01*
X107315000Y-163200000D01*
G75*
G02*
X107465000Y-163050000I150000J0D01*
G01*
X107765000Y-163050000D01*
G75*
G02*
X107915000Y-163200000I0J-150000D01*
G01*
X107915000Y-164850000D01*
G75*
G02*
X107765000Y-165000000I-150000J0D01*
G01*
G37*
G36*
G01*
X106495000Y-165000000D02*
X106195000Y-165000000D01*
G75*
G02*
X106045000Y-164850000I0J150000D01*
G01*
X106045000Y-163200000D01*
G75*
G02*
X106195000Y-163050000I150000J0D01*
G01*
X106495000Y-163050000D01*
G75*
G02*
X106645000Y-163200000I0J-150000D01*
G01*
X106645000Y-164850000D01*
G75*
G02*
X106495000Y-165000000I-150000J0D01*
G01*
G37*
D13*
X26100000Y-99500000D03*
X26100000Y-105500000D03*
G36*
G01*
X42799999Y-97950000D02*
X45400001Y-97950000D01*
G75*
G02*
X45650000Y-98199999I0J-249999D01*
G01*
X45650000Y-100800001D01*
G75*
G02*
X45400001Y-101050000I-249999J0D01*
G01*
X42799999Y-101050000D01*
G75*
G02*
X42550000Y-100800001I0J249999D01*
G01*
X42550000Y-98199999D01*
G75*
G02*
X42799999Y-97950000I249999J0D01*
G01*
G37*
D14*
X44100000Y-105500000D03*
D15*
X164500000Y-85250000D03*
X161000000Y-85250000D03*
G36*
G01*
X140780000Y-57315000D02*
X140780000Y-57685000D01*
G75*
G02*
X140645000Y-57820000I-135000J0D01*
G01*
X140375000Y-57820000D01*
G75*
G02*
X140240000Y-57685000I0J135000D01*
G01*
X140240000Y-57315000D01*
G75*
G02*
X140375000Y-57180000I135000J0D01*
G01*
X140645000Y-57180000D01*
G75*
G02*
X140780000Y-57315000I0J-135000D01*
G01*
G37*
G36*
G01*
X139760000Y-57315000D02*
X139760000Y-57685000D01*
G75*
G02*
X139625000Y-57820000I-135000J0D01*
G01*
X139355000Y-57820000D01*
G75*
G02*
X139220000Y-57685000I0J135000D01*
G01*
X139220000Y-57315000D01*
G75*
G02*
X139355000Y-57180000I135000J0D01*
G01*
X139625000Y-57180000D01*
G75*
G02*
X139760000Y-57315000I0J-135000D01*
G01*
G37*
G36*
G01*
X41755000Y-154550000D02*
X42055000Y-154550000D01*
G75*
G02*
X42205000Y-154700000I0J-150000D01*
G01*
X42205000Y-156350000D01*
G75*
G02*
X42055000Y-156500000I-150000J0D01*
G01*
X41755000Y-156500000D01*
G75*
G02*
X41605000Y-156350000I0J150000D01*
G01*
X41605000Y-154700000D01*
G75*
G02*
X41755000Y-154550000I150000J0D01*
G01*
G37*
G36*
G01*
X40485000Y-154550000D02*
X40785000Y-154550000D01*
G75*
G02*
X40935000Y-154700000I0J-150000D01*
G01*
X40935000Y-156350000D01*
G75*
G02*
X40785000Y-156500000I-150000J0D01*
G01*
X40485000Y-156500000D01*
G75*
G02*
X40335000Y-156350000I0J150000D01*
G01*
X40335000Y-154700000D01*
G75*
G02*
X40485000Y-154550000I150000J0D01*
G01*
G37*
G36*
G01*
X39215000Y-154550000D02*
X39515000Y-154550000D01*
G75*
G02*
X39665000Y-154700000I0J-150000D01*
G01*
X39665000Y-156350000D01*
G75*
G02*
X39515000Y-156500000I-150000J0D01*
G01*
X39215000Y-156500000D01*
G75*
G02*
X39065000Y-156350000I0J150000D01*
G01*
X39065000Y-154700000D01*
G75*
G02*
X39215000Y-154550000I150000J0D01*
G01*
G37*
G36*
G01*
X37945000Y-154550000D02*
X38245000Y-154550000D01*
G75*
G02*
X38395000Y-154700000I0J-150000D01*
G01*
X38395000Y-156350000D01*
G75*
G02*
X38245000Y-156500000I-150000J0D01*
G01*
X37945000Y-156500000D01*
G75*
G02*
X37795000Y-156350000I0J150000D01*
G01*
X37795000Y-154700000D01*
G75*
G02*
X37945000Y-154550000I150000J0D01*
G01*
G37*
G36*
G01*
X37945000Y-159500000D02*
X38245000Y-159500000D01*
G75*
G02*
X38395000Y-159650000I0J-150000D01*
G01*
X38395000Y-161300000D01*
G75*
G02*
X38245000Y-161450000I-150000J0D01*
G01*
X37945000Y-161450000D01*
G75*
G02*
X37795000Y-161300000I0J150000D01*
G01*
X37795000Y-159650000D01*
G75*
G02*
X37945000Y-159500000I150000J0D01*
G01*
G37*
G36*
G01*
X39215000Y-159500000D02*
X39515000Y-159500000D01*
G75*
G02*
X39665000Y-159650000I0J-150000D01*
G01*
X39665000Y-161300000D01*
G75*
G02*
X39515000Y-161450000I-150000J0D01*
G01*
X39215000Y-161450000D01*
G75*
G02*
X39065000Y-161300000I0J150000D01*
G01*
X39065000Y-159650000D01*
G75*
G02*
X39215000Y-159500000I150000J0D01*
G01*
G37*
G36*
G01*
X40485000Y-159500000D02*
X40785000Y-159500000D01*
G75*
G02*
X40935000Y-159650000I0J-150000D01*
G01*
X40935000Y-161300000D01*
G75*
G02*
X40785000Y-161450000I-150000J0D01*
G01*
X40485000Y-161450000D01*
G75*
G02*
X40335000Y-161300000I0J150000D01*
G01*
X40335000Y-159650000D01*
G75*
G02*
X40485000Y-159500000I150000J0D01*
G01*
G37*
G36*
G01*
X41755000Y-159500000D02*
X42055000Y-159500000D01*
G75*
G02*
X42205000Y-159650000I0J-150000D01*
G01*
X42205000Y-161300000D01*
G75*
G02*
X42055000Y-161450000I-150000J0D01*
G01*
X41755000Y-161450000D01*
G75*
G02*
X41605000Y-161300000I0J150000D01*
G01*
X41605000Y-159650000D01*
G75*
G02*
X41755000Y-159500000I150000J0D01*
G01*
G37*
G36*
G01*
X140780000Y-97315000D02*
X140780000Y-97685000D01*
G75*
G02*
X140645000Y-97820000I-135000J0D01*
G01*
X140375000Y-97820000D01*
G75*
G02*
X140240000Y-97685000I0J135000D01*
G01*
X140240000Y-97315000D01*
G75*
G02*
X140375000Y-97180000I135000J0D01*
G01*
X140645000Y-97180000D01*
G75*
G02*
X140780000Y-97315000I0J-135000D01*
G01*
G37*
G36*
G01*
X139760000Y-97315000D02*
X139760000Y-97685000D01*
G75*
G02*
X139625000Y-97820000I-135000J0D01*
G01*
X139355000Y-97820000D01*
G75*
G02*
X139220000Y-97685000I0J135000D01*
G01*
X139220000Y-97315000D01*
G75*
G02*
X139355000Y-97180000I135000J0D01*
G01*
X139625000Y-97180000D01*
G75*
G02*
X139760000Y-97315000I0J-135000D01*
G01*
G37*
D13*
X26100000Y-117500000D03*
X26100000Y-123500000D03*
X26100000Y-111500000D03*
G36*
G01*
X42799999Y-109950000D02*
X45400001Y-109950000D01*
G75*
G02*
X45650000Y-110199999I0J-249999D01*
G01*
X45650000Y-112800001D01*
G75*
G02*
X45400001Y-113050000I-249999J0D01*
G01*
X42799999Y-113050000D01*
G75*
G02*
X42550000Y-112800001I0J249999D01*
G01*
X42550000Y-110199999D01*
G75*
G02*
X42799999Y-109950000I249999J0D01*
G01*
G37*
D14*
X44100000Y-117500000D03*
X44100000Y-123500000D03*
G36*
G01*
X156075000Y-58974999D02*
X156075000Y-61025001D01*
G75*
G02*
X155825001Y-61275000I-249999J0D01*
G01*
X153774999Y-61275000D01*
G75*
G02*
X153525000Y-61025001I0J249999D01*
G01*
X153525000Y-58974999D01*
G75*
G02*
X153774999Y-58725000I249999J0D01*
G01*
X155825001Y-58725000D01*
G75*
G02*
X156075000Y-58974999I0J-249999D01*
G01*
G37*
D16*
X150000000Y-60000000D03*
G36*
G01*
X165675000Y-88974999D02*
X165675000Y-91025001D01*
G75*
G02*
X165425001Y-91275000I-249999J0D01*
G01*
X163374999Y-91275000D01*
G75*
G02*
X163125000Y-91025001I0J249999D01*
G01*
X163125000Y-88974999D01*
G75*
G02*
X163374999Y-88725000I249999J0D01*
G01*
X165425001Y-88725000D01*
G75*
G02*
X165675000Y-88974999I0J-249999D01*
G01*
G37*
X159600000Y-90000000D03*
X154800000Y-90000000D03*
X150000000Y-90000000D03*
D11*
X100750000Y-74097349D03*
D12*
X100750000Y-77597349D03*
D11*
X71250000Y-182212500D03*
D12*
X68750000Y-182212500D03*
X68750000Y-184212500D03*
X71250000Y-184212500D03*
D10*
X76000000Y-187072500D03*
X64000000Y-187072500D03*
G36*
G01*
X168530000Y-114565000D02*
X168530000Y-114935000D01*
G75*
G02*
X168395000Y-115070000I-135000J0D01*
G01*
X168125000Y-115070000D01*
G75*
G02*
X167990000Y-114935000I0J135000D01*
G01*
X167990000Y-114565000D01*
G75*
G02*
X168125000Y-114430000I135000J0D01*
G01*
X168395000Y-114430000D01*
G75*
G02*
X168530000Y-114565000I0J-135000D01*
G01*
G37*
G36*
G01*
X167510000Y-114565000D02*
X167510000Y-114935000D01*
G75*
G02*
X167375000Y-115070000I-135000J0D01*
G01*
X167105000Y-115070000D01*
G75*
G02*
X166970000Y-114935000I0J135000D01*
G01*
X166970000Y-114565000D01*
G75*
G02*
X167105000Y-114430000I135000J0D01*
G01*
X167375000Y-114430000D01*
G75*
G02*
X167510000Y-114565000I0J-135000D01*
G01*
G37*
G36*
G01*
X156075000Y-68974999D02*
X156075000Y-71025001D01*
G75*
G02*
X155825001Y-71275000I-249999J0D01*
G01*
X153774999Y-71275000D01*
G75*
G02*
X153525000Y-71025001I0J249999D01*
G01*
X153525000Y-68974999D01*
G75*
G02*
X153774999Y-68725000I249999J0D01*
G01*
X155825001Y-68725000D01*
G75*
G02*
X156075000Y-68974999I0J-249999D01*
G01*
G37*
D16*
X150000000Y-70000000D03*
D30*
X168950000Y-126895000D03*
X168950000Y-127995000D03*
X168950000Y-129095000D03*
X168950000Y-130195000D03*
X168950000Y-131295000D03*
X168950000Y-132395000D03*
X168950000Y-133495000D03*
D31*
X168950000Y-134545000D03*
D32*
X162800000Y-124260000D03*
X159100000Y-124260000D03*
D33*
X158125000Y-133730000D03*
X158125000Y-127760000D03*
D34*
X168825000Y-124435000D03*
D35*
X168600000Y-135755000D03*
G36*
G01*
X137825000Y-175600000D02*
X137625000Y-175600000D01*
G75*
G02*
X137525000Y-175500000I0J100000D01*
G01*
X137525000Y-174225000D01*
G75*
G02*
X137625000Y-174125000I100000J0D01*
G01*
X137825000Y-174125000D01*
G75*
G02*
X137925000Y-174225000I0J-100000D01*
G01*
X137925000Y-175500000D01*
G75*
G02*
X137825000Y-175600000I-100000J0D01*
G01*
G37*
G36*
G01*
X138475000Y-175600000D02*
X138275000Y-175600000D01*
G75*
G02*
X138175000Y-175500000I0J100000D01*
G01*
X138175000Y-174225000D01*
G75*
G02*
X138275000Y-174125000I100000J0D01*
G01*
X138475000Y-174125000D01*
G75*
G02*
X138575000Y-174225000I0J-100000D01*
G01*
X138575000Y-175500000D01*
G75*
G02*
X138475000Y-175600000I-100000J0D01*
G01*
G37*
G36*
G01*
X139125000Y-175600000D02*
X138925000Y-175600000D01*
G75*
G02*
X138825000Y-175500000I0J100000D01*
G01*
X138825000Y-174225000D01*
G75*
G02*
X138925000Y-174125000I100000J0D01*
G01*
X139125000Y-174125000D01*
G75*
G02*
X139225000Y-174225000I0J-100000D01*
G01*
X139225000Y-175500000D01*
G75*
G02*
X139125000Y-175600000I-100000J0D01*
G01*
G37*
G36*
G01*
X139775000Y-175600000D02*
X139575000Y-175600000D01*
G75*
G02*
X139475000Y-175500000I0J100000D01*
G01*
X139475000Y-174225000D01*
G75*
G02*
X139575000Y-174125000I100000J0D01*
G01*
X139775000Y-174125000D01*
G75*
G02*
X139875000Y-174225000I0J-100000D01*
G01*
X139875000Y-175500000D01*
G75*
G02*
X139775000Y-175600000I-100000J0D01*
G01*
G37*
G36*
G01*
X140425000Y-175600000D02*
X140225000Y-175600000D01*
G75*
G02*
X140125000Y-175500000I0J100000D01*
G01*
X140125000Y-174225000D01*
G75*
G02*
X140225000Y-174125000I100000J0D01*
G01*
X140425000Y-174125000D01*
G75*
G02*
X140525000Y-174225000I0J-100000D01*
G01*
X140525000Y-175500000D01*
G75*
G02*
X140425000Y-175600000I-100000J0D01*
G01*
G37*
G36*
G01*
X141075000Y-175600000D02*
X140875000Y-175600000D01*
G75*
G02*
X140775000Y-175500000I0J100000D01*
G01*
X140775000Y-174225000D01*
G75*
G02*
X140875000Y-174125000I100000J0D01*
G01*
X141075000Y-174125000D01*
G75*
G02*
X141175000Y-174225000I0J-100000D01*
G01*
X141175000Y-175500000D01*
G75*
G02*
X141075000Y-175600000I-100000J0D01*
G01*
G37*
G36*
G01*
X141725000Y-175600000D02*
X141525000Y-175600000D01*
G75*
G02*
X141425000Y-175500000I0J100000D01*
G01*
X141425000Y-174225000D01*
G75*
G02*
X141525000Y-174125000I100000J0D01*
G01*
X141725000Y-174125000D01*
G75*
G02*
X141825000Y-174225000I0J-100000D01*
G01*
X141825000Y-175500000D01*
G75*
G02*
X141725000Y-175600000I-100000J0D01*
G01*
G37*
G36*
G01*
X142375000Y-175600000D02*
X142175000Y-175600000D01*
G75*
G02*
X142075000Y-175500000I0J100000D01*
G01*
X142075000Y-174225000D01*
G75*
G02*
X142175000Y-174125000I100000J0D01*
G01*
X142375000Y-174125000D01*
G75*
G02*
X142475000Y-174225000I0J-100000D01*
G01*
X142475000Y-175500000D01*
G75*
G02*
X142375000Y-175600000I-100000J0D01*
G01*
G37*
G36*
G01*
X142375000Y-169875000D02*
X142175000Y-169875000D01*
G75*
G02*
X142075000Y-169775000I0J100000D01*
G01*
X142075000Y-168500000D01*
G75*
G02*
X142175000Y-168400000I100000J0D01*
G01*
X142375000Y-168400000D01*
G75*
G02*
X142475000Y-168500000I0J-100000D01*
G01*
X142475000Y-169775000D01*
G75*
G02*
X142375000Y-169875000I-100000J0D01*
G01*
G37*
G36*
G01*
X141725000Y-169875000D02*
X141525000Y-169875000D01*
G75*
G02*
X141425000Y-169775000I0J100000D01*
G01*
X141425000Y-168500000D01*
G75*
G02*
X141525000Y-168400000I100000J0D01*
G01*
X141725000Y-168400000D01*
G75*
G02*
X141825000Y-168500000I0J-100000D01*
G01*
X141825000Y-169775000D01*
G75*
G02*
X141725000Y-169875000I-100000J0D01*
G01*
G37*
G36*
G01*
X141075000Y-169875000D02*
X140875000Y-169875000D01*
G75*
G02*
X140775000Y-169775000I0J100000D01*
G01*
X140775000Y-168500000D01*
G75*
G02*
X140875000Y-168400000I100000J0D01*
G01*
X141075000Y-168400000D01*
G75*
G02*
X141175000Y-168500000I0J-100000D01*
G01*
X141175000Y-169775000D01*
G75*
G02*
X141075000Y-169875000I-100000J0D01*
G01*
G37*
G36*
G01*
X140425000Y-169875000D02*
X140225000Y-169875000D01*
G75*
G02*
X140125000Y-169775000I0J100000D01*
G01*
X140125000Y-168500000D01*
G75*
G02*
X140225000Y-168400000I100000J0D01*
G01*
X140425000Y-168400000D01*
G75*
G02*
X140525000Y-168500000I0J-100000D01*
G01*
X140525000Y-169775000D01*
G75*
G02*
X140425000Y-169875000I-100000J0D01*
G01*
G37*
G36*
G01*
X139775000Y-169875000D02*
X139575000Y-169875000D01*
G75*
G02*
X139475000Y-169775000I0J100000D01*
G01*
X139475000Y-168500000D01*
G75*
G02*
X139575000Y-168400000I100000J0D01*
G01*
X139775000Y-168400000D01*
G75*
G02*
X139875000Y-168500000I0J-100000D01*
G01*
X139875000Y-169775000D01*
G75*
G02*
X139775000Y-169875000I-100000J0D01*
G01*
G37*
G36*
G01*
X139125000Y-169875000D02*
X138925000Y-169875000D01*
G75*
G02*
X138825000Y-169775000I0J100000D01*
G01*
X138825000Y-168500000D01*
G75*
G02*
X138925000Y-168400000I100000J0D01*
G01*
X139125000Y-168400000D01*
G75*
G02*
X139225000Y-168500000I0J-100000D01*
G01*
X139225000Y-169775000D01*
G75*
G02*
X139125000Y-169875000I-100000J0D01*
G01*
G37*
G36*
G01*
X138475000Y-169875000D02*
X138275000Y-169875000D01*
G75*
G02*
X138175000Y-169775000I0J100000D01*
G01*
X138175000Y-168500000D01*
G75*
G02*
X138275000Y-168400000I100000J0D01*
G01*
X138475000Y-168400000D01*
G75*
G02*
X138575000Y-168500000I0J-100000D01*
G01*
X138575000Y-169775000D01*
G75*
G02*
X138475000Y-169875000I-100000J0D01*
G01*
G37*
G36*
G01*
X137825000Y-169875000D02*
X137625000Y-169875000D01*
G75*
G02*
X137525000Y-169775000I0J100000D01*
G01*
X137525000Y-168500000D01*
G75*
G02*
X137625000Y-168400000I100000J0D01*
G01*
X137825000Y-168400000D01*
G75*
G02*
X137925000Y-168500000I0J-100000D01*
G01*
X137925000Y-169775000D01*
G75*
G02*
X137825000Y-169875000I-100000J0D01*
G01*
G37*
G36*
G01*
X126435000Y-91030000D02*
X126065000Y-91030000D01*
G75*
G02*
X125930000Y-90895000I0J135000D01*
G01*
X125930000Y-90625000D01*
G75*
G02*
X126065000Y-90490000I135000J0D01*
G01*
X126435000Y-90490000D01*
G75*
G02*
X126570000Y-90625000I0J-135000D01*
G01*
X126570000Y-90895000D01*
G75*
G02*
X126435000Y-91030000I-135000J0D01*
G01*
G37*
G36*
G01*
X126435000Y-90010000D02*
X126065000Y-90010000D01*
G75*
G02*
X125930000Y-89875000I0J135000D01*
G01*
X125930000Y-89605000D01*
G75*
G02*
X126065000Y-89470000I135000J0D01*
G01*
X126435000Y-89470000D01*
G75*
G02*
X126570000Y-89605000I0J-135000D01*
G01*
X126570000Y-89875000D01*
G75*
G02*
X126435000Y-90010000I-135000J0D01*
G01*
G37*
G36*
G01*
X140780000Y-98815000D02*
X140780000Y-99185000D01*
G75*
G02*
X140645000Y-99320000I-135000J0D01*
G01*
X140375000Y-99320000D01*
G75*
G02*
X140240000Y-99185000I0J135000D01*
G01*
X140240000Y-98815000D01*
G75*
G02*
X140375000Y-98680000I135000J0D01*
G01*
X140645000Y-98680000D01*
G75*
G02*
X140780000Y-98815000I0J-135000D01*
G01*
G37*
G36*
G01*
X139760000Y-98815000D02*
X139760000Y-99185000D01*
G75*
G02*
X139625000Y-99320000I-135000J0D01*
G01*
X139355000Y-99320000D01*
G75*
G02*
X139220000Y-99185000I0J135000D01*
G01*
X139220000Y-98815000D01*
G75*
G02*
X139355000Y-98680000I135000J0D01*
G01*
X139625000Y-98680000D01*
G75*
G02*
X139760000Y-98815000I0J-135000D01*
G01*
G37*
G36*
G01*
X68800000Y-173200000D02*
X69100000Y-173200000D01*
G75*
G02*
X69250000Y-173350000I0J-150000D01*
G01*
X69250000Y-174375000D01*
G75*
G02*
X69100000Y-174525000I-150000J0D01*
G01*
X68800000Y-174525000D01*
G75*
G02*
X68650000Y-174375000I0J150000D01*
G01*
X68650000Y-173350000D01*
G75*
G02*
X68800000Y-173200000I150000J0D01*
G01*
G37*
G36*
G01*
X67850000Y-173200000D02*
X68150000Y-173200000D01*
G75*
G02*
X68300000Y-173350000I0J-150000D01*
G01*
X68300000Y-174375000D01*
G75*
G02*
X68150000Y-174525000I-150000J0D01*
G01*
X67850000Y-174525000D01*
G75*
G02*
X67700000Y-174375000I0J150000D01*
G01*
X67700000Y-173350000D01*
G75*
G02*
X67850000Y-173200000I150000J0D01*
G01*
G37*
G36*
G01*
X66900000Y-173200000D02*
X67200000Y-173200000D01*
G75*
G02*
X67350000Y-173350000I0J-150000D01*
G01*
X67350000Y-174375000D01*
G75*
G02*
X67200000Y-174525000I-150000J0D01*
G01*
X66900000Y-174525000D01*
G75*
G02*
X66750000Y-174375000I0J150000D01*
G01*
X66750000Y-173350000D01*
G75*
G02*
X66900000Y-173200000I150000J0D01*
G01*
G37*
G36*
G01*
X66900000Y-175475000D02*
X67200000Y-175475000D01*
G75*
G02*
X67350000Y-175625000I0J-150000D01*
G01*
X67350000Y-176650000D01*
G75*
G02*
X67200000Y-176800000I-150000J0D01*
G01*
X66900000Y-176800000D01*
G75*
G02*
X66750000Y-176650000I0J150000D01*
G01*
X66750000Y-175625000D01*
G75*
G02*
X66900000Y-175475000I150000J0D01*
G01*
G37*
G36*
G01*
X67850000Y-175475000D02*
X68150000Y-175475000D01*
G75*
G02*
X68300000Y-175625000I0J-150000D01*
G01*
X68300000Y-176650000D01*
G75*
G02*
X68150000Y-176800000I-150000J0D01*
G01*
X67850000Y-176800000D01*
G75*
G02*
X67700000Y-176650000I0J150000D01*
G01*
X67700000Y-175625000D01*
G75*
G02*
X67850000Y-175475000I150000J0D01*
G01*
G37*
G36*
G01*
X68800000Y-175475000D02*
X69100000Y-175475000D01*
G75*
G02*
X69250000Y-175625000I0J-150000D01*
G01*
X69250000Y-176650000D01*
G75*
G02*
X69100000Y-176800000I-150000J0D01*
G01*
X68800000Y-176800000D01*
G75*
G02*
X68650000Y-176650000I0J150000D01*
G01*
X68650000Y-175625000D01*
G75*
G02*
X68800000Y-175475000I150000J0D01*
G01*
G37*
G36*
G01*
X137140000Y-176770000D02*
X137140000Y-176430000D01*
G75*
G02*
X137280000Y-176290000I140000J0D01*
G01*
X137560000Y-176290000D01*
G75*
G02*
X137700000Y-176430000I0J-140000D01*
G01*
X137700000Y-176770000D01*
G75*
G02*
X137560000Y-176910000I-140000J0D01*
G01*
X137280000Y-176910000D01*
G75*
G02*
X137140000Y-176770000I0J140000D01*
G01*
G37*
G36*
G01*
X138100000Y-176770000D02*
X138100000Y-176430000D01*
G75*
G02*
X138240000Y-176290000I140000J0D01*
G01*
X138520000Y-176290000D01*
G75*
G02*
X138660000Y-176430000I0J-140000D01*
G01*
X138660000Y-176770000D01*
G75*
G02*
X138520000Y-176910000I-140000J0D01*
G01*
X138240000Y-176910000D01*
G75*
G02*
X138100000Y-176770000I0J140000D01*
G01*
G37*
G36*
G01*
X111920000Y-164760000D02*
X111580000Y-164760000D01*
G75*
G02*
X111440000Y-164620000I0J140000D01*
G01*
X111440000Y-164340000D01*
G75*
G02*
X111580000Y-164200000I140000J0D01*
G01*
X111920000Y-164200000D01*
G75*
G02*
X112060000Y-164340000I0J-140000D01*
G01*
X112060000Y-164620000D01*
G75*
G02*
X111920000Y-164760000I-140000J0D01*
G01*
G37*
G36*
G01*
X111920000Y-163800000D02*
X111580000Y-163800000D01*
G75*
G02*
X111440000Y-163660000I0J140000D01*
G01*
X111440000Y-163380000D01*
G75*
G02*
X111580000Y-163240000I140000J0D01*
G01*
X111920000Y-163240000D01*
G75*
G02*
X112060000Y-163380000I0J-140000D01*
G01*
X112060000Y-163660000D01*
G75*
G02*
X111920000Y-163800000I-140000J0D01*
G01*
G37*
G36*
G01*
X106170000Y-162260000D02*
X105830000Y-162260000D01*
G75*
G02*
X105690000Y-162120000I0J140000D01*
G01*
X105690000Y-161840000D01*
G75*
G02*
X105830000Y-161700000I140000J0D01*
G01*
X106170000Y-161700000D01*
G75*
G02*
X106310000Y-161840000I0J-140000D01*
G01*
X106310000Y-162120000D01*
G75*
G02*
X106170000Y-162260000I-140000J0D01*
G01*
G37*
G36*
G01*
X106170000Y-161300000D02*
X105830000Y-161300000D01*
G75*
G02*
X105690000Y-161160000I0J140000D01*
G01*
X105690000Y-160880000D01*
G75*
G02*
X105830000Y-160740000I140000J0D01*
G01*
X106170000Y-160740000D01*
G75*
G02*
X106310000Y-160880000I0J-140000D01*
G01*
X106310000Y-161160000D01*
G75*
G02*
X106170000Y-161300000I-140000J0D01*
G01*
G37*
G36*
G01*
X109260000Y-122830000D02*
X109260000Y-123170000D01*
G75*
G02*
X109120000Y-123310000I-140000J0D01*
G01*
X108840000Y-123310000D01*
G75*
G02*
X108700000Y-123170000I0J140000D01*
G01*
X108700000Y-122830000D01*
G75*
G02*
X108840000Y-122690000I140000J0D01*
G01*
X109120000Y-122690000D01*
G75*
G02*
X109260000Y-122830000I0J-140000D01*
G01*
G37*
G36*
G01*
X108300000Y-122830000D02*
X108300000Y-123170000D01*
G75*
G02*
X108160000Y-123310000I-140000J0D01*
G01*
X107880000Y-123310000D01*
G75*
G02*
X107740000Y-123170000I0J140000D01*
G01*
X107740000Y-122830000D01*
G75*
G02*
X107880000Y-122690000I140000J0D01*
G01*
X108160000Y-122690000D01*
G75*
G02*
X108300000Y-122830000I0J-140000D01*
G01*
G37*
G36*
G01*
X89675000Y-124300000D02*
X89675000Y-124600000D01*
G75*
G02*
X89525000Y-124750000I-150000J0D01*
G01*
X88350000Y-124750000D01*
G75*
G02*
X88200000Y-124600000I0J150000D01*
G01*
X88200000Y-124300000D01*
G75*
G02*
X88350000Y-124150000I150000J0D01*
G01*
X89525000Y-124150000D01*
G75*
G02*
X89675000Y-124300000I0J-150000D01*
G01*
G37*
G36*
G01*
X89675000Y-122400000D02*
X89675000Y-122700000D01*
G75*
G02*
X89525000Y-122850000I-150000J0D01*
G01*
X88350000Y-122850000D01*
G75*
G02*
X88200000Y-122700000I0J150000D01*
G01*
X88200000Y-122400000D01*
G75*
G02*
X88350000Y-122250000I150000J0D01*
G01*
X89525000Y-122250000D01*
G75*
G02*
X89675000Y-122400000I0J-150000D01*
G01*
G37*
G36*
G01*
X87800000Y-123350000D02*
X87800000Y-123650000D01*
G75*
G02*
X87650000Y-123800000I-150000J0D01*
G01*
X86475000Y-123800000D01*
G75*
G02*
X86325000Y-123650000I0J150000D01*
G01*
X86325000Y-123350000D01*
G75*
G02*
X86475000Y-123200000I150000J0D01*
G01*
X87650000Y-123200000D01*
G75*
G02*
X87800000Y-123350000I0J-150000D01*
G01*
G37*
G36*
G01*
X153950000Y-132550000D02*
X153650000Y-132550000D01*
G75*
G02*
X153500000Y-132400000I0J150000D01*
G01*
X153500000Y-131375000D01*
G75*
G02*
X153650000Y-131225000I150000J0D01*
G01*
X153950000Y-131225000D01*
G75*
G02*
X154100000Y-131375000I0J-150000D01*
G01*
X154100000Y-132400000D01*
G75*
G02*
X153950000Y-132550000I-150000J0D01*
G01*
G37*
G36*
G01*
X154900000Y-132550000D02*
X154600000Y-132550000D01*
G75*
G02*
X154450000Y-132400000I0J150000D01*
G01*
X154450000Y-131375000D01*
G75*
G02*
X154600000Y-131225000I150000J0D01*
G01*
X154900000Y-131225000D01*
G75*
G02*
X155050000Y-131375000I0J-150000D01*
G01*
X155050000Y-132400000D01*
G75*
G02*
X154900000Y-132550000I-150000J0D01*
G01*
G37*
G36*
G01*
X155850000Y-132550000D02*
X155550000Y-132550000D01*
G75*
G02*
X155400000Y-132400000I0J150000D01*
G01*
X155400000Y-131375000D01*
G75*
G02*
X155550000Y-131225000I150000J0D01*
G01*
X155850000Y-131225000D01*
G75*
G02*
X156000000Y-131375000I0J-150000D01*
G01*
X156000000Y-132400000D01*
G75*
G02*
X155850000Y-132550000I-150000J0D01*
G01*
G37*
G36*
G01*
X155850000Y-130275000D02*
X155550000Y-130275000D01*
G75*
G02*
X155400000Y-130125000I0J150000D01*
G01*
X155400000Y-129100000D01*
G75*
G02*
X155550000Y-128950000I150000J0D01*
G01*
X155850000Y-128950000D01*
G75*
G02*
X156000000Y-129100000I0J-150000D01*
G01*
X156000000Y-130125000D01*
G75*
G02*
X155850000Y-130275000I-150000J0D01*
G01*
G37*
G36*
G01*
X154900000Y-130275000D02*
X154600000Y-130275000D01*
G75*
G02*
X154450000Y-130125000I0J150000D01*
G01*
X154450000Y-129100000D01*
G75*
G02*
X154600000Y-128950000I150000J0D01*
G01*
X154900000Y-128950000D01*
G75*
G02*
X155050000Y-129100000I0J-150000D01*
G01*
X155050000Y-130125000D01*
G75*
G02*
X154900000Y-130275000I-150000J0D01*
G01*
G37*
G36*
G01*
X153950000Y-130275000D02*
X153650000Y-130275000D01*
G75*
G02*
X153500000Y-130125000I0J150000D01*
G01*
X153500000Y-129100000D01*
G75*
G02*
X153650000Y-128950000I150000J0D01*
G01*
X153950000Y-128950000D01*
G75*
G02*
X154100000Y-129100000I0J-150000D01*
G01*
X154100000Y-130125000D01*
G75*
G02*
X153950000Y-130275000I-150000J0D01*
G01*
G37*
G36*
G01*
X112800000Y-173325000D02*
X113100000Y-173325000D01*
G75*
G02*
X113250000Y-173475000I0J-150000D01*
G01*
X113250000Y-174650000D01*
G75*
G02*
X113100000Y-174800000I-150000J0D01*
G01*
X112800000Y-174800000D01*
G75*
G02*
X112650000Y-174650000I0J150000D01*
G01*
X112650000Y-173475000D01*
G75*
G02*
X112800000Y-173325000I150000J0D01*
G01*
G37*
G36*
G01*
X110900000Y-173325000D02*
X111200000Y-173325000D01*
G75*
G02*
X111350000Y-173475000I0J-150000D01*
G01*
X111350000Y-174650000D01*
G75*
G02*
X111200000Y-174800000I-150000J0D01*
G01*
X110900000Y-174800000D01*
G75*
G02*
X110750000Y-174650000I0J150000D01*
G01*
X110750000Y-173475000D01*
G75*
G02*
X110900000Y-173325000I150000J0D01*
G01*
G37*
G36*
G01*
X111850000Y-175200000D02*
X112150000Y-175200000D01*
G75*
G02*
X112300000Y-175350000I0J-150000D01*
G01*
X112300000Y-176525000D01*
G75*
G02*
X112150000Y-176675000I-150000J0D01*
G01*
X111850000Y-176675000D01*
G75*
G02*
X111700000Y-176525000I0J150000D01*
G01*
X111700000Y-175350000D01*
G75*
G02*
X111850000Y-175200000I150000J0D01*
G01*
G37*
G36*
G01*
X37975000Y-165125000D02*
X37975000Y-163875000D01*
G75*
G02*
X38225000Y-163625000I250000J0D01*
G01*
X38850000Y-163625000D01*
G75*
G02*
X39100000Y-163875000I0J-250000D01*
G01*
X39100000Y-165125000D01*
G75*
G02*
X38850000Y-165375000I-250000J0D01*
G01*
X38225000Y-165375000D01*
G75*
G02*
X37975000Y-165125000I0J250000D01*
G01*
G37*
G36*
G01*
X40900000Y-165125000D02*
X40900000Y-163875000D01*
G75*
G02*
X41150000Y-163625000I250000J0D01*
G01*
X41775000Y-163625000D01*
G75*
G02*
X42025000Y-163875000I0J-250000D01*
G01*
X42025000Y-165125000D01*
G75*
G02*
X41775000Y-165375000I-250000J0D01*
G01*
X41150000Y-165375000D01*
G75*
G02*
X40900000Y-165125000I0J250000D01*
G01*
G37*
D21*
X24000000Y-44000000D03*
G36*
G01*
X140780000Y-77315000D02*
X140780000Y-77685000D01*
G75*
G02*
X140645000Y-77820000I-135000J0D01*
G01*
X140375000Y-77820000D01*
G75*
G02*
X140240000Y-77685000I0J135000D01*
G01*
X140240000Y-77315000D01*
G75*
G02*
X140375000Y-77180000I135000J0D01*
G01*
X140645000Y-77180000D01*
G75*
G02*
X140780000Y-77315000I0J-135000D01*
G01*
G37*
G36*
G01*
X139760000Y-77315000D02*
X139760000Y-77685000D01*
G75*
G02*
X139625000Y-77820000I-135000J0D01*
G01*
X139355000Y-77820000D01*
G75*
G02*
X139220000Y-77685000I0J135000D01*
G01*
X139220000Y-77315000D01*
G75*
G02*
X139355000Y-77180000I135000J0D01*
G01*
X139625000Y-77180000D01*
G75*
G02*
X139760000Y-77315000I0J-135000D01*
G01*
G37*
G36*
G01*
X91815000Y-95220000D02*
X92185000Y-95220000D01*
G75*
G02*
X92320000Y-95355000I0J-135000D01*
G01*
X92320000Y-95625000D01*
G75*
G02*
X92185000Y-95760000I-135000J0D01*
G01*
X91815000Y-95760000D01*
G75*
G02*
X91680000Y-95625000I0J135000D01*
G01*
X91680000Y-95355000D01*
G75*
G02*
X91815000Y-95220000I135000J0D01*
G01*
G37*
G36*
G01*
X91815000Y-96240000D02*
X92185000Y-96240000D01*
G75*
G02*
X92320000Y-96375000I0J-135000D01*
G01*
X92320000Y-96645000D01*
G75*
G02*
X92185000Y-96780000I-135000J0D01*
G01*
X91815000Y-96780000D01*
G75*
G02*
X91680000Y-96645000I0J135000D01*
G01*
X91680000Y-96375000D01*
G75*
G02*
X91815000Y-96240000I135000J0D01*
G01*
G37*
G36*
G01*
X140780000Y-67315000D02*
X140780000Y-67685000D01*
G75*
G02*
X140645000Y-67820000I-135000J0D01*
G01*
X140375000Y-67820000D01*
G75*
G02*
X140240000Y-67685000I0J135000D01*
G01*
X140240000Y-67315000D01*
G75*
G02*
X140375000Y-67180000I135000J0D01*
G01*
X140645000Y-67180000D01*
G75*
G02*
X140780000Y-67315000I0J-135000D01*
G01*
G37*
G36*
G01*
X139760000Y-67315000D02*
X139760000Y-67685000D01*
G75*
G02*
X139625000Y-67820000I-135000J0D01*
G01*
X139355000Y-67820000D01*
G75*
G02*
X139220000Y-67685000I0J135000D01*
G01*
X139220000Y-67315000D01*
G75*
G02*
X139355000Y-67180000I135000J0D01*
G01*
X139625000Y-67180000D01*
G75*
G02*
X139760000Y-67315000I0J-135000D01*
G01*
G37*
D13*
X26100000Y-135500000D03*
X26100000Y-129500000D03*
G36*
G01*
X42799999Y-127950000D02*
X45400001Y-127950000D01*
G75*
G02*
X45650000Y-128199999I0J-249999D01*
G01*
X45650000Y-130800001D01*
G75*
G02*
X45400001Y-131050000I-249999J0D01*
G01*
X42799999Y-131050000D01*
G75*
G02*
X42550000Y-130800001I0J249999D01*
G01*
X42550000Y-128199999D01*
G75*
G02*
X42799999Y-127950000I249999J0D01*
G01*
G37*
D14*
X44100000Y-135500000D03*
D15*
X164500000Y-95250000D03*
X161000000Y-95250000D03*
G36*
G01*
X140780000Y-58815000D02*
X140780000Y-59185000D01*
G75*
G02*
X140645000Y-59320000I-135000J0D01*
G01*
X140375000Y-59320000D01*
G75*
G02*
X140240000Y-59185000I0J135000D01*
G01*
X140240000Y-58815000D01*
G75*
G02*
X140375000Y-58680000I135000J0D01*
G01*
X140645000Y-58680000D01*
G75*
G02*
X140780000Y-58815000I0J-135000D01*
G01*
G37*
G36*
G01*
X139760000Y-58815000D02*
X139760000Y-59185000D01*
G75*
G02*
X139625000Y-59320000I-135000J0D01*
G01*
X139355000Y-59320000D01*
G75*
G02*
X139220000Y-59185000I0J135000D01*
G01*
X139220000Y-58815000D01*
G75*
G02*
X139355000Y-58680000I135000J0D01*
G01*
X139625000Y-58680000D01*
G75*
G02*
X139760000Y-58815000I0J-135000D01*
G01*
G37*
G36*
G01*
X126525000Y-88600000D02*
X126325000Y-88600000D01*
G75*
G02*
X126225000Y-88500000I0J100000D01*
G01*
X126225000Y-87225000D01*
G75*
G02*
X126325000Y-87125000I100000J0D01*
G01*
X126525000Y-87125000D01*
G75*
G02*
X126625000Y-87225000I0J-100000D01*
G01*
X126625000Y-88500000D01*
G75*
G02*
X126525000Y-88600000I-100000J0D01*
G01*
G37*
G36*
G01*
X127175000Y-88600000D02*
X126975000Y-88600000D01*
G75*
G02*
X126875000Y-88500000I0J100000D01*
G01*
X126875000Y-87225000D01*
G75*
G02*
X126975000Y-87125000I100000J0D01*
G01*
X127175000Y-87125000D01*
G75*
G02*
X127275000Y-87225000I0J-100000D01*
G01*
X127275000Y-88500000D01*
G75*
G02*
X127175000Y-88600000I-100000J0D01*
G01*
G37*
G36*
G01*
X127825000Y-88600000D02*
X127625000Y-88600000D01*
G75*
G02*
X127525000Y-88500000I0J100000D01*
G01*
X127525000Y-87225000D01*
G75*
G02*
X127625000Y-87125000I100000J0D01*
G01*
X127825000Y-87125000D01*
G75*
G02*
X127925000Y-87225000I0J-100000D01*
G01*
X127925000Y-88500000D01*
G75*
G02*
X127825000Y-88600000I-100000J0D01*
G01*
G37*
G36*
G01*
X128475000Y-88600000D02*
X128275000Y-88600000D01*
G75*
G02*
X128175000Y-88500000I0J100000D01*
G01*
X128175000Y-87225000D01*
G75*
G02*
X128275000Y-87125000I100000J0D01*
G01*
X128475000Y-87125000D01*
G75*
G02*
X128575000Y-87225000I0J-100000D01*
G01*
X128575000Y-88500000D01*
G75*
G02*
X128475000Y-88600000I-100000J0D01*
G01*
G37*
G36*
G01*
X129125000Y-88600000D02*
X128925000Y-88600000D01*
G75*
G02*
X128825000Y-88500000I0J100000D01*
G01*
X128825000Y-87225000D01*
G75*
G02*
X128925000Y-87125000I100000J0D01*
G01*
X129125000Y-87125000D01*
G75*
G02*
X129225000Y-87225000I0J-100000D01*
G01*
X129225000Y-88500000D01*
G75*
G02*
X129125000Y-88600000I-100000J0D01*
G01*
G37*
G36*
G01*
X129775000Y-88600000D02*
X129575000Y-88600000D01*
G75*
G02*
X129475000Y-88500000I0J100000D01*
G01*
X129475000Y-87225000D01*
G75*
G02*
X129575000Y-87125000I100000J0D01*
G01*
X129775000Y-87125000D01*
G75*
G02*
X129875000Y-87225000I0J-100000D01*
G01*
X129875000Y-88500000D01*
G75*
G02*
X129775000Y-88600000I-100000J0D01*
G01*
G37*
G36*
G01*
X130425000Y-88600000D02*
X130225000Y-88600000D01*
G75*
G02*
X130125000Y-88500000I0J100000D01*
G01*
X130125000Y-87225000D01*
G75*
G02*
X130225000Y-87125000I100000J0D01*
G01*
X130425000Y-87125000D01*
G75*
G02*
X130525000Y-87225000I0J-100000D01*
G01*
X130525000Y-88500000D01*
G75*
G02*
X130425000Y-88600000I-100000J0D01*
G01*
G37*
G36*
G01*
X131075000Y-88600000D02*
X130875000Y-88600000D01*
G75*
G02*
X130775000Y-88500000I0J100000D01*
G01*
X130775000Y-87225000D01*
G75*
G02*
X130875000Y-87125000I100000J0D01*
G01*
X131075000Y-87125000D01*
G75*
G02*
X131175000Y-87225000I0J-100000D01*
G01*
X131175000Y-88500000D01*
G75*
G02*
X131075000Y-88600000I-100000J0D01*
G01*
G37*
G36*
G01*
X131725000Y-88600000D02*
X131525000Y-88600000D01*
G75*
G02*
X131425000Y-88500000I0J100000D01*
G01*
X131425000Y-87225000D01*
G75*
G02*
X131525000Y-87125000I100000J0D01*
G01*
X131725000Y-87125000D01*
G75*
G02*
X131825000Y-87225000I0J-100000D01*
G01*
X131825000Y-88500000D01*
G75*
G02*
X131725000Y-88600000I-100000J0D01*
G01*
G37*
G36*
G01*
X132375000Y-88600000D02*
X132175000Y-88600000D01*
G75*
G02*
X132075000Y-88500000I0J100000D01*
G01*
X132075000Y-87225000D01*
G75*
G02*
X132175000Y-87125000I100000J0D01*
G01*
X132375000Y-87125000D01*
G75*
G02*
X132475000Y-87225000I0J-100000D01*
G01*
X132475000Y-88500000D01*
G75*
G02*
X132375000Y-88600000I-100000J0D01*
G01*
G37*
G36*
G01*
X133025000Y-88600000D02*
X132825000Y-88600000D01*
G75*
G02*
X132725000Y-88500000I0J100000D01*
G01*
X132725000Y-87225000D01*
G75*
G02*
X132825000Y-87125000I100000J0D01*
G01*
X133025000Y-87125000D01*
G75*
G02*
X133125000Y-87225000I0J-100000D01*
G01*
X133125000Y-88500000D01*
G75*
G02*
X133025000Y-88600000I-100000J0D01*
G01*
G37*
G36*
G01*
X133675000Y-88600000D02*
X133475000Y-88600000D01*
G75*
G02*
X133375000Y-88500000I0J100000D01*
G01*
X133375000Y-87225000D01*
G75*
G02*
X133475000Y-87125000I100000J0D01*
G01*
X133675000Y-87125000D01*
G75*
G02*
X133775000Y-87225000I0J-100000D01*
G01*
X133775000Y-88500000D01*
G75*
G02*
X133675000Y-88600000I-100000J0D01*
G01*
G37*
G36*
G01*
X133675000Y-82875000D02*
X133475000Y-82875000D01*
G75*
G02*
X133375000Y-82775000I0J100000D01*
G01*
X133375000Y-81500000D01*
G75*
G02*
X133475000Y-81400000I100000J0D01*
G01*
X133675000Y-81400000D01*
G75*
G02*
X133775000Y-81500000I0J-100000D01*
G01*
X133775000Y-82775000D01*
G75*
G02*
X133675000Y-82875000I-100000J0D01*
G01*
G37*
G36*
G01*
X133025000Y-82875000D02*
X132825000Y-82875000D01*
G75*
G02*
X132725000Y-82775000I0J100000D01*
G01*
X132725000Y-81500000D01*
G75*
G02*
X132825000Y-81400000I100000J0D01*
G01*
X133025000Y-81400000D01*
G75*
G02*
X133125000Y-81500000I0J-100000D01*
G01*
X133125000Y-82775000D01*
G75*
G02*
X133025000Y-82875000I-100000J0D01*
G01*
G37*
G36*
G01*
X132375000Y-82875000D02*
X132175000Y-82875000D01*
G75*
G02*
X132075000Y-82775000I0J100000D01*
G01*
X132075000Y-81500000D01*
G75*
G02*
X132175000Y-81400000I100000J0D01*
G01*
X132375000Y-81400000D01*
G75*
G02*
X132475000Y-81500000I0J-100000D01*
G01*
X132475000Y-82775000D01*
G75*
G02*
X132375000Y-82875000I-100000J0D01*
G01*
G37*
G36*
G01*
X131725000Y-82875000D02*
X131525000Y-82875000D01*
G75*
G02*
X131425000Y-82775000I0J100000D01*
G01*
X131425000Y-81500000D01*
G75*
G02*
X131525000Y-81400000I100000J0D01*
G01*
X131725000Y-81400000D01*
G75*
G02*
X131825000Y-81500000I0J-100000D01*
G01*
X131825000Y-82775000D01*
G75*
G02*
X131725000Y-82875000I-100000J0D01*
G01*
G37*
G36*
G01*
X131075000Y-82875000D02*
X130875000Y-82875000D01*
G75*
G02*
X130775000Y-82775000I0J100000D01*
G01*
X130775000Y-81500000D01*
G75*
G02*
X130875000Y-81400000I100000J0D01*
G01*
X131075000Y-81400000D01*
G75*
G02*
X131175000Y-81500000I0J-100000D01*
G01*
X131175000Y-82775000D01*
G75*
G02*
X131075000Y-82875000I-100000J0D01*
G01*
G37*
G36*
G01*
X130425000Y-82875000D02*
X130225000Y-82875000D01*
G75*
G02*
X130125000Y-82775000I0J100000D01*
G01*
X130125000Y-81500000D01*
G75*
G02*
X130225000Y-81400000I100000J0D01*
G01*
X130425000Y-81400000D01*
G75*
G02*
X130525000Y-81500000I0J-100000D01*
G01*
X130525000Y-82775000D01*
G75*
G02*
X130425000Y-82875000I-100000J0D01*
G01*
G37*
G36*
G01*
X129775000Y-82875000D02*
X129575000Y-82875000D01*
G75*
G02*
X129475000Y-82775000I0J100000D01*
G01*
X129475000Y-81500000D01*
G75*
G02*
X129575000Y-81400000I100000J0D01*
G01*
X129775000Y-81400000D01*
G75*
G02*
X129875000Y-81500000I0J-100000D01*
G01*
X129875000Y-82775000D01*
G75*
G02*
X129775000Y-82875000I-100000J0D01*
G01*
G37*
G36*
G01*
X129125000Y-82875000D02*
X128925000Y-82875000D01*
G75*
G02*
X128825000Y-82775000I0J100000D01*
G01*
X128825000Y-81500000D01*
G75*
G02*
X128925000Y-81400000I100000J0D01*
G01*
X129125000Y-81400000D01*
G75*
G02*
X129225000Y-81500000I0J-100000D01*
G01*
X129225000Y-82775000D01*
G75*
G02*
X129125000Y-82875000I-100000J0D01*
G01*
G37*
G36*
G01*
X128475000Y-82875000D02*
X128275000Y-82875000D01*
G75*
G02*
X128175000Y-82775000I0J100000D01*
G01*
X128175000Y-81500000D01*
G75*
G02*
X128275000Y-81400000I100000J0D01*
G01*
X128475000Y-81400000D01*
G75*
G02*
X128575000Y-81500000I0J-100000D01*
G01*
X128575000Y-82775000D01*
G75*
G02*
X128475000Y-82875000I-100000J0D01*
G01*
G37*
G36*
G01*
X127825000Y-82875000D02*
X127625000Y-82875000D01*
G75*
G02*
X127525000Y-82775000I0J100000D01*
G01*
X127525000Y-81500000D01*
G75*
G02*
X127625000Y-81400000I100000J0D01*
G01*
X127825000Y-81400000D01*
G75*
G02*
X127925000Y-81500000I0J-100000D01*
G01*
X127925000Y-82775000D01*
G75*
G02*
X127825000Y-82875000I-100000J0D01*
G01*
G37*
G36*
G01*
X127175000Y-82875000D02*
X126975000Y-82875000D01*
G75*
G02*
X126875000Y-82775000I0J100000D01*
G01*
X126875000Y-81500000D01*
G75*
G02*
X126975000Y-81400000I100000J0D01*
G01*
X127175000Y-81400000D01*
G75*
G02*
X127275000Y-81500000I0J-100000D01*
G01*
X127275000Y-82775000D01*
G75*
G02*
X127175000Y-82875000I-100000J0D01*
G01*
G37*
G36*
G01*
X126525000Y-82875000D02*
X126325000Y-82875000D01*
G75*
G02*
X126225000Y-82775000I0J100000D01*
G01*
X126225000Y-81500000D01*
G75*
G02*
X126325000Y-81400000I100000J0D01*
G01*
X126525000Y-81400000D01*
G75*
G02*
X126625000Y-81500000I0J-100000D01*
G01*
X126625000Y-82775000D01*
G75*
G02*
X126525000Y-82875000I-100000J0D01*
G01*
G37*
G36*
G01*
X121830000Y-68490000D02*
X122170000Y-68490000D01*
G75*
G02*
X122310000Y-68630000I0J-140000D01*
G01*
X122310000Y-68910000D01*
G75*
G02*
X122170000Y-69050000I-140000J0D01*
G01*
X121830000Y-69050000D01*
G75*
G02*
X121690000Y-68910000I0J140000D01*
G01*
X121690000Y-68630000D01*
G75*
G02*
X121830000Y-68490000I140000J0D01*
G01*
G37*
G36*
G01*
X121830000Y-69450000D02*
X122170000Y-69450000D01*
G75*
G02*
X122310000Y-69590000I0J-140000D01*
G01*
X122310000Y-69870000D01*
G75*
G02*
X122170000Y-70010000I-140000J0D01*
G01*
X121830000Y-70010000D01*
G75*
G02*
X121690000Y-69870000I0J140000D01*
G01*
X121690000Y-69590000D01*
G75*
G02*
X121830000Y-69450000I140000J0D01*
G01*
G37*
D13*
X26100000Y-69500000D03*
X26100000Y-75500000D03*
G36*
G01*
X42799999Y-67950000D02*
X45400001Y-67950000D01*
G75*
G02*
X45650000Y-68199999I0J-249999D01*
G01*
X45650000Y-70800001D01*
G75*
G02*
X45400001Y-71050000I-249999J0D01*
G01*
X42799999Y-71050000D01*
G75*
G02*
X42550000Y-70800001I0J249999D01*
G01*
X42550000Y-68199999D01*
G75*
G02*
X42799999Y-67950000I249999J0D01*
G01*
G37*
D14*
X44100000Y-75500000D03*
G36*
G01*
X107920000Y-133510000D02*
X107580000Y-133510000D01*
G75*
G02*
X107440000Y-133370000I0J140000D01*
G01*
X107440000Y-133090000D01*
G75*
G02*
X107580000Y-132950000I140000J0D01*
G01*
X107920000Y-132950000D01*
G75*
G02*
X108060000Y-133090000I0J-140000D01*
G01*
X108060000Y-133370000D01*
G75*
G02*
X107920000Y-133510000I-140000J0D01*
G01*
G37*
G36*
G01*
X107920000Y-132550000D02*
X107580000Y-132550000D01*
G75*
G02*
X107440000Y-132410000I0J140000D01*
G01*
X107440000Y-132130000D01*
G75*
G02*
X107580000Y-131990000I140000J0D01*
G01*
X107920000Y-131990000D01*
G75*
G02*
X108060000Y-132130000I0J-140000D01*
G01*
X108060000Y-132410000D01*
G75*
G02*
X107920000Y-132550000I-140000J0D01*
G01*
G37*
G36*
G01*
X125720000Y-80435000D02*
X125720000Y-80065000D01*
G75*
G02*
X125855000Y-79930000I135000J0D01*
G01*
X126125000Y-79930000D01*
G75*
G02*
X126260000Y-80065000I0J-135000D01*
G01*
X126260000Y-80435000D01*
G75*
G02*
X126125000Y-80570000I-135000J0D01*
G01*
X125855000Y-80570000D01*
G75*
G02*
X125720000Y-80435000I0J135000D01*
G01*
G37*
G36*
G01*
X126740000Y-80435000D02*
X126740000Y-80065000D01*
G75*
G02*
X126875000Y-79930000I135000J0D01*
G01*
X127145000Y-79930000D01*
G75*
G02*
X127280000Y-80065000I0J-135000D01*
G01*
X127280000Y-80435000D01*
G75*
G02*
X127145000Y-80570000I-135000J0D01*
G01*
X126875000Y-80570000D01*
G75*
G02*
X126740000Y-80435000I0J135000D01*
G01*
G37*
G36*
G01*
X89675000Y-94300000D02*
X89675000Y-94600000D01*
G75*
G02*
X89525000Y-94750000I-150000J0D01*
G01*
X88350000Y-94750000D01*
G75*
G02*
X88200000Y-94600000I0J150000D01*
G01*
X88200000Y-94300000D01*
G75*
G02*
X88350000Y-94150000I150000J0D01*
G01*
X89525000Y-94150000D01*
G75*
G02*
X89675000Y-94300000I0J-150000D01*
G01*
G37*
G36*
G01*
X89675000Y-92400000D02*
X89675000Y-92700000D01*
G75*
G02*
X89525000Y-92850000I-150000J0D01*
G01*
X88350000Y-92850000D01*
G75*
G02*
X88200000Y-92700000I0J150000D01*
G01*
X88200000Y-92400000D01*
G75*
G02*
X88350000Y-92250000I150000J0D01*
G01*
X89525000Y-92250000D01*
G75*
G02*
X89675000Y-92400000I0J-150000D01*
G01*
G37*
G36*
G01*
X87800000Y-93350000D02*
X87800000Y-93650000D01*
G75*
G02*
X87650000Y-93800000I-150000J0D01*
G01*
X86475000Y-93800000D01*
G75*
G02*
X86325000Y-93650000I0J150000D01*
G01*
X86325000Y-93350000D01*
G75*
G02*
X86475000Y-93200000I150000J0D01*
G01*
X87650000Y-93200000D01*
G75*
G02*
X87800000Y-93350000I0J-150000D01*
G01*
G37*
G36*
G01*
X53131250Y-187750000D02*
X52368750Y-187750000D01*
G75*
G02*
X52150000Y-187531250I0J218750D01*
G01*
X52150000Y-187093750D01*
G75*
G02*
X52368750Y-186875000I218750J0D01*
G01*
X53131250Y-186875000D01*
G75*
G02*
X53350000Y-187093750I0J-218750D01*
G01*
X53350000Y-187531250D01*
G75*
G02*
X53131250Y-187750000I-218750J0D01*
G01*
G37*
G36*
G01*
X53131250Y-185625000D02*
X52368750Y-185625000D01*
G75*
G02*
X52150000Y-185406250I0J218750D01*
G01*
X52150000Y-184968750D01*
G75*
G02*
X52368750Y-184750000I218750J0D01*
G01*
X53131250Y-184750000D01*
G75*
G02*
X53350000Y-184968750I0J-218750D01*
G01*
X53350000Y-185406250D01*
G75*
G02*
X53131250Y-185625000I-218750J0D01*
G01*
G37*
G36*
G01*
X112325000Y-124900000D02*
X112175000Y-124900000D01*
G75*
G02*
X112100000Y-124825000I0J75000D01*
G01*
X112100000Y-123500000D01*
G75*
G02*
X112175000Y-123425000I75000J0D01*
G01*
X112325000Y-123425000D01*
G75*
G02*
X112400000Y-123500000I0J-75000D01*
G01*
X112400000Y-124825000D01*
G75*
G02*
X112325000Y-124900000I-75000J0D01*
G01*
G37*
G36*
G01*
X112825000Y-124900000D02*
X112675000Y-124900000D01*
G75*
G02*
X112600000Y-124825000I0J75000D01*
G01*
X112600000Y-123500000D01*
G75*
G02*
X112675000Y-123425000I75000J0D01*
G01*
X112825000Y-123425000D01*
G75*
G02*
X112900000Y-123500000I0J-75000D01*
G01*
X112900000Y-124825000D01*
G75*
G02*
X112825000Y-124900000I-75000J0D01*
G01*
G37*
G36*
G01*
X113325000Y-124900000D02*
X113175000Y-124900000D01*
G75*
G02*
X113100000Y-124825000I0J75000D01*
G01*
X113100000Y-123500000D01*
G75*
G02*
X113175000Y-123425000I75000J0D01*
G01*
X113325000Y-123425000D01*
G75*
G02*
X113400000Y-123500000I0J-75000D01*
G01*
X113400000Y-124825000D01*
G75*
G02*
X113325000Y-124900000I-75000J0D01*
G01*
G37*
G36*
G01*
X113825000Y-124900000D02*
X113675000Y-124900000D01*
G75*
G02*
X113600000Y-124825000I0J75000D01*
G01*
X113600000Y-123500000D01*
G75*
G02*
X113675000Y-123425000I75000J0D01*
G01*
X113825000Y-123425000D01*
G75*
G02*
X113900000Y-123500000I0J-75000D01*
G01*
X113900000Y-124825000D01*
G75*
G02*
X113825000Y-124900000I-75000J0D01*
G01*
G37*
G36*
G01*
X114325000Y-124900000D02*
X114175000Y-124900000D01*
G75*
G02*
X114100000Y-124825000I0J75000D01*
G01*
X114100000Y-123500000D01*
G75*
G02*
X114175000Y-123425000I75000J0D01*
G01*
X114325000Y-123425000D01*
G75*
G02*
X114400000Y-123500000I0J-75000D01*
G01*
X114400000Y-124825000D01*
G75*
G02*
X114325000Y-124900000I-75000J0D01*
G01*
G37*
G36*
G01*
X114825000Y-124900000D02*
X114675000Y-124900000D01*
G75*
G02*
X114600000Y-124825000I0J75000D01*
G01*
X114600000Y-123500000D01*
G75*
G02*
X114675000Y-123425000I75000J0D01*
G01*
X114825000Y-123425000D01*
G75*
G02*
X114900000Y-123500000I0J-75000D01*
G01*
X114900000Y-124825000D01*
G75*
G02*
X114825000Y-124900000I-75000J0D01*
G01*
G37*
G36*
G01*
X115325000Y-124900000D02*
X115175000Y-124900000D01*
G75*
G02*
X115100000Y-124825000I0J75000D01*
G01*
X115100000Y-123500000D01*
G75*
G02*
X115175000Y-123425000I75000J0D01*
G01*
X115325000Y-123425000D01*
G75*
G02*
X115400000Y-123500000I0J-75000D01*
G01*
X115400000Y-124825000D01*
G75*
G02*
X115325000Y-124900000I-75000J0D01*
G01*
G37*
G36*
G01*
X115825000Y-124900000D02*
X115675000Y-124900000D01*
G75*
G02*
X115600000Y-124825000I0J75000D01*
G01*
X115600000Y-123500000D01*
G75*
G02*
X115675000Y-123425000I75000J0D01*
G01*
X115825000Y-123425000D01*
G75*
G02*
X115900000Y-123500000I0J-75000D01*
G01*
X115900000Y-124825000D01*
G75*
G02*
X115825000Y-124900000I-75000J0D01*
G01*
G37*
G36*
G01*
X116325000Y-124900000D02*
X116175000Y-124900000D01*
G75*
G02*
X116100000Y-124825000I0J75000D01*
G01*
X116100000Y-123500000D01*
G75*
G02*
X116175000Y-123425000I75000J0D01*
G01*
X116325000Y-123425000D01*
G75*
G02*
X116400000Y-123500000I0J-75000D01*
G01*
X116400000Y-124825000D01*
G75*
G02*
X116325000Y-124900000I-75000J0D01*
G01*
G37*
G36*
G01*
X116825000Y-124900000D02*
X116675000Y-124900000D01*
G75*
G02*
X116600000Y-124825000I0J75000D01*
G01*
X116600000Y-123500000D01*
G75*
G02*
X116675000Y-123425000I75000J0D01*
G01*
X116825000Y-123425000D01*
G75*
G02*
X116900000Y-123500000I0J-75000D01*
G01*
X116900000Y-124825000D01*
G75*
G02*
X116825000Y-124900000I-75000J0D01*
G01*
G37*
G36*
G01*
X117325000Y-124900000D02*
X117175000Y-124900000D01*
G75*
G02*
X117100000Y-124825000I0J75000D01*
G01*
X117100000Y-123500000D01*
G75*
G02*
X117175000Y-123425000I75000J0D01*
G01*
X117325000Y-123425000D01*
G75*
G02*
X117400000Y-123500000I0J-75000D01*
G01*
X117400000Y-124825000D01*
G75*
G02*
X117325000Y-124900000I-75000J0D01*
G01*
G37*
G36*
G01*
X117825000Y-124900000D02*
X117675000Y-124900000D01*
G75*
G02*
X117600000Y-124825000I0J75000D01*
G01*
X117600000Y-123500000D01*
G75*
G02*
X117675000Y-123425000I75000J0D01*
G01*
X117825000Y-123425000D01*
G75*
G02*
X117900000Y-123500000I0J-75000D01*
G01*
X117900000Y-124825000D01*
G75*
G02*
X117825000Y-124900000I-75000J0D01*
G01*
G37*
G36*
G01*
X119825000Y-122900000D02*
X118500000Y-122900000D01*
G75*
G02*
X118425000Y-122825000I0J75000D01*
G01*
X118425000Y-122675000D01*
G75*
G02*
X118500000Y-122600000I75000J0D01*
G01*
X119825000Y-122600000D01*
G75*
G02*
X119900000Y-122675000I0J-75000D01*
G01*
X119900000Y-122825000D01*
G75*
G02*
X119825000Y-122900000I-75000J0D01*
G01*
G37*
G36*
G01*
X119825000Y-122400000D02*
X118500000Y-122400000D01*
G75*
G02*
X118425000Y-122325000I0J75000D01*
G01*
X118425000Y-122175000D01*
G75*
G02*
X118500000Y-122100000I75000J0D01*
G01*
X119825000Y-122100000D01*
G75*
G02*
X119900000Y-122175000I0J-75000D01*
G01*
X119900000Y-122325000D01*
G75*
G02*
X119825000Y-122400000I-75000J0D01*
G01*
G37*
G36*
G01*
X119825000Y-121900000D02*
X118500000Y-121900000D01*
G75*
G02*
X118425000Y-121825000I0J75000D01*
G01*
X118425000Y-121675000D01*
G75*
G02*
X118500000Y-121600000I75000J0D01*
G01*
X119825000Y-121600000D01*
G75*
G02*
X119900000Y-121675000I0J-75000D01*
G01*
X119900000Y-121825000D01*
G75*
G02*
X119825000Y-121900000I-75000J0D01*
G01*
G37*
G36*
G01*
X119825000Y-121400000D02*
X118500000Y-121400000D01*
G75*
G02*
X118425000Y-121325000I0J75000D01*
G01*
X118425000Y-121175000D01*
G75*
G02*
X118500000Y-121100000I75000J0D01*
G01*
X119825000Y-121100000D01*
G75*
G02*
X119900000Y-121175000I0J-75000D01*
G01*
X119900000Y-121325000D01*
G75*
G02*
X119825000Y-121400000I-75000J0D01*
G01*
G37*
G36*
G01*
X119825000Y-120900000D02*
X118500000Y-120900000D01*
G75*
G02*
X118425000Y-120825000I0J75000D01*
G01*
X118425000Y-120675000D01*
G75*
G02*
X118500000Y-120600000I75000J0D01*
G01*
X119825000Y-120600000D01*
G75*
G02*
X119900000Y-120675000I0J-75000D01*
G01*
X119900000Y-120825000D01*
G75*
G02*
X119825000Y-120900000I-75000J0D01*
G01*
G37*
G36*
G01*
X119825000Y-120400000D02*
X118500000Y-120400000D01*
G75*
G02*
X118425000Y-120325000I0J75000D01*
G01*
X118425000Y-120175000D01*
G75*
G02*
X118500000Y-120100000I75000J0D01*
G01*
X119825000Y-120100000D01*
G75*
G02*
X119900000Y-120175000I0J-75000D01*
G01*
X119900000Y-120325000D01*
G75*
G02*
X119825000Y-120400000I-75000J0D01*
G01*
G37*
G36*
G01*
X119825000Y-119900000D02*
X118500000Y-119900000D01*
G75*
G02*
X118425000Y-119825000I0J75000D01*
G01*
X118425000Y-119675000D01*
G75*
G02*
X118500000Y-119600000I75000J0D01*
G01*
X119825000Y-119600000D01*
G75*
G02*
X119900000Y-119675000I0J-75000D01*
G01*
X119900000Y-119825000D01*
G75*
G02*
X119825000Y-119900000I-75000J0D01*
G01*
G37*
G36*
G01*
X119825000Y-119400000D02*
X118500000Y-119400000D01*
G75*
G02*
X118425000Y-119325000I0J75000D01*
G01*
X118425000Y-119175000D01*
G75*
G02*
X118500000Y-119100000I75000J0D01*
G01*
X119825000Y-119100000D01*
G75*
G02*
X119900000Y-119175000I0J-75000D01*
G01*
X119900000Y-119325000D01*
G75*
G02*
X119825000Y-119400000I-75000J0D01*
G01*
G37*
G36*
G01*
X119825000Y-118900000D02*
X118500000Y-118900000D01*
G75*
G02*
X118425000Y-118825000I0J75000D01*
G01*
X118425000Y-118675000D01*
G75*
G02*
X118500000Y-118600000I75000J0D01*
G01*
X119825000Y-118600000D01*
G75*
G02*
X119900000Y-118675000I0J-75000D01*
G01*
X119900000Y-118825000D01*
G75*
G02*
X119825000Y-118900000I-75000J0D01*
G01*
G37*
G36*
G01*
X119825000Y-118400000D02*
X118500000Y-118400000D01*
G75*
G02*
X118425000Y-118325000I0J75000D01*
G01*
X118425000Y-118175000D01*
G75*
G02*
X118500000Y-118100000I75000J0D01*
G01*
X119825000Y-118100000D01*
G75*
G02*
X119900000Y-118175000I0J-75000D01*
G01*
X119900000Y-118325000D01*
G75*
G02*
X119825000Y-118400000I-75000J0D01*
G01*
G37*
G36*
G01*
X119825000Y-117900000D02*
X118500000Y-117900000D01*
G75*
G02*
X118425000Y-117825000I0J75000D01*
G01*
X118425000Y-117675000D01*
G75*
G02*
X118500000Y-117600000I75000J0D01*
G01*
X119825000Y-117600000D01*
G75*
G02*
X119900000Y-117675000I0J-75000D01*
G01*
X119900000Y-117825000D01*
G75*
G02*
X119825000Y-117900000I-75000J0D01*
G01*
G37*
G36*
G01*
X119825000Y-117400000D02*
X118500000Y-117400000D01*
G75*
G02*
X118425000Y-117325000I0J75000D01*
G01*
X118425000Y-117175000D01*
G75*
G02*
X118500000Y-117100000I75000J0D01*
G01*
X119825000Y-117100000D01*
G75*
G02*
X119900000Y-117175000I0J-75000D01*
G01*
X119900000Y-117325000D01*
G75*
G02*
X119825000Y-117400000I-75000J0D01*
G01*
G37*
G36*
G01*
X117825000Y-116575000D02*
X117675000Y-116575000D01*
G75*
G02*
X117600000Y-116500000I0J75000D01*
G01*
X117600000Y-115175000D01*
G75*
G02*
X117675000Y-115100000I75000J0D01*
G01*
X117825000Y-115100000D01*
G75*
G02*
X117900000Y-115175000I0J-75000D01*
G01*
X117900000Y-116500000D01*
G75*
G02*
X117825000Y-116575000I-75000J0D01*
G01*
G37*
G36*
G01*
X117325000Y-116575000D02*
X117175000Y-116575000D01*
G75*
G02*
X117100000Y-116500000I0J75000D01*
G01*
X117100000Y-115175000D01*
G75*
G02*
X117175000Y-115100000I75000J0D01*
G01*
X117325000Y-115100000D01*
G75*
G02*
X117400000Y-115175000I0J-75000D01*
G01*
X117400000Y-116500000D01*
G75*
G02*
X117325000Y-116575000I-75000J0D01*
G01*
G37*
G36*
G01*
X116825000Y-116575000D02*
X116675000Y-116575000D01*
G75*
G02*
X116600000Y-116500000I0J75000D01*
G01*
X116600000Y-115175000D01*
G75*
G02*
X116675000Y-115100000I75000J0D01*
G01*
X116825000Y-115100000D01*
G75*
G02*
X116900000Y-115175000I0J-75000D01*
G01*
X116900000Y-116500000D01*
G75*
G02*
X116825000Y-116575000I-75000J0D01*
G01*
G37*
G36*
G01*
X116325000Y-116575000D02*
X116175000Y-116575000D01*
G75*
G02*
X116100000Y-116500000I0J75000D01*
G01*
X116100000Y-115175000D01*
G75*
G02*
X116175000Y-115100000I75000J0D01*
G01*
X116325000Y-115100000D01*
G75*
G02*
X116400000Y-115175000I0J-75000D01*
G01*
X116400000Y-116500000D01*
G75*
G02*
X116325000Y-116575000I-75000J0D01*
G01*
G37*
G36*
G01*
X115825000Y-116575000D02*
X115675000Y-116575000D01*
G75*
G02*
X115600000Y-116500000I0J75000D01*
G01*
X115600000Y-115175000D01*
G75*
G02*
X115675000Y-115100000I75000J0D01*
G01*
X115825000Y-115100000D01*
G75*
G02*
X115900000Y-115175000I0J-75000D01*
G01*
X115900000Y-116500000D01*
G75*
G02*
X115825000Y-116575000I-75000J0D01*
G01*
G37*
G36*
G01*
X115325000Y-116575000D02*
X115175000Y-116575000D01*
G75*
G02*
X115100000Y-116500000I0J75000D01*
G01*
X115100000Y-115175000D01*
G75*
G02*
X115175000Y-115100000I75000J0D01*
G01*
X115325000Y-115100000D01*
G75*
G02*
X115400000Y-115175000I0J-75000D01*
G01*
X115400000Y-116500000D01*
G75*
G02*
X115325000Y-116575000I-75000J0D01*
G01*
G37*
G36*
G01*
X114825000Y-116575000D02*
X114675000Y-116575000D01*
G75*
G02*
X114600000Y-116500000I0J75000D01*
G01*
X114600000Y-115175000D01*
G75*
G02*
X114675000Y-115100000I75000J0D01*
G01*
X114825000Y-115100000D01*
G75*
G02*
X114900000Y-115175000I0J-75000D01*
G01*
X114900000Y-116500000D01*
G75*
G02*
X114825000Y-116575000I-75000J0D01*
G01*
G37*
G36*
G01*
X114325000Y-116575000D02*
X114175000Y-116575000D01*
G75*
G02*
X114100000Y-116500000I0J75000D01*
G01*
X114100000Y-115175000D01*
G75*
G02*
X114175000Y-115100000I75000J0D01*
G01*
X114325000Y-115100000D01*
G75*
G02*
X114400000Y-115175000I0J-75000D01*
G01*
X114400000Y-116500000D01*
G75*
G02*
X114325000Y-116575000I-75000J0D01*
G01*
G37*
G36*
G01*
X113825000Y-116575000D02*
X113675000Y-116575000D01*
G75*
G02*
X113600000Y-116500000I0J75000D01*
G01*
X113600000Y-115175000D01*
G75*
G02*
X113675000Y-115100000I75000J0D01*
G01*
X113825000Y-115100000D01*
G75*
G02*
X113900000Y-115175000I0J-75000D01*
G01*
X113900000Y-116500000D01*
G75*
G02*
X113825000Y-116575000I-75000J0D01*
G01*
G37*
G36*
G01*
X113325000Y-116575000D02*
X113175000Y-116575000D01*
G75*
G02*
X113100000Y-116500000I0J75000D01*
G01*
X113100000Y-115175000D01*
G75*
G02*
X113175000Y-115100000I75000J0D01*
G01*
X113325000Y-115100000D01*
G75*
G02*
X113400000Y-115175000I0J-75000D01*
G01*
X113400000Y-116500000D01*
G75*
G02*
X113325000Y-116575000I-75000J0D01*
G01*
G37*
G36*
G01*
X112825000Y-116575000D02*
X112675000Y-116575000D01*
G75*
G02*
X112600000Y-116500000I0J75000D01*
G01*
X112600000Y-115175000D01*
G75*
G02*
X112675000Y-115100000I75000J0D01*
G01*
X112825000Y-115100000D01*
G75*
G02*
X112900000Y-115175000I0J-75000D01*
G01*
X112900000Y-116500000D01*
G75*
G02*
X112825000Y-116575000I-75000J0D01*
G01*
G37*
G36*
G01*
X112325000Y-116575000D02*
X112175000Y-116575000D01*
G75*
G02*
X112100000Y-116500000I0J75000D01*
G01*
X112100000Y-115175000D01*
G75*
G02*
X112175000Y-115100000I75000J0D01*
G01*
X112325000Y-115100000D01*
G75*
G02*
X112400000Y-115175000I0J-75000D01*
G01*
X112400000Y-116500000D01*
G75*
G02*
X112325000Y-116575000I-75000J0D01*
G01*
G37*
G36*
G01*
X111500000Y-117400000D02*
X110175000Y-117400000D01*
G75*
G02*
X110100000Y-117325000I0J75000D01*
G01*
X110100000Y-117175000D01*
G75*
G02*
X110175000Y-117100000I75000J0D01*
G01*
X111500000Y-117100000D01*
G75*
G02*
X111575000Y-117175000I0J-75000D01*
G01*
X111575000Y-117325000D01*
G75*
G02*
X111500000Y-117400000I-75000J0D01*
G01*
G37*
G36*
G01*
X111500000Y-117900000D02*
X110175000Y-117900000D01*
G75*
G02*
X110100000Y-117825000I0J75000D01*
G01*
X110100000Y-117675000D01*
G75*
G02*
X110175000Y-117600000I75000J0D01*
G01*
X111500000Y-117600000D01*
G75*
G02*
X111575000Y-117675000I0J-75000D01*
G01*
X111575000Y-117825000D01*
G75*
G02*
X111500000Y-117900000I-75000J0D01*
G01*
G37*
G36*
G01*
X111500000Y-118400000D02*
X110175000Y-118400000D01*
G75*
G02*
X110100000Y-118325000I0J75000D01*
G01*
X110100000Y-118175000D01*
G75*
G02*
X110175000Y-118100000I75000J0D01*
G01*
X111500000Y-118100000D01*
G75*
G02*
X111575000Y-118175000I0J-75000D01*
G01*
X111575000Y-118325000D01*
G75*
G02*
X111500000Y-118400000I-75000J0D01*
G01*
G37*
G36*
G01*
X111500000Y-118900000D02*
X110175000Y-118900000D01*
G75*
G02*
X110100000Y-118825000I0J75000D01*
G01*
X110100000Y-118675000D01*
G75*
G02*
X110175000Y-118600000I75000J0D01*
G01*
X111500000Y-118600000D01*
G75*
G02*
X111575000Y-118675000I0J-75000D01*
G01*
X111575000Y-118825000D01*
G75*
G02*
X111500000Y-118900000I-75000J0D01*
G01*
G37*
G36*
G01*
X111500000Y-119400000D02*
X110175000Y-119400000D01*
G75*
G02*
X110100000Y-119325000I0J75000D01*
G01*
X110100000Y-119175000D01*
G75*
G02*
X110175000Y-119100000I75000J0D01*
G01*
X111500000Y-119100000D01*
G75*
G02*
X111575000Y-119175000I0J-75000D01*
G01*
X111575000Y-119325000D01*
G75*
G02*
X111500000Y-119400000I-75000J0D01*
G01*
G37*
G36*
G01*
X111500000Y-119900000D02*
X110175000Y-119900000D01*
G75*
G02*
X110100000Y-119825000I0J75000D01*
G01*
X110100000Y-119675000D01*
G75*
G02*
X110175000Y-119600000I75000J0D01*
G01*
X111500000Y-119600000D01*
G75*
G02*
X111575000Y-119675000I0J-75000D01*
G01*
X111575000Y-119825000D01*
G75*
G02*
X111500000Y-119900000I-75000J0D01*
G01*
G37*
G36*
G01*
X111500000Y-120400000D02*
X110175000Y-120400000D01*
G75*
G02*
X110100000Y-120325000I0J75000D01*
G01*
X110100000Y-120175000D01*
G75*
G02*
X110175000Y-120100000I75000J0D01*
G01*
X111500000Y-120100000D01*
G75*
G02*
X111575000Y-120175000I0J-75000D01*
G01*
X111575000Y-120325000D01*
G75*
G02*
X111500000Y-120400000I-75000J0D01*
G01*
G37*
G36*
G01*
X111500000Y-120900000D02*
X110175000Y-120900000D01*
G75*
G02*
X110100000Y-120825000I0J75000D01*
G01*
X110100000Y-120675000D01*
G75*
G02*
X110175000Y-120600000I75000J0D01*
G01*
X111500000Y-120600000D01*
G75*
G02*
X111575000Y-120675000I0J-75000D01*
G01*
X111575000Y-120825000D01*
G75*
G02*
X111500000Y-120900000I-75000J0D01*
G01*
G37*
G36*
G01*
X111500000Y-121400000D02*
X110175000Y-121400000D01*
G75*
G02*
X110100000Y-121325000I0J75000D01*
G01*
X110100000Y-121175000D01*
G75*
G02*
X110175000Y-121100000I75000J0D01*
G01*
X111500000Y-121100000D01*
G75*
G02*
X111575000Y-121175000I0J-75000D01*
G01*
X111575000Y-121325000D01*
G75*
G02*
X111500000Y-121400000I-75000J0D01*
G01*
G37*
G36*
G01*
X111500000Y-121900000D02*
X110175000Y-121900000D01*
G75*
G02*
X110100000Y-121825000I0J75000D01*
G01*
X110100000Y-121675000D01*
G75*
G02*
X110175000Y-121600000I75000J0D01*
G01*
X111500000Y-121600000D01*
G75*
G02*
X111575000Y-121675000I0J-75000D01*
G01*
X111575000Y-121825000D01*
G75*
G02*
X111500000Y-121900000I-75000J0D01*
G01*
G37*
G36*
G01*
X111500000Y-122400000D02*
X110175000Y-122400000D01*
G75*
G02*
X110100000Y-122325000I0J75000D01*
G01*
X110100000Y-122175000D01*
G75*
G02*
X110175000Y-122100000I75000J0D01*
G01*
X111500000Y-122100000D01*
G75*
G02*
X111575000Y-122175000I0J-75000D01*
G01*
X111575000Y-122325000D01*
G75*
G02*
X111500000Y-122400000I-75000J0D01*
G01*
G37*
G36*
G01*
X111500000Y-122900000D02*
X110175000Y-122900000D01*
G75*
G02*
X110100000Y-122825000I0J75000D01*
G01*
X110100000Y-122675000D01*
G75*
G02*
X110175000Y-122600000I75000J0D01*
G01*
X111500000Y-122600000D01*
G75*
G02*
X111575000Y-122675000I0J-75000D01*
G01*
X111575000Y-122825000D01*
G75*
G02*
X111500000Y-122900000I-75000J0D01*
G01*
G37*
D20*
X81000000Y-181650000D03*
X81000000Y-180350000D03*
G36*
G01*
X40800000Y-167325000D02*
X41100000Y-167325000D01*
G75*
G02*
X41250000Y-167475000I0J-150000D01*
G01*
X41250000Y-168650000D01*
G75*
G02*
X41100000Y-168800000I-150000J0D01*
G01*
X40800000Y-168800000D01*
G75*
G02*
X40650000Y-168650000I0J150000D01*
G01*
X40650000Y-167475000D01*
G75*
G02*
X40800000Y-167325000I150000J0D01*
G01*
G37*
G36*
G01*
X38900000Y-167325000D02*
X39200000Y-167325000D01*
G75*
G02*
X39350000Y-167475000I0J-150000D01*
G01*
X39350000Y-168650000D01*
G75*
G02*
X39200000Y-168800000I-150000J0D01*
G01*
X38900000Y-168800000D01*
G75*
G02*
X38750000Y-168650000I0J150000D01*
G01*
X38750000Y-167475000D01*
G75*
G02*
X38900000Y-167325000I150000J0D01*
G01*
G37*
G36*
G01*
X39850000Y-169200000D02*
X40150000Y-169200000D01*
G75*
G02*
X40300000Y-169350000I0J-150000D01*
G01*
X40300000Y-170525000D01*
G75*
G02*
X40150000Y-170675000I-150000J0D01*
G01*
X39850000Y-170675000D01*
G75*
G02*
X39700000Y-170525000I0J150000D01*
G01*
X39700000Y-169350000D01*
G75*
G02*
X39850000Y-169200000I150000J0D01*
G01*
G37*
D21*
X24000000Y-143000000D03*
G36*
G01*
X166970000Y-116185000D02*
X166970000Y-115815000D01*
G75*
G02*
X167105000Y-115680000I135000J0D01*
G01*
X167375000Y-115680000D01*
G75*
G02*
X167510000Y-115815000I0J-135000D01*
G01*
X167510000Y-116185000D01*
G75*
G02*
X167375000Y-116320000I-135000J0D01*
G01*
X167105000Y-116320000D01*
G75*
G02*
X166970000Y-116185000I0J135000D01*
G01*
G37*
G36*
G01*
X167990000Y-116185000D02*
X167990000Y-115815000D01*
G75*
G02*
X168125000Y-115680000I135000J0D01*
G01*
X168395000Y-115680000D01*
G75*
G02*
X168530000Y-115815000I0J-135000D01*
G01*
X168530000Y-116185000D01*
G75*
G02*
X168395000Y-116320000I-135000J0D01*
G01*
X168125000Y-116320000D01*
G75*
G02*
X167990000Y-116185000I0J135000D01*
G01*
G37*
G36*
G01*
X140780000Y-107315000D02*
X140780000Y-107685000D01*
G75*
G02*
X140645000Y-107820000I-135000J0D01*
G01*
X140375000Y-107820000D01*
G75*
G02*
X140240000Y-107685000I0J135000D01*
G01*
X140240000Y-107315000D01*
G75*
G02*
X140375000Y-107180000I135000J0D01*
G01*
X140645000Y-107180000D01*
G75*
G02*
X140780000Y-107315000I0J-135000D01*
G01*
G37*
G36*
G01*
X139760000Y-107315000D02*
X139760000Y-107685000D01*
G75*
G02*
X139625000Y-107820000I-135000J0D01*
G01*
X139355000Y-107820000D01*
G75*
G02*
X139220000Y-107685000I0J135000D01*
G01*
X139220000Y-107315000D01*
G75*
G02*
X139355000Y-107180000I135000J0D01*
G01*
X139625000Y-107180000D01*
G75*
G02*
X139760000Y-107315000I0J-135000D01*
G01*
G37*
G36*
G01*
X139140000Y-176770000D02*
X139140000Y-176430000D01*
G75*
G02*
X139280000Y-176290000I140000J0D01*
G01*
X139560000Y-176290000D01*
G75*
G02*
X139700000Y-176430000I0J-140000D01*
G01*
X139700000Y-176770000D01*
G75*
G02*
X139560000Y-176910000I-140000J0D01*
G01*
X139280000Y-176910000D01*
G75*
G02*
X139140000Y-176770000I0J140000D01*
G01*
G37*
G36*
G01*
X140100000Y-176770000D02*
X140100000Y-176430000D01*
G75*
G02*
X140240000Y-176290000I140000J0D01*
G01*
X140520000Y-176290000D01*
G75*
G02*
X140660000Y-176430000I0J-140000D01*
G01*
X140660000Y-176770000D01*
G75*
G02*
X140520000Y-176910000I-140000J0D01*
G01*
X140240000Y-176910000D01*
G75*
G02*
X140100000Y-176770000I0J140000D01*
G01*
G37*
D23*
X60842500Y-53500000D03*
D22*
X60842500Y-64250000D03*
X99342500Y-64250000D03*
X99342500Y-56250000D03*
D21*
X50000000Y-143000000D03*
G36*
G01*
X125720000Y-79185000D02*
X125720000Y-78815000D01*
G75*
G02*
X125855000Y-78680000I135000J0D01*
G01*
X126125000Y-78680000D01*
G75*
G02*
X126260000Y-78815000I0J-135000D01*
G01*
X126260000Y-79185000D01*
G75*
G02*
X126125000Y-79320000I-135000J0D01*
G01*
X125855000Y-79320000D01*
G75*
G02*
X125720000Y-79185000I0J135000D01*
G01*
G37*
G36*
G01*
X126740000Y-79185000D02*
X126740000Y-78815000D01*
G75*
G02*
X126875000Y-78680000I135000J0D01*
G01*
X127145000Y-78680000D01*
G75*
G02*
X127280000Y-78815000I0J-135000D01*
G01*
X127280000Y-79185000D01*
G75*
G02*
X127145000Y-79320000I-135000J0D01*
G01*
X126875000Y-79320000D01*
G75*
G02*
X126740000Y-79185000I0J135000D01*
G01*
G37*
X30000000Y-157000000D03*
X157000000Y-30000000D03*
G36*
G01*
X140780000Y-87315000D02*
X140780000Y-87685000D01*
G75*
G02*
X140645000Y-87820000I-135000J0D01*
G01*
X140375000Y-87820000D01*
G75*
G02*
X140240000Y-87685000I0J135000D01*
G01*
X140240000Y-87315000D01*
G75*
G02*
X140375000Y-87180000I135000J0D01*
G01*
X140645000Y-87180000D01*
G75*
G02*
X140780000Y-87315000I0J-135000D01*
G01*
G37*
G36*
G01*
X139760000Y-87315000D02*
X139760000Y-87685000D01*
G75*
G02*
X139625000Y-87820000I-135000J0D01*
G01*
X139355000Y-87820000D01*
G75*
G02*
X139220000Y-87685000I0J135000D01*
G01*
X139220000Y-87315000D01*
G75*
G02*
X139355000Y-87180000I135000J0D01*
G01*
X139625000Y-87180000D01*
G75*
G02*
X139760000Y-87315000I0J-135000D01*
G01*
G37*
G36*
G01*
X81381250Y-187500000D02*
X80618750Y-187500000D01*
G75*
G02*
X80400000Y-187281250I0J218750D01*
G01*
X80400000Y-186843750D01*
G75*
G02*
X80618750Y-186625000I218750J0D01*
G01*
X81381250Y-186625000D01*
G75*
G02*
X81600000Y-186843750I0J-218750D01*
G01*
X81600000Y-187281250D01*
G75*
G02*
X81381250Y-187500000I-218750J0D01*
G01*
G37*
G36*
G01*
X81381250Y-185375000D02*
X80618750Y-185375000D01*
G75*
G02*
X80400000Y-185156250I0J218750D01*
G01*
X80400000Y-184718750D01*
G75*
G02*
X80618750Y-184500000I218750J0D01*
G01*
X81381250Y-184500000D01*
G75*
G02*
X81600000Y-184718750I0J-218750D01*
G01*
X81600000Y-185156250D01*
G75*
G02*
X81381250Y-185375000I-218750J0D01*
G01*
G37*
G36*
G01*
X109920000Y-133510000D02*
X109580000Y-133510000D01*
G75*
G02*
X109440000Y-133370000I0J140000D01*
G01*
X109440000Y-133090000D01*
G75*
G02*
X109580000Y-132950000I140000J0D01*
G01*
X109920000Y-132950000D01*
G75*
G02*
X110060000Y-133090000I0J-140000D01*
G01*
X110060000Y-133370000D01*
G75*
G02*
X109920000Y-133510000I-140000J0D01*
G01*
G37*
G36*
G01*
X109920000Y-132550000D02*
X109580000Y-132550000D01*
G75*
G02*
X109440000Y-132410000I0J140000D01*
G01*
X109440000Y-132130000D01*
G75*
G02*
X109580000Y-131990000I140000J0D01*
G01*
X109920000Y-131990000D01*
G75*
G02*
X110060000Y-132130000I0J-140000D01*
G01*
X110060000Y-132410000D01*
G75*
G02*
X109920000Y-132550000I-140000J0D01*
G01*
G37*
D36*
X103350000Y-126750000D03*
X104650000Y-126750000D03*
G36*
G01*
X154935000Y-128280000D02*
X154565000Y-128280000D01*
G75*
G02*
X154430000Y-128145000I0J135000D01*
G01*
X154430000Y-127875000D01*
G75*
G02*
X154565000Y-127740000I135000J0D01*
G01*
X154935000Y-127740000D01*
G75*
G02*
X155070000Y-127875000I0J-135000D01*
G01*
X155070000Y-128145000D01*
G75*
G02*
X154935000Y-128280000I-135000J0D01*
G01*
G37*
G36*
G01*
X154935000Y-127260000D02*
X154565000Y-127260000D01*
G75*
G02*
X154430000Y-127125000I0J135000D01*
G01*
X154430000Y-126855000D01*
G75*
G02*
X154565000Y-126720000I135000J0D01*
G01*
X154935000Y-126720000D01*
G75*
G02*
X155070000Y-126855000I0J-135000D01*
G01*
X155070000Y-127125000D01*
G75*
G02*
X154935000Y-127260000I-135000J0D01*
G01*
G37*
D37*
X107250000Y-130250000D03*
X104750000Y-130250000D03*
G36*
G01*
X142325000Y-89200000D02*
X142325000Y-88900000D01*
G75*
G02*
X142475000Y-88750000I150000J0D01*
G01*
X143650000Y-88750000D01*
G75*
G02*
X143800000Y-88900000I0J-150000D01*
G01*
X143800000Y-89200000D01*
G75*
G02*
X143650000Y-89350000I-150000J0D01*
G01*
X142475000Y-89350000D01*
G75*
G02*
X142325000Y-89200000I0J150000D01*
G01*
G37*
G36*
G01*
X142325000Y-91100000D02*
X142325000Y-90800000D01*
G75*
G02*
X142475000Y-90650000I150000J0D01*
G01*
X143650000Y-90650000D01*
G75*
G02*
X143800000Y-90800000I0J-150000D01*
G01*
X143800000Y-91100000D01*
G75*
G02*
X143650000Y-91250000I-150000J0D01*
G01*
X142475000Y-91250000D01*
G75*
G02*
X142325000Y-91100000I0J150000D01*
G01*
G37*
G36*
G01*
X144200000Y-90150000D02*
X144200000Y-89850000D01*
G75*
G02*
X144350000Y-89700000I150000J0D01*
G01*
X145525000Y-89700000D01*
G75*
G02*
X145675000Y-89850000I0J-150000D01*
G01*
X145675000Y-90150000D01*
G75*
G02*
X145525000Y-90300000I-150000J0D01*
G01*
X144350000Y-90300000D01*
G75*
G02*
X144200000Y-90150000I0J150000D01*
G01*
G37*
G36*
G01*
X166970000Y-86185000D02*
X166970000Y-85815000D01*
G75*
G02*
X167105000Y-85680000I135000J0D01*
G01*
X167375000Y-85680000D01*
G75*
G02*
X167510000Y-85815000I0J-135000D01*
G01*
X167510000Y-86185000D01*
G75*
G02*
X167375000Y-86320000I-135000J0D01*
G01*
X167105000Y-86320000D01*
G75*
G02*
X166970000Y-86185000I0J135000D01*
G01*
G37*
G36*
G01*
X167990000Y-86185000D02*
X167990000Y-85815000D01*
G75*
G02*
X168125000Y-85680000I135000J0D01*
G01*
X168395000Y-85680000D01*
G75*
G02*
X168530000Y-85815000I0J-135000D01*
G01*
X168530000Y-86185000D01*
G75*
G02*
X168395000Y-86320000I-135000J0D01*
G01*
X168125000Y-86320000D01*
G75*
G02*
X167990000Y-86185000I0J135000D01*
G01*
G37*
G36*
G01*
X112420000Y-114260000D02*
X112080000Y-114260000D01*
G75*
G02*
X111940000Y-114120000I0J140000D01*
G01*
X111940000Y-113840000D01*
G75*
G02*
X112080000Y-113700000I140000J0D01*
G01*
X112420000Y-113700000D01*
G75*
G02*
X112560000Y-113840000I0J-140000D01*
G01*
X112560000Y-114120000D01*
G75*
G02*
X112420000Y-114260000I-140000J0D01*
G01*
G37*
G36*
G01*
X112420000Y-113300000D02*
X112080000Y-113300000D01*
G75*
G02*
X111940000Y-113160000I0J140000D01*
G01*
X111940000Y-112880000D01*
G75*
G02*
X112080000Y-112740000I140000J0D01*
G01*
X112420000Y-112740000D01*
G75*
G02*
X112560000Y-112880000I0J-140000D01*
G01*
X112560000Y-113160000D01*
G75*
G02*
X112420000Y-113300000I-140000J0D01*
G01*
G37*
G36*
G01*
X168530000Y-94565000D02*
X168530000Y-94935000D01*
G75*
G02*
X168395000Y-95070000I-135000J0D01*
G01*
X168125000Y-95070000D01*
G75*
G02*
X167990000Y-94935000I0J135000D01*
G01*
X167990000Y-94565000D01*
G75*
G02*
X168125000Y-94430000I135000J0D01*
G01*
X168395000Y-94430000D01*
G75*
G02*
X168530000Y-94565000I0J-135000D01*
G01*
G37*
G36*
G01*
X167510000Y-94565000D02*
X167510000Y-94935000D01*
G75*
G02*
X167375000Y-95070000I-135000J0D01*
G01*
X167105000Y-95070000D01*
G75*
G02*
X166970000Y-94935000I0J135000D01*
G01*
X166970000Y-94565000D01*
G75*
G02*
X167105000Y-94430000I135000J0D01*
G01*
X167375000Y-94430000D01*
G75*
G02*
X167510000Y-94565000I0J-135000D01*
G01*
G37*
G36*
G01*
X120381250Y-187500000D02*
X119618750Y-187500000D01*
G75*
G02*
X119400000Y-187281250I0J218750D01*
G01*
X119400000Y-186843750D01*
G75*
G02*
X119618750Y-186625000I218750J0D01*
G01*
X120381250Y-186625000D01*
G75*
G02*
X120600000Y-186843750I0J-218750D01*
G01*
X120600000Y-187281250D01*
G75*
G02*
X120381250Y-187500000I-218750J0D01*
G01*
G37*
G36*
G01*
X120381250Y-185375000D02*
X119618750Y-185375000D01*
G75*
G02*
X119400000Y-185156250I0J218750D01*
G01*
X119400000Y-184718750D01*
G75*
G02*
X119618750Y-184500000I218750J0D01*
G01*
X120381250Y-184500000D01*
G75*
G02*
X120600000Y-184718750I0J-218750D01*
G01*
X120600000Y-185156250D01*
G75*
G02*
X120381250Y-185375000I-218750J0D01*
G01*
G37*
D11*
X110250000Y-182212500D03*
D12*
X107750000Y-182212500D03*
X107750000Y-184212500D03*
X110250000Y-184212500D03*
D10*
X103000000Y-187072500D03*
X115000000Y-187072500D03*
G36*
G01*
X119375000Y-70725000D02*
X120625000Y-70725000D01*
G75*
G02*
X120875000Y-70975000I0J-250000D01*
G01*
X120875000Y-71600000D01*
G75*
G02*
X120625000Y-71850000I-250000J0D01*
G01*
X119375000Y-71850000D01*
G75*
G02*
X119125000Y-71600000I0J250000D01*
G01*
X119125000Y-70975000D01*
G75*
G02*
X119375000Y-70725000I250000J0D01*
G01*
G37*
G36*
G01*
X119375000Y-73650000D02*
X120625000Y-73650000D01*
G75*
G02*
X120875000Y-73900000I0J-250000D01*
G01*
X120875000Y-74525000D01*
G75*
G02*
X120625000Y-74775000I-250000J0D01*
G01*
X119375000Y-74775000D01*
G75*
G02*
X119125000Y-74525000I0J250000D01*
G01*
X119125000Y-73900000D01*
G75*
G02*
X119375000Y-73650000I250000J0D01*
G01*
G37*
G36*
G01*
X107800000Y-173200000D02*
X108100000Y-173200000D01*
G75*
G02*
X108250000Y-173350000I0J-150000D01*
G01*
X108250000Y-174375000D01*
G75*
G02*
X108100000Y-174525000I-150000J0D01*
G01*
X107800000Y-174525000D01*
G75*
G02*
X107650000Y-174375000I0J150000D01*
G01*
X107650000Y-173350000D01*
G75*
G02*
X107800000Y-173200000I150000J0D01*
G01*
G37*
G36*
G01*
X106850000Y-173200000D02*
X107150000Y-173200000D01*
G75*
G02*
X107300000Y-173350000I0J-150000D01*
G01*
X107300000Y-174375000D01*
G75*
G02*
X107150000Y-174525000I-150000J0D01*
G01*
X106850000Y-174525000D01*
G75*
G02*
X106700000Y-174375000I0J150000D01*
G01*
X106700000Y-173350000D01*
G75*
G02*
X106850000Y-173200000I150000J0D01*
G01*
G37*
G36*
G01*
X105900000Y-173200000D02*
X106200000Y-173200000D01*
G75*
G02*
X106350000Y-173350000I0J-150000D01*
G01*
X106350000Y-174375000D01*
G75*
G02*
X106200000Y-174525000I-150000J0D01*
G01*
X105900000Y-174525000D01*
G75*
G02*
X105750000Y-174375000I0J150000D01*
G01*
X105750000Y-173350000D01*
G75*
G02*
X105900000Y-173200000I150000J0D01*
G01*
G37*
G36*
G01*
X105900000Y-175475000D02*
X106200000Y-175475000D01*
G75*
G02*
X106350000Y-175625000I0J-150000D01*
G01*
X106350000Y-176650000D01*
G75*
G02*
X106200000Y-176800000I-150000J0D01*
G01*
X105900000Y-176800000D01*
G75*
G02*
X105750000Y-176650000I0J150000D01*
G01*
X105750000Y-175625000D01*
G75*
G02*
X105900000Y-175475000I150000J0D01*
G01*
G37*
G36*
G01*
X106850000Y-175475000D02*
X107150000Y-175475000D01*
G75*
G02*
X107300000Y-175625000I0J-150000D01*
G01*
X107300000Y-176650000D01*
G75*
G02*
X107150000Y-176800000I-150000J0D01*
G01*
X106850000Y-176800000D01*
G75*
G02*
X106700000Y-176650000I0J150000D01*
G01*
X106700000Y-175625000D01*
G75*
G02*
X106850000Y-175475000I150000J0D01*
G01*
G37*
G36*
G01*
X107800000Y-175475000D02*
X108100000Y-175475000D01*
G75*
G02*
X108250000Y-175625000I0J-150000D01*
G01*
X108250000Y-176650000D01*
G75*
G02*
X108100000Y-176800000I-150000J0D01*
G01*
X107800000Y-176800000D01*
G75*
G02*
X107650000Y-176650000I0J150000D01*
G01*
X107650000Y-175625000D01*
G75*
G02*
X107800000Y-175475000I150000J0D01*
G01*
G37*
G36*
G01*
X118225000Y-167343750D02*
X118225000Y-167856250D01*
G75*
G02*
X118006250Y-168075000I-218750J0D01*
G01*
X117568750Y-168075000D01*
G75*
G02*
X117350000Y-167856250I0J218750D01*
G01*
X117350000Y-167343750D01*
G75*
G02*
X117568750Y-167125000I218750J0D01*
G01*
X118006250Y-167125000D01*
G75*
G02*
X118225000Y-167343750I0J-218750D01*
G01*
G37*
G36*
G01*
X116650000Y-167343750D02*
X116650000Y-167856250D01*
G75*
G02*
X116431250Y-168075000I-218750J0D01*
G01*
X115993750Y-168075000D01*
G75*
G02*
X115775000Y-167856250I0J218750D01*
G01*
X115775000Y-167343750D01*
G75*
G02*
X115993750Y-167125000I218750J0D01*
G01*
X116431250Y-167125000D01*
G75*
G02*
X116650000Y-167343750I0J-218750D01*
G01*
G37*
G36*
G01*
X120740000Y-117420000D02*
X120740000Y-117080000D01*
G75*
G02*
X120880000Y-116940000I140000J0D01*
G01*
X121160000Y-116940000D01*
G75*
G02*
X121300000Y-117080000I0J-140000D01*
G01*
X121300000Y-117420000D01*
G75*
G02*
X121160000Y-117560000I-140000J0D01*
G01*
X120880000Y-117560000D01*
G75*
G02*
X120740000Y-117420000I0J140000D01*
G01*
G37*
G36*
G01*
X121700000Y-117420000D02*
X121700000Y-117080000D01*
G75*
G02*
X121840000Y-116940000I140000J0D01*
G01*
X122120000Y-116940000D01*
G75*
G02*
X122260000Y-117080000I0J-140000D01*
G01*
X122260000Y-117420000D01*
G75*
G02*
X122120000Y-117560000I-140000J0D01*
G01*
X121840000Y-117560000D01*
G75*
G02*
X121700000Y-117420000I0J140000D01*
G01*
G37*
G36*
G01*
X92685000Y-124280000D02*
X92315000Y-124280000D01*
G75*
G02*
X92180000Y-124145000I0J135000D01*
G01*
X92180000Y-123875000D01*
G75*
G02*
X92315000Y-123740000I135000J0D01*
G01*
X92685000Y-123740000D01*
G75*
G02*
X92820000Y-123875000I0J-135000D01*
G01*
X92820000Y-124145000D01*
G75*
G02*
X92685000Y-124280000I-135000J0D01*
G01*
G37*
G36*
G01*
X92685000Y-123260000D02*
X92315000Y-123260000D01*
G75*
G02*
X92180000Y-123125000I0J135000D01*
G01*
X92180000Y-122855000D01*
G75*
G02*
X92315000Y-122720000I135000J0D01*
G01*
X92685000Y-122720000D01*
G75*
G02*
X92820000Y-122855000I0J-135000D01*
G01*
X92820000Y-123125000D01*
G75*
G02*
X92685000Y-123260000I-135000J0D01*
G01*
G37*
G36*
G01*
X92185000Y-94280000D02*
X91815000Y-94280000D01*
G75*
G02*
X91680000Y-94145000I0J135000D01*
G01*
X91680000Y-93875000D01*
G75*
G02*
X91815000Y-93740000I135000J0D01*
G01*
X92185000Y-93740000D01*
G75*
G02*
X92320000Y-93875000I0J-135000D01*
G01*
X92320000Y-94145000D01*
G75*
G02*
X92185000Y-94280000I-135000J0D01*
G01*
G37*
G36*
G01*
X92185000Y-93260000D02*
X91815000Y-93260000D01*
G75*
G02*
X91680000Y-93125000I0J135000D01*
G01*
X91680000Y-92855000D01*
G75*
G02*
X91815000Y-92720000I135000J0D01*
G01*
X92185000Y-92720000D01*
G75*
G02*
X92320000Y-92855000I0J-135000D01*
G01*
X92320000Y-93125000D01*
G75*
G02*
X92185000Y-93260000I-135000J0D01*
G01*
G37*
G36*
G01*
X161170000Y-122760000D02*
X160830000Y-122760000D01*
G75*
G02*
X160690000Y-122620000I0J140000D01*
G01*
X160690000Y-122340000D01*
G75*
G02*
X160830000Y-122200000I140000J0D01*
G01*
X161170000Y-122200000D01*
G75*
G02*
X161310000Y-122340000I0J-140000D01*
G01*
X161310000Y-122620000D01*
G75*
G02*
X161170000Y-122760000I-140000J0D01*
G01*
G37*
G36*
G01*
X161170000Y-121800000D02*
X160830000Y-121800000D01*
G75*
G02*
X160690000Y-121660000I0J140000D01*
G01*
X160690000Y-121380000D01*
G75*
G02*
X160830000Y-121240000I140000J0D01*
G01*
X161170000Y-121240000D01*
G75*
G02*
X161310000Y-121380000I0J-140000D01*
G01*
X161310000Y-121660000D01*
G75*
G02*
X161170000Y-121800000I-140000J0D01*
G01*
G37*
D38*
X42330000Y-173500000D03*
X43170000Y-173500000D03*
X37500000Y-173500000D03*
X36660000Y-173500000D03*
X45170000Y-173500000D03*
X44330000Y-173500000D03*
D22*
X61707500Y-131207500D03*
X66707500Y-131207500D03*
X56707500Y-131207500D03*
X61707500Y-123707500D03*
X66707500Y-123707500D03*
X56707500Y-123707500D03*
D23*
X81707500Y-131207500D03*
D22*
X81707500Y-123707500D03*
G36*
G01*
X110720000Y-132435000D02*
X110720000Y-132065000D01*
G75*
G02*
X110855000Y-131930000I135000J0D01*
G01*
X111125000Y-131930000D01*
G75*
G02*
X111260000Y-132065000I0J-135000D01*
G01*
X111260000Y-132435000D01*
G75*
G02*
X111125000Y-132570000I-135000J0D01*
G01*
X110855000Y-132570000D01*
G75*
G02*
X110720000Y-132435000I0J135000D01*
G01*
G37*
G36*
G01*
X111740000Y-132435000D02*
X111740000Y-132065000D01*
G75*
G02*
X111875000Y-131930000I135000J0D01*
G01*
X112145000Y-131930000D01*
G75*
G02*
X112280000Y-132065000I0J-135000D01*
G01*
X112280000Y-132435000D01*
G75*
G02*
X112145000Y-132570000I-135000J0D01*
G01*
X111875000Y-132570000D01*
G75*
G02*
X111740000Y-132435000I0J135000D01*
G01*
G37*
D38*
X34580000Y-173500000D03*
X35420000Y-173500000D03*
G36*
G01*
X97830000Y-184740000D02*
X98170000Y-184740000D01*
G75*
G02*
X98310000Y-184880000I0J-140000D01*
G01*
X98310000Y-185160000D01*
G75*
G02*
X98170000Y-185300000I-140000J0D01*
G01*
X97830000Y-185300000D01*
G75*
G02*
X97690000Y-185160000I0J140000D01*
G01*
X97690000Y-184880000D01*
G75*
G02*
X97830000Y-184740000I140000J0D01*
G01*
G37*
G36*
G01*
X97830000Y-185700000D02*
X98170000Y-185700000D01*
G75*
G02*
X98310000Y-185840000I0J-140000D01*
G01*
X98310000Y-186120000D01*
G75*
G02*
X98170000Y-186260000I-140000J0D01*
G01*
X97830000Y-186260000D01*
G75*
G02*
X97690000Y-186120000I0J140000D01*
G01*
X97690000Y-185840000D01*
G75*
G02*
X97830000Y-185700000I140000J0D01*
G01*
G37*
D11*
X90250000Y-74097349D03*
D12*
X90250000Y-77597349D03*
G36*
G01*
X110700000Y-60490000D02*
X111800000Y-60490000D01*
G75*
G02*
X112050000Y-60740000I0J-250000D01*
G01*
X112050000Y-63740000D01*
G75*
G02*
X111800000Y-63990000I-250000J0D01*
G01*
X110700000Y-63990000D01*
G75*
G02*
X110450000Y-63740000I0J250000D01*
G01*
X110450000Y-60740000D01*
G75*
G02*
X110700000Y-60490000I250000J0D01*
G01*
G37*
G36*
G01*
X110700000Y-66090000D02*
X111800000Y-66090000D01*
G75*
G02*
X112050000Y-66340000I0J-250000D01*
G01*
X112050000Y-69340000D01*
G75*
G02*
X111800000Y-69590000I-250000J0D01*
G01*
X110700000Y-69590000D01*
G75*
G02*
X110450000Y-69340000I0J250000D01*
G01*
X110450000Y-66340000D01*
G75*
G02*
X110700000Y-66090000I250000J0D01*
G01*
G37*
G36*
G01*
X140780000Y-78815000D02*
X140780000Y-79185000D01*
G75*
G02*
X140645000Y-79320000I-135000J0D01*
G01*
X140375000Y-79320000D01*
G75*
G02*
X140240000Y-79185000I0J135000D01*
G01*
X140240000Y-78815000D01*
G75*
G02*
X140375000Y-78680000I135000J0D01*
G01*
X140645000Y-78680000D01*
G75*
G02*
X140780000Y-78815000I0J-135000D01*
G01*
G37*
G36*
G01*
X139760000Y-78815000D02*
X139760000Y-79185000D01*
G75*
G02*
X139625000Y-79320000I-135000J0D01*
G01*
X139355000Y-79320000D01*
G75*
G02*
X139220000Y-79185000I0J135000D01*
G01*
X139220000Y-78815000D01*
G75*
G02*
X139355000Y-78680000I135000J0D01*
G01*
X139625000Y-78680000D01*
G75*
G02*
X139760000Y-78815000I0J-135000D01*
G01*
G37*
D17*
X87000000Y-131050000D03*
X87000000Y-128950000D03*
D21*
X157000000Y-157000000D03*
G36*
G01*
X135240000Y-173670000D02*
X135240000Y-173330000D01*
G75*
G02*
X135380000Y-173190000I140000J0D01*
G01*
X135660000Y-173190000D01*
G75*
G02*
X135800000Y-173330000I0J-140000D01*
G01*
X135800000Y-173670000D01*
G75*
G02*
X135660000Y-173810000I-140000J0D01*
G01*
X135380000Y-173810000D01*
G75*
G02*
X135240000Y-173670000I0J140000D01*
G01*
G37*
G36*
G01*
X136200000Y-173670000D02*
X136200000Y-173330000D01*
G75*
G02*
X136340000Y-173190000I140000J0D01*
G01*
X136620000Y-173190000D01*
G75*
G02*
X136760000Y-173330000I0J-140000D01*
G01*
X136760000Y-173670000D01*
G75*
G02*
X136620000Y-173810000I-140000J0D01*
G01*
X136340000Y-173810000D01*
G75*
G02*
X136200000Y-173670000I0J140000D01*
G01*
G37*
G36*
G01*
X105220000Y-132435000D02*
X105220000Y-132065000D01*
G75*
G02*
X105355000Y-131930000I135000J0D01*
G01*
X105625000Y-131930000D01*
G75*
G02*
X105760000Y-132065000I0J-135000D01*
G01*
X105760000Y-132435000D01*
G75*
G02*
X105625000Y-132570000I-135000J0D01*
G01*
X105355000Y-132570000D01*
G75*
G02*
X105220000Y-132435000I0J135000D01*
G01*
G37*
G36*
G01*
X106240000Y-132435000D02*
X106240000Y-132065000D01*
G75*
G02*
X106375000Y-131930000I135000J0D01*
G01*
X106645000Y-131930000D01*
G75*
G02*
X106780000Y-132065000I0J-135000D01*
G01*
X106780000Y-132435000D01*
G75*
G02*
X106645000Y-132570000I-135000J0D01*
G01*
X106375000Y-132570000D01*
G75*
G02*
X106240000Y-132435000I0J135000D01*
G01*
G37*
G36*
G01*
X110550000Y-172075000D02*
X110550000Y-171125000D01*
G75*
G02*
X110800000Y-170875000I250000J0D01*
G01*
X111300000Y-170875000D01*
G75*
G02*
X111550000Y-171125000I0J-250000D01*
G01*
X111550000Y-172075000D01*
G75*
G02*
X111300000Y-172325000I-250000J0D01*
G01*
X110800000Y-172325000D01*
G75*
G02*
X110550000Y-172075000I0J250000D01*
G01*
G37*
G36*
G01*
X112450000Y-172075000D02*
X112450000Y-171125000D01*
G75*
G02*
X112700000Y-170875000I250000J0D01*
G01*
X113200000Y-170875000D01*
G75*
G02*
X113450000Y-171125000I0J-250000D01*
G01*
X113450000Y-172075000D01*
G75*
G02*
X113200000Y-172325000I-250000J0D01*
G01*
X112700000Y-172325000D01*
G75*
G02*
X112450000Y-172075000I0J250000D01*
G01*
G37*
D39*
X45715000Y-186350000D03*
X34285000Y-186350000D03*
D40*
X44445000Y-177460000D03*
D41*
X43175000Y-180000000D03*
X41905000Y-177460000D03*
X40635000Y-180000000D03*
X39365000Y-177460000D03*
X38095000Y-180000000D03*
X36825000Y-177460000D03*
X35555000Y-180000000D03*
D42*
X47750000Y-183048000D03*
X32250000Y-183048000D03*
D17*
X87000000Y-101050000D03*
X87000000Y-98950000D03*
M02*
