%TF.GenerationSoftware,KiCad,Pcbnew,6.0.5+dfsg-1~bpo11+1*%
%TF.CreationDate,2023-01-20T09:08:56+00:00*%
%TF.ProjectId,nascontrol,6e617363-6f6e-4747-926f-6c2e6b696361,0.1*%
%TF.SameCoordinates,Original*%
%TF.FileFunction,Plated,1,4,PTH,Drill*%
%TF.FilePolarity,Positive*%
%FSLAX46Y46*%
G04 Gerber Fmt 4.6, Leading zero omitted, Abs format (unit mm)*
G04 Created by KiCad (PCBNEW 6.0.5+dfsg-1~bpo11+1) date 2023-01-20 09:08:56*
%MOMM*%
%LPD*%
G01*
G04 APERTURE LIST*
%TA.AperFunction,ViaDrill*%
%ADD10C,0.400000*%
%TD*%
%TA.AperFunction,ComponentDrill*%
%ADD11C,0.762000*%
%TD*%
%TA.AperFunction,ComponentDrill*%
%ADD12C,0.800000*%
%TD*%
%TA.AperFunction,ComponentDrill*%
%ADD13C,0.890000*%
%TD*%
%TA.AperFunction,ComponentDrill*%
%ADD14C,0.950000*%
%TD*%
%TA.AperFunction,ComponentDrill*%
%ADD15C,0.990000*%
%TD*%
%TA.AperFunction,ComponentDrill*%
%ADD16C,1.000000*%
%TD*%
%TA.AperFunction,ComponentDrill*%
%ADD17C,1.300000*%
%TD*%
%TA.AperFunction,ComponentDrill*%
%ADD18C,1.500000*%
%TD*%
%TA.AperFunction,ComponentDrill*%
%ADD19C,1.550000*%
%TD*%
%TA.AperFunction,ComponentDrill*%
%ADD20C,1.570000*%
%TD*%
%TA.AperFunction,ComponentDrill*%
%ADD21C,2.100000*%
%TD*%
%TA.AperFunction,ComponentDrill*%
%ADD22C,2.300000*%
%TD*%
%TA.AperFunction,ComponentDrill*%
%ADD23C,3.200000*%
%TD*%
G04 APERTURE END LIST*
D10*
X35500000Y-174306000D03*
X36750000Y-172750000D03*
X39000000Y-154000000D03*
X40000000Y-167750000D03*
X40000000Y-171500000D03*
X41750000Y-162250000D03*
X42000000Y-153348500D03*
X43250000Y-154651500D03*
X43250000Y-171950931D03*
X44250000Y-172000000D03*
X67628768Y-170128768D03*
X68000000Y-172250000D03*
X68000000Y-178000000D03*
X68371232Y-170871232D03*
X93500000Y-126500000D03*
X100500000Y-117000000D03*
X101500000Y-124000000D03*
X102500000Y-124000000D03*
X104500000Y-122350000D03*
X106000000Y-125000000D03*
X107000000Y-123750000D03*
X107000000Y-171500000D03*
X107000000Y-178000000D03*
X107750000Y-161250000D03*
X109000000Y-124000000D03*
X109000000Y-161250000D03*
X109250000Y-118500000D03*
X111250000Y-113500000D03*
X112250000Y-120750000D03*
X112250000Y-121723500D03*
X112250000Y-122750000D03*
X112975000Y-118500000D03*
X114025000Y-118500000D03*
X114440500Y-121870000D03*
X114500000Y-132000000D03*
X115348500Y-118186955D03*
X116000000Y-114500000D03*
X116000000Y-117500000D03*
X116513931Y-113729103D03*
X116651500Y-118270897D03*
X116750000Y-122250000D03*
X117250000Y-117250000D03*
X117750000Y-122250000D03*
X117954511Y-119600000D03*
X118000000Y-127500000D03*
X118000000Y-129750000D03*
X119000000Y-116000000D03*
X121000000Y-120525500D03*
X121250000Y-121901500D03*
X121250000Y-122828003D03*
X121250000Y-123754506D03*
X125250000Y-124750000D03*
X125500000Y-89750000D03*
X127000000Y-83750000D03*
X127870814Y-80547626D03*
X134500000Y-88000000D03*
X135000000Y-84000000D03*
X135000000Y-94000000D03*
X135000000Y-103000000D03*
X136000000Y-92250000D03*
X136250000Y-85750000D03*
X137693326Y-167479597D03*
X138900000Y-170500000D03*
X139000000Y-84000000D03*
X139000000Y-94000000D03*
X139250000Y-104000000D03*
X140258478Y-170833879D03*
X153750000Y-128000000D03*
X153750000Y-133250000D03*
X155750000Y-134250000D03*
X157000000Y-129250000D03*
X161000000Y-123500000D03*
X165750000Y-133250000D03*
X165750000Y-134250000D03*
X167250000Y-128000000D03*
X167250000Y-129250000D03*
X167250000Y-132750000D03*
D11*
%TO.C,J102*%
X35555000Y-180000000D03*
X36825000Y-177460000D03*
X38095000Y-180000000D03*
X39365000Y-177460000D03*
X40635000Y-180000000D03*
X41905000Y-177460000D03*
X43175000Y-180000000D03*
D12*
%TO.C,C204*%
X90250000Y-74097349D03*
X90250000Y-77597349D03*
%TO.C,C203*%
X100750000Y-74097349D03*
X100750000Y-77597349D03*
%TO.C,C202*%
X111250000Y-74097349D03*
X111250000Y-77597349D03*
D13*
%TO.C,J102*%
X44445000Y-177460000D03*
D14*
%TO.C,J101*%
X68750000Y-182212500D03*
X68750000Y-184212500D03*
X71250000Y-182212500D03*
X71250000Y-184212500D03*
%TO.C,J401*%
X107750000Y-182212500D03*
X107750000Y-184212500D03*
X110250000Y-182212500D03*
X110250000Y-184212500D03*
D15*
%TO.C,SW201*%
X89025000Y-185037500D03*
X93525000Y-185037500D03*
D16*
%TO.C,U501*%
X120000000Y-56500000D03*
X120000000Y-59040000D03*
X120000000Y-61580000D03*
%TO.C,J402*%
X134450000Y-182669669D03*
X135835000Y-185509669D03*
X137220000Y-182669669D03*
X138605000Y-185509669D03*
X139990000Y-182669669D03*
X141375000Y-185509669D03*
X142760000Y-182669669D03*
X144145000Y-185509669D03*
X145530000Y-182669669D03*
D17*
%TO.C,SW201*%
X87765000Y-182547500D03*
X94775000Y-182547500D03*
D18*
%TO.C,K501*%
X56707500Y-93707500D03*
X56707500Y-101207500D03*
%TO.C,K502*%
X56707500Y-123707500D03*
X56707500Y-131207500D03*
%TO.C,PS501*%
X60842500Y-53500000D03*
X60842500Y-64250000D03*
%TO.C,K501*%
X61707500Y-93707500D03*
X61707500Y-101207500D03*
%TO.C,K502*%
X61707500Y-123707500D03*
X61707500Y-131207500D03*
%TO.C,K501*%
X66707500Y-93707500D03*
X66707500Y-101207500D03*
%TO.C,K502*%
X66707500Y-123707500D03*
X66707500Y-131207500D03*
%TO.C,K501*%
X81707500Y-93707500D03*
X81707500Y-101207500D03*
%TO.C,K502*%
X81707500Y-123707500D03*
X81707500Y-131207500D03*
%TO.C,PS501*%
X99342500Y-56250000D03*
X99342500Y-64250000D03*
D19*
%TO.C,D102*%
X150000000Y-60000000D03*
%TO.C,D101*%
X150000000Y-70000000D03*
%TO.C,SW104*%
X150000000Y-80000000D03*
%TO.C,SW103*%
X150000000Y-90000000D03*
%TO.C,SW102*%
X150000000Y-100000000D03*
%TO.C,SW101*%
X150000000Y-110000000D03*
%TO.C,D102*%
X154800000Y-60000000D03*
%TO.C,D101*%
X154800000Y-70000000D03*
%TO.C,SW104*%
X154800000Y-80000000D03*
%TO.C,SW103*%
X154800000Y-90000000D03*
%TO.C,SW102*%
X154800000Y-100000000D03*
%TO.C,SW101*%
X154800000Y-110000000D03*
%TO.C,SW104*%
X159600000Y-80000000D03*
%TO.C,SW103*%
X159600000Y-90000000D03*
%TO.C,SW102*%
X159600000Y-100000000D03*
%TO.C,SW101*%
X159600000Y-110000000D03*
%TO.C,SW104*%
X164400000Y-80000000D03*
%TO.C,SW103*%
X164400000Y-90000000D03*
%TO.C,SW102*%
X164400000Y-100000000D03*
%TO.C,SW101*%
X164400000Y-110000000D03*
D20*
%TO.C,J102*%
X32250000Y-183048000D03*
X47750000Y-183048000D03*
D21*
%TO.C,J501*%
X44100000Y-51500000D03*
X44100000Y-57500000D03*
X44100000Y-63500000D03*
%TO.C,F501*%
X44100000Y-69500000D03*
X44100000Y-75500000D03*
%TO.C,J502*%
X44100000Y-81500000D03*
X44100000Y-87500000D03*
X44100000Y-93500000D03*
%TO.C,F502*%
X44100000Y-99500000D03*
X44100000Y-105500000D03*
%TO.C,J503*%
X44100000Y-111500000D03*
X44100000Y-117500000D03*
X44100000Y-123500000D03*
%TO.C,F503*%
X44100000Y-129500000D03*
X44100000Y-135500000D03*
D22*
%TO.C,J101*%
X64000000Y-187072500D03*
X76000000Y-187072500D03*
%TO.C,J401*%
X103000000Y-187072500D03*
X115000000Y-187072500D03*
D23*
%TO.C,H501*%
X24000000Y-44000000D03*
%TO.C,H504*%
X24000000Y-143000000D03*
%TO.C,H101*%
X30000000Y-30000000D03*
%TO.C,H104*%
X30000000Y-157000000D03*
%TO.C,H502*%
X50000000Y-44000000D03*
%TO.C,H503*%
X50000000Y-143000000D03*
%TO.C,J402*%
X127490000Y-184089669D03*
X152490000Y-184089669D03*
%TO.C,H102*%
X157000000Y-30000000D03*
%TO.C,H103*%
X157000000Y-157000000D03*
M02*
