M48
; DRILL file {KiCad 6.0.5+dfsg-1~bpo11+1} date Fri Jan 20 09:08:56 2023
; FORMAT={-:-/ absolute / inch / decimal}
; #@! TF.CreationDate,2023-01-20T09:08:56+00:00
; #@! TF.GenerationSoftware,Kicad,Pcbnew,6.0.5+dfsg-1~bpo11+1
; #@! TF.FileFunction,Plated,1,4,PTH
FMAT,2
INCH
; #@! TA.AperFunction,Plated,PTH,ViaDrill
T1C0.0157
; #@! TA.AperFunction,Plated,PTH,ComponentDrill
T2C0.0300
; #@! TA.AperFunction,Plated,PTH,ComponentDrill
T3C0.0315
; #@! TA.AperFunction,Plated,PTH,ComponentDrill
T4C0.0350
; #@! TA.AperFunction,Plated,PTH,ComponentDrill
T5C0.0374
; #@! TA.AperFunction,Plated,PTH,ComponentDrill
T6C0.0390
; #@! TA.AperFunction,Plated,PTH,ComponentDrill
T7C0.0394
; #@! TA.AperFunction,Plated,PTH,ComponentDrill
T8C0.0512
; #@! TA.AperFunction,Plated,PTH,ComponentDrill
T9C0.0591
; #@! TA.AperFunction,Plated,PTH,ComponentDrill
T10C0.0610
; #@! TA.AperFunction,Plated,PTH,ComponentDrill
T11C0.0618
; #@! TA.AperFunction,Plated,PTH,ComponentDrill
T12C0.0827
; #@! TA.AperFunction,Plated,PTH,ComponentDrill
T13C0.0906
; #@! TA.AperFunction,Plated,PTH,ComponentDrill
T14C0.1260
%
G90
G05
T1
X1.3976Y-6.8624
X1.4469Y-6.8012
X1.5354Y-6.063
X1.5748Y-6.6043
X1.5748Y-6.752
X1.6437Y-6.3878
X1.6535Y-6.0373
X1.7028Y-6.0886
X1.7028Y-6.7697
X1.7421Y-6.7717
X2.6625Y-6.698
X2.6772Y-6.7815
X2.6772Y-7.0079
X2.6918Y-6.7272
X3.6811Y-4.9803
X3.9567Y-4.6063
X3.9961Y-4.8819
X4.0354Y-4.8819
X4.1142Y-4.8169
X4.1732Y-4.9213
X4.2126Y-4.872
X4.2126Y-6.752
X4.2126Y-7.0079
X4.2421Y-6.3484
X4.2913Y-4.8819
X4.2913Y-6.3484
X4.3012Y-4.6654
X4.3799Y-4.4685
X4.4193Y-4.7539
X4.4193Y-4.7923
X4.4193Y-4.8327
X4.4478Y-4.6654
X4.4892Y-4.6654
X4.5055Y-4.798
X4.5079Y-5.1969
X4.5413Y-4.653
X4.5669Y-4.5079
X4.5669Y-4.626
X4.5872Y-4.4775
X4.5926Y-4.6563
X4.5965Y-4.813
X4.6161Y-4.6161
X4.6358Y-4.813
X4.6439Y-4.7087
X4.6457Y-5.0197
X4.6457Y-5.1083
X4.685Y-4.5669
X4.7638Y-4.7451
X4.7736Y-4.7993
X4.7736Y-4.8357
X4.7736Y-4.8722
X4.9311Y-4.9114
X4.9409Y-3.5335
X5.0Y-3.2972
X5.0343Y-3.1712
X5.2953Y-3.4646
X5.315Y-3.3071
X5.315Y-3.7008
X5.315Y-4.0551
X5.3543Y-3.6319
X5.3642Y-3.376
X5.421Y-6.5937
X5.4685Y-6.7126
X5.4724Y-3.3071
X5.4724Y-3.7008
X5.4823Y-4.0945
X5.522Y-6.7257
X6.0531Y-5.0394
X6.0531Y-5.2461
X6.1319Y-5.2854
X6.1811Y-5.0886
X6.3386Y-4.8622
X6.5256Y-5.2461
X6.5256Y-5.2854
X6.5846Y-5.0394
X6.5846Y-5.0886
X6.5846Y-5.2264
T2
X1.3998Y-7.0866
X1.4498Y-6.9866
X1.4998Y-7.0866
X1.5498Y-6.9866
X1.5998Y-7.0866
X1.6498Y-6.9866
X1.6998Y-7.0866
T3
X3.5531Y-2.9172
X3.5531Y-3.055
X3.9665Y-2.9172
X3.9665Y-3.055
X4.3799Y-2.9172
X4.3799Y-3.055
T4
X1.7498Y-6.9866
T5
X2.7067Y-7.1737
X2.7067Y-7.2525
X2.8051Y-7.1737
X2.8051Y-7.2525
X4.2421Y-7.1737
X4.2421Y-7.2525
X4.3406Y-7.1737
X4.3406Y-7.2525
T6
X3.5049Y-7.2849
X3.6821Y-7.2849
T7
X4.7244Y-2.2244
X4.7244Y-2.3244
X4.7244Y-2.4244
X5.2933Y-7.1917
X5.3478Y-7.3035
X5.4024Y-7.1917
X5.4569Y-7.3035
X5.5114Y-7.1917
X5.5659Y-7.3035
X5.6205Y-7.1917
X5.675Y-7.3035
X5.7295Y-7.1917
T8
X3.4553Y-7.1869
X3.7313Y-7.1869
T9
X2.2326Y-3.6893
X2.2326Y-3.9845
X2.2326Y-4.8704
X2.2326Y-5.1656
X2.3954Y-2.1063
X2.3954Y-2.5295
X2.4294Y-3.6893
X2.4294Y-3.9845
X2.4294Y-4.8704
X2.4294Y-5.1656
X2.6263Y-3.6893
X2.6263Y-3.9845
X2.6263Y-4.8704
X2.6263Y-5.1656
X3.2168Y-3.6893
X3.2168Y-3.9845
X3.2168Y-4.8704
X3.2168Y-5.1656
X3.9111Y-2.2146
X3.9111Y-2.5295
T10
X5.9055Y-2.3622
X5.9055Y-2.7559
X5.9055Y-3.1496
X5.9055Y-3.5433
X5.9055Y-3.937
X5.9055Y-4.3307
X6.0945Y-2.3622
X6.0945Y-2.7559
X6.0945Y-3.1496
X6.0945Y-3.5433
X6.0945Y-3.937
X6.0945Y-4.3307
X6.2835Y-3.1496
X6.2835Y-3.5433
X6.2835Y-3.937
X6.2835Y-4.3307
X6.4724Y-3.1496
X6.4724Y-3.5433
X6.4724Y-3.937
X6.4724Y-4.3307
T11
X1.2697Y-7.2066
X1.8799Y-7.2066
T12
X1.7362Y-2.0276
X1.7362Y-2.2638
X1.7362Y-2.5
X1.7362Y-2.7362
X1.7362Y-2.9724
X1.7362Y-3.2087
X1.7362Y-3.4449
X1.7362Y-3.6811
X1.7362Y-3.9173
X1.7362Y-4.1535
X1.7362Y-4.3898
X1.7362Y-4.626
X1.7362Y-4.8622
X1.7362Y-5.0984
X1.7362Y-5.3346
T13
X2.5197Y-7.3651
X2.9921Y-7.3651
X4.0551Y-7.3651
X4.5276Y-7.3651
T14
X0.9449Y-1.7323
X0.9449Y-5.6299
X1.1811Y-1.1811
X1.1811Y-6.1811
X1.9685Y-1.7323
X1.9685Y-5.6299
X5.0193Y-7.2476
X6.0035Y-7.2476
X6.1811Y-1.1811
X6.1811Y-6.1811
T0
M30
