%TF.GenerationSoftware,KiCad,Pcbnew,6.0.5+dfsg-1~bpo11+1*%
%TF.CreationDate,2023-01-20T09:08:56+00:00*%
%TF.ProjectId,nascontrol,6e617363-6f6e-4747-926f-6c2e6b696361,0.1*%
%TF.SameCoordinates,Original*%
%TF.FileFunction,Soldermask,Top*%
%TF.FilePolarity,Negative*%
%FSLAX46Y46*%
G04 Gerber Fmt 4.6, Leading zero omitted, Abs format (unit mm)*
G04 Created by KiCad (PCBNEW 6.0.5+dfsg-1~bpo11+1) date 2023-01-20 09:08:56*
%MOMM*%
%LPD*%
G01*
G04 APERTURE LIST*
G04 Aperture macros list*
%AMRoundRect*
0 Rectangle with rounded corners*
0 $1 Rounding radius*
0 $2 $3 $4 $5 $6 $7 $8 $9 X,Y pos of 4 corners*
0 Add a 4 corners polygon primitive as box body*
4,1,4,$2,$3,$4,$5,$6,$7,$8,$9,$2,$3,0*
0 Add four circle primitives for the rounded corners*
1,1,$1+$1,$2,$3*
1,1,$1+$1,$4,$5*
1,1,$1+$1,$6,$7*
1,1,$1+$1,$8,$9*
0 Add four rect primitives between the rounded corners*
20,1,$1+$1,$2,$3,$4,$5,0*
20,1,$1+$1,$4,$5,$6,$7,0*
20,1,$1+$1,$6,$7,$8,$9,0*
20,1,$1+$1,$8,$9,$2,$3,0*%
G04 Aperture macros list end*
%ADD10RoundRect,0.135000X0.135000X0.185000X-0.135000X0.185000X-0.135000X-0.185000X0.135000X-0.185000X0*%
%ADD11RoundRect,0.150000X-0.587500X-0.150000X0.587500X-0.150000X0.587500X0.150000X-0.587500X0.150000X0*%
%ADD12C,4.000000*%
%ADD13R,1.600000X1.600000*%
%ADD14C,1.600000*%
%ADD15C,3.500000*%
%ADD16RoundRect,0.249999X-1.300001X1.300001X-1.300001X-1.300001X1.300001X-1.300001X1.300001X1.300001X0*%
%ADD17C,3.100000*%
%ADD18RoundRect,0.135000X-0.185000X0.135000X-0.185000X-0.135000X0.185000X-0.135000X0.185000X0.135000X0*%
%ADD19R,1.300000X1.700000*%
%ADD20RoundRect,0.249999X1.025001X1.025001X-1.025001X1.025001X-1.025001X-1.025001X1.025001X-1.025001X0*%
%ADD21C,2.550000*%
%ADD22R,0.450000X0.600000*%
%ADD23C,2.000000*%
%ADD24R,0.250000X0.360000*%
%ADD25R,1.500000X1.000000*%
%ADD26RoundRect,0.140000X0.170000X-0.140000X0.170000X0.140000X-0.170000X0.140000X-0.170000X-0.140000X0*%
%ADD27RoundRect,0.250000X0.550000X-1.250000X0.550000X1.250000X-0.550000X1.250000X-0.550000X-1.250000X0*%
%ADD28RoundRect,0.140000X0.140000X0.170000X-0.140000X0.170000X-0.140000X-0.170000X0.140000X-0.170000X0*%
%ADD29RoundRect,0.135000X-0.135000X-0.185000X0.135000X-0.185000X0.135000X0.185000X-0.135000X0.185000X0*%
%ADD30RoundRect,0.140000X-0.140000X-0.170000X0.140000X-0.170000X0.140000X0.170000X-0.140000X0.170000X0*%
%ADD31C,6.400000*%
%ADD32C,3.000000*%
%ADD33R,3.000000X3.000000*%
%ADD34C,2.374900*%
%ADD35C,0.990600*%
%ADD36C,0.787400*%
%ADD37C,2.100000*%
%ADD38C,1.750000*%
%ADD39RoundRect,0.250000X0.475000X-0.250000X0.475000X0.250000X-0.475000X0.250000X-0.475000X-0.250000X0*%
%ADD40R,2.000000X2.400000*%
%ADD41RoundRect,0.150000X0.150000X-0.825000X0.150000X0.825000X-0.150000X0.825000X-0.150000X-0.825000X0*%
%ADD42RoundRect,0.150000X-0.150000X0.825000X-0.150000X-0.825000X0.150000X-0.825000X0.150000X0.825000X0*%
%ADD43R,1.100000X0.850000*%
%ADD44R,1.100000X0.750000*%
%ADD45R,1.000000X1.200000*%
%ADD46R,1.350000X1.900000*%
%ADD47R,1.350000X1.550000*%
%ADD48R,1.800000X1.170000*%
%ADD49RoundRect,0.100000X0.100000X-0.637500X0.100000X0.637500X-0.100000X0.637500X-0.100000X-0.637500X0*%
%ADD50RoundRect,0.135000X0.185000X-0.135000X0.185000X0.135000X-0.185000X0.135000X-0.185000X-0.135000X0*%
%ADD51RoundRect,0.150000X-0.150000X0.512500X-0.150000X-0.512500X0.150000X-0.512500X0.150000X0.512500X0*%
%ADD52RoundRect,0.150000X0.587500X0.150000X-0.587500X0.150000X-0.587500X-0.150000X0.587500X-0.150000X0*%
%ADD53RoundRect,0.150000X0.150000X-0.512500X0.150000X0.512500X-0.150000X0.512500X-0.150000X-0.512500X0*%
%ADD54RoundRect,0.150000X-0.150000X0.587500X-0.150000X-0.587500X0.150000X-0.587500X0.150000X0.587500X0*%
%ADD55RoundRect,0.250000X-0.312500X-0.625000X0.312500X-0.625000X0.312500X0.625000X-0.312500X0.625000X0*%
%ADD56RoundRect,0.140000X-0.170000X0.140000X-0.170000X-0.140000X0.170000X-0.140000X0.170000X0.140000X0*%
%ADD57RoundRect,0.218750X0.381250X-0.218750X0.381250X0.218750X-0.381250X0.218750X-0.381250X-0.218750X0*%
%ADD58RoundRect,0.075000X0.075000X-0.662500X0.075000X0.662500X-0.075000X0.662500X-0.075000X-0.662500X0*%
%ADD59RoundRect,0.075000X0.662500X-0.075000X0.662500X0.075000X-0.662500X0.075000X-0.662500X-0.075000X0*%
%ADD60R,1.000000X1.500000*%
%ADD61R,1.000000X1.800000*%
%ADD62RoundRect,0.250000X-0.625000X0.312500X-0.625000X-0.312500X0.625000X-0.312500X0.625000X0.312500X0*%
%ADD63RoundRect,0.218750X0.218750X0.256250X-0.218750X0.256250X-0.218750X-0.256250X0.218750X-0.256250X0*%
%ADD64R,0.360000X0.250000*%
%ADD65RoundRect,0.250000X-0.550000X1.500000X-0.550000X-1.500000X0.550000X-1.500000X0.550000X1.500000X0*%
%ADD66RoundRect,0.250000X-0.250000X-0.475000X0.250000X-0.475000X0.250000X0.475000X-0.250000X0.475000X0*%
%ADD67C,3.250000*%
%ADD68R,1.500000X1.500000*%
%ADD69C,1.524000*%
%ADD70C,2.300000*%
G04 APERTURE END LIST*
D10*
%TO.C,R303*%
X140510000Y-89000000D03*
X139490000Y-89000000D03*
%TD*%
D11*
%TO.C,Q301*%
X143062500Y-109050000D03*
X143062500Y-110950000D03*
X144937500Y-110000000D03*
%TD*%
D12*
%TO.C,J402*%
X127490000Y-184089669D03*
X152490000Y-184089669D03*
D13*
X134450000Y-182669669D03*
D14*
X137220000Y-182669669D03*
X139990000Y-182669669D03*
X142760000Y-182669669D03*
X145530000Y-182669669D03*
X135835000Y-185509669D03*
X138605000Y-185509669D03*
X141375000Y-185509669D03*
X144145000Y-185509669D03*
%TD*%
D15*
%TO.C,J502*%
X26100000Y-93500000D03*
X26100000Y-87500000D03*
X26100000Y-81500000D03*
D16*
X44100000Y-81500000D03*
D17*
X44100000Y-87500000D03*
X44100000Y-93500000D03*
%TD*%
D18*
%TO.C,R503*%
X92500000Y-125490000D03*
X92500000Y-126510000D03*
%TD*%
D19*
%TO.C,D301*%
X164500000Y-115250000D03*
X161000000Y-115250000D03*
%TD*%
D10*
%TO.C,R301*%
X140510000Y-109000000D03*
X139490000Y-109000000D03*
%TD*%
D11*
%TO.C,Q305*%
X143062500Y-69050000D03*
X143062500Y-70950000D03*
X144937500Y-70000000D03*
%TD*%
D20*
%TO.C,SW102*%
X164400000Y-100000000D03*
D21*
X159600000Y-100000000D03*
X154800000Y-100000000D03*
X150000000Y-100000000D03*
%TD*%
D19*
%TO.C,D302*%
X164500000Y-105250000D03*
X161000000Y-105250000D03*
%TD*%
D22*
%TO.C,D201*%
X120000000Y-68550000D03*
X120000000Y-66450000D03*
%TD*%
D23*
%TO.C,U501*%
X120000000Y-56500000D03*
X120000000Y-59040000D03*
X120000000Y-61580000D03*
%TD*%
D20*
%TO.C,SW101*%
X164400000Y-110000000D03*
D21*
X159600000Y-110000000D03*
X154800000Y-110000000D03*
X150000000Y-110000000D03*
%TD*%
D24*
%TO.C,D206*%
X159050000Y-121580000D03*
X159050000Y-122420000D03*
%TD*%
D25*
%TO.C,JP502*%
X120000000Y-182150000D03*
X120000000Y-180850000D03*
%TD*%
D15*
%TO.C,J501*%
X26100000Y-51500000D03*
X26100000Y-63500000D03*
X26100000Y-57500000D03*
D16*
X44100000Y-51500000D03*
D17*
X44100000Y-57500000D03*
X44100000Y-63500000D03*
%TD*%
D26*
%TO.C,C212*%
X113250000Y-133230000D03*
X113250000Y-132270000D03*
%TD*%
D10*
%TO.C,R312*%
X168260000Y-84750000D03*
X167240000Y-84750000D03*
%TD*%
D27*
%TO.C,C501*%
X111250000Y-56240000D03*
X111250000Y-51840000D03*
%TD*%
D24*
%TO.C,D207*%
X96750000Y-185920000D03*
X96750000Y-185080000D03*
%TD*%
D11*
%TO.C,Q304*%
X143062500Y-79050000D03*
X143062500Y-80950000D03*
X144937500Y-80000000D03*
%TD*%
D28*
%TO.C,C408*%
X144480000Y-173500000D03*
X143520000Y-173500000D03*
%TD*%
D11*
%TO.C,Q302*%
X143062500Y-99050000D03*
X143062500Y-100950000D03*
X144937500Y-100000000D03*
%TD*%
D29*
%TO.C,R314*%
X167230000Y-106000000D03*
X168250000Y-106000000D03*
%TD*%
D30*
%TO.C,C209*%
X121000000Y-119750000D03*
X121960000Y-119750000D03*
%TD*%
D13*
%TO.C,C202*%
X111250000Y-74097349D03*
D14*
X111250000Y-77597349D03*
%TD*%
D31*
%TO.C,H502*%
X50000000Y-44000000D03*
%TD*%
%TO.C,H101*%
X30000000Y-30000000D03*
%TD*%
D30*
%TO.C,C503*%
X113770000Y-59040000D03*
X114730000Y-59040000D03*
%TD*%
D10*
%TO.C,R320*%
X140510000Y-69000000D03*
X139490000Y-69000000D03*
%TD*%
D29*
%TO.C,R315*%
X167240000Y-96000000D03*
X168260000Y-96000000D03*
%TD*%
D26*
%TO.C,C213*%
X104250000Y-133230000D03*
X104250000Y-132270000D03*
%TD*%
D32*
%TO.C,K501*%
X61707500Y-101207500D03*
X66707500Y-101207500D03*
X56707500Y-101207500D03*
X61707500Y-93707500D03*
X66707500Y-93707500D03*
X56707500Y-93707500D03*
D33*
X81707500Y-101207500D03*
D32*
X81707500Y-93707500D03*
%TD*%
D11*
%TO.C,Q306*%
X143062500Y-59050000D03*
X143062500Y-60950000D03*
X144937500Y-60000000D03*
%TD*%
D20*
%TO.C,SW104*%
X164400000Y-80000000D03*
D21*
X159600000Y-80000000D03*
X154800000Y-80000000D03*
X150000000Y-80000000D03*
%TD*%
D34*
%TO.C,J202*%
X101845000Y-118635000D03*
X106925000Y-118635000D03*
X106925000Y-115460000D03*
D35*
X105401000Y-120540000D03*
X103369000Y-120540000D03*
D34*
X101845000Y-115460000D03*
D35*
X104385000Y-115460000D03*
D36*
X103750000Y-116730000D03*
X105020000Y-116730000D03*
X103750000Y-118000000D03*
X105020000Y-118000000D03*
X103750000Y-119270000D03*
X105020000Y-119270000D03*
%TD*%
D37*
%TO.C,SW201*%
X87765000Y-182547500D03*
X94775000Y-182547500D03*
D38*
X93525000Y-185037500D03*
X89025000Y-185037500D03*
%TD*%
D39*
%TO.C,C401*%
X116000000Y-175950000D03*
X116000000Y-174050000D03*
%TD*%
D10*
%TO.C,R202*%
X100760000Y-126750000D03*
X99740000Y-126750000D03*
%TD*%
D40*
%TO.C,Y201*%
X113350000Y-129500000D03*
X109650000Y-129500000D03*
%TD*%
D29*
%TO.C,R401*%
X112690000Y-167600000D03*
X113710000Y-167600000D03*
%TD*%
D30*
%TO.C,C207*%
X121020000Y-118500000D03*
X121980000Y-118500000D03*
%TD*%
D10*
%TO.C,R310*%
X168260000Y-104750000D03*
X167240000Y-104750000D03*
%TD*%
D41*
%TO.C,U403*%
X106345000Y-168975000D03*
X107615000Y-168975000D03*
X108885000Y-168975000D03*
X110155000Y-168975000D03*
X110155000Y-164025000D03*
X108885000Y-164025000D03*
X107615000Y-164025000D03*
X106345000Y-164025000D03*
%TD*%
D15*
%TO.C,F502*%
X26100000Y-99500000D03*
X26100000Y-105500000D03*
D16*
X44100000Y-99500000D03*
D17*
X44100000Y-105500000D03*
%TD*%
D19*
%TO.C,D304*%
X164500000Y-85250000D03*
X161000000Y-85250000D03*
%TD*%
D10*
%TO.C,R323*%
X140510000Y-57500000D03*
X139490000Y-57500000D03*
%TD*%
D42*
%TO.C,U402*%
X41905000Y-155525000D03*
X40635000Y-155525000D03*
X39365000Y-155525000D03*
X38095000Y-155525000D03*
X38095000Y-160475000D03*
X39365000Y-160475000D03*
X40635000Y-160475000D03*
X41905000Y-160475000D03*
%TD*%
D10*
%TO.C,R306*%
X140510000Y-97500000D03*
X139490000Y-97500000D03*
%TD*%
D15*
%TO.C,J503*%
X26100000Y-117500000D03*
X26100000Y-123500000D03*
X26100000Y-111500000D03*
D16*
X44100000Y-111500000D03*
D17*
X44100000Y-117500000D03*
X44100000Y-123500000D03*
%TD*%
D20*
%TO.C,D102*%
X154800000Y-60000000D03*
D21*
X150000000Y-60000000D03*
%TD*%
D20*
%TO.C,SW103*%
X164400000Y-90000000D03*
D21*
X159600000Y-90000000D03*
X154800000Y-90000000D03*
X150000000Y-90000000D03*
%TD*%
D13*
%TO.C,C203*%
X100750000Y-74097349D03*
D14*
X100750000Y-77597349D03*
%TD*%
D13*
%TO.C,J101*%
X71250000Y-182212500D03*
D14*
X68750000Y-182212500D03*
X68750000Y-184212500D03*
X71250000Y-184212500D03*
D12*
X76000000Y-187072500D03*
X64000000Y-187072500D03*
%TD*%
D10*
%TO.C,R309*%
X168260000Y-114750000D03*
X167240000Y-114750000D03*
%TD*%
D20*
%TO.C,D101*%
X154800000Y-70000000D03*
D21*
X150000000Y-70000000D03*
%TD*%
D43*
%TO.C,J201*%
X168950000Y-126895000D03*
X168950000Y-127995000D03*
X168950000Y-129095000D03*
X168950000Y-130195000D03*
X168950000Y-131295000D03*
X168950000Y-132395000D03*
X168950000Y-133495000D03*
D44*
X168950000Y-134545000D03*
D45*
X162800000Y-124260000D03*
X159100000Y-124260000D03*
D46*
X158125000Y-133730000D03*
X158125000Y-127760000D03*
D47*
X168825000Y-124435000D03*
D48*
X168600000Y-135755000D03*
%TD*%
D49*
%TO.C,U405*%
X137725000Y-174862500D03*
X138375000Y-174862500D03*
X139025000Y-174862500D03*
X139675000Y-174862500D03*
X140325000Y-174862500D03*
X140975000Y-174862500D03*
X141625000Y-174862500D03*
X142275000Y-174862500D03*
X142275000Y-169137500D03*
X141625000Y-169137500D03*
X140975000Y-169137500D03*
X140325000Y-169137500D03*
X139675000Y-169137500D03*
X139025000Y-169137500D03*
X138375000Y-169137500D03*
X137725000Y-169137500D03*
%TD*%
D50*
%TO.C,R317*%
X126250000Y-90760000D03*
X126250000Y-89740000D03*
%TD*%
D10*
%TO.C,R302*%
X140510000Y-99000000D03*
X139490000Y-99000000D03*
%TD*%
D51*
%TO.C,U101*%
X68950000Y-173862500D03*
X68000000Y-173862500D03*
X67050000Y-173862500D03*
X67050000Y-176137500D03*
X68000000Y-176137500D03*
X68950000Y-176137500D03*
%TD*%
D30*
%TO.C,C406*%
X137420000Y-176600000D03*
X138380000Y-176600000D03*
%TD*%
D26*
%TO.C,C403*%
X111750000Y-164480000D03*
X111750000Y-163520000D03*
%TD*%
%TO.C,C404*%
X106000000Y-161980000D03*
X106000000Y-161020000D03*
%TD*%
D28*
%TO.C,C208*%
X108980000Y-123000000D03*
X108020000Y-123000000D03*
%TD*%
D52*
%TO.C,Q502*%
X88937500Y-124450000D03*
X88937500Y-122550000D03*
X87062500Y-123500000D03*
%TD*%
D53*
%TO.C,U202*%
X153800000Y-131887500D03*
X154750000Y-131887500D03*
X155700000Y-131887500D03*
X155700000Y-129612500D03*
X154750000Y-129612500D03*
X153800000Y-129612500D03*
%TD*%
D54*
%TO.C,U401*%
X112950000Y-174062500D03*
X111050000Y-174062500D03*
X112000000Y-175937500D03*
%TD*%
D55*
%TO.C,R402*%
X38537500Y-164500000D03*
X41462500Y-164500000D03*
%TD*%
D31*
%TO.C,H501*%
X24000000Y-44000000D03*
%TD*%
D10*
%TO.C,R308*%
X140510000Y-77500000D03*
X139490000Y-77500000D03*
%TD*%
D18*
%TO.C,R501*%
X92000000Y-95490000D03*
X92000000Y-96510000D03*
%TD*%
D10*
%TO.C,R322*%
X140510000Y-67500000D03*
X139490000Y-67500000D03*
%TD*%
D15*
%TO.C,F503*%
X26100000Y-135500000D03*
X26100000Y-129500000D03*
D16*
X44100000Y-129500000D03*
D17*
X44100000Y-135500000D03*
%TD*%
D19*
%TO.C,D303*%
X164500000Y-95250000D03*
X161000000Y-95250000D03*
%TD*%
D10*
%TO.C,R321*%
X140510000Y-59000000D03*
X139490000Y-59000000D03*
%TD*%
D49*
%TO.C,U301*%
X126425000Y-87862500D03*
X127075000Y-87862500D03*
X127725000Y-87862500D03*
X128375000Y-87862500D03*
X129025000Y-87862500D03*
X129675000Y-87862500D03*
X130325000Y-87862500D03*
X130975000Y-87862500D03*
X131625000Y-87862500D03*
X132275000Y-87862500D03*
X132925000Y-87862500D03*
X133575000Y-87862500D03*
X133575000Y-82137500D03*
X132925000Y-82137500D03*
X132275000Y-82137500D03*
X131625000Y-82137500D03*
X130975000Y-82137500D03*
X130325000Y-82137500D03*
X129675000Y-82137500D03*
X129025000Y-82137500D03*
X128375000Y-82137500D03*
X127725000Y-82137500D03*
X127075000Y-82137500D03*
X126425000Y-82137500D03*
%TD*%
D56*
%TO.C,C201*%
X122000000Y-68770000D03*
X122000000Y-69730000D03*
%TD*%
D15*
%TO.C,F501*%
X26100000Y-69500000D03*
X26100000Y-75500000D03*
D16*
X44100000Y-69500000D03*
D17*
X44100000Y-75500000D03*
%TD*%
D26*
%TO.C,C214*%
X107750000Y-133230000D03*
X107750000Y-132270000D03*
%TD*%
D29*
%TO.C,R318*%
X125990000Y-80250000D03*
X127010000Y-80250000D03*
%TD*%
D52*
%TO.C,Q501*%
X88937500Y-94450000D03*
X88937500Y-92550000D03*
X87062500Y-93500000D03*
%TD*%
D57*
%TO.C,FB102*%
X52750000Y-187312500D03*
X52750000Y-185187500D03*
%TD*%
D58*
%TO.C,U201*%
X112250000Y-124162500D03*
X112750000Y-124162500D03*
X113250000Y-124162500D03*
X113750000Y-124162500D03*
X114250000Y-124162500D03*
X114750000Y-124162500D03*
X115250000Y-124162500D03*
X115750000Y-124162500D03*
X116250000Y-124162500D03*
X116750000Y-124162500D03*
X117250000Y-124162500D03*
X117750000Y-124162500D03*
D59*
X119162500Y-122750000D03*
X119162500Y-122250000D03*
X119162500Y-121750000D03*
X119162500Y-121250000D03*
X119162500Y-120750000D03*
X119162500Y-120250000D03*
X119162500Y-119750000D03*
X119162500Y-119250000D03*
X119162500Y-118750000D03*
X119162500Y-118250000D03*
X119162500Y-117750000D03*
X119162500Y-117250000D03*
D58*
X117750000Y-115837500D03*
X117250000Y-115837500D03*
X116750000Y-115837500D03*
X116250000Y-115837500D03*
X115750000Y-115837500D03*
X115250000Y-115837500D03*
X114750000Y-115837500D03*
X114250000Y-115837500D03*
X113750000Y-115837500D03*
X113250000Y-115837500D03*
X112750000Y-115837500D03*
X112250000Y-115837500D03*
D59*
X110837500Y-117250000D03*
X110837500Y-117750000D03*
X110837500Y-118250000D03*
X110837500Y-118750000D03*
X110837500Y-119250000D03*
X110837500Y-119750000D03*
X110837500Y-120250000D03*
X110837500Y-120750000D03*
X110837500Y-121250000D03*
X110837500Y-121750000D03*
X110837500Y-122250000D03*
X110837500Y-122750000D03*
%TD*%
D25*
%TO.C,JP501*%
X81000000Y-181650000D03*
X81000000Y-180350000D03*
%TD*%
D54*
%TO.C,D402*%
X40950000Y-168062500D03*
X39050000Y-168062500D03*
X40000000Y-169937500D03*
%TD*%
D31*
%TO.C,H504*%
X24000000Y-143000000D03*
%TD*%
D29*
%TO.C,R313*%
X167240000Y-116000000D03*
X168260000Y-116000000D03*
%TD*%
D10*
%TO.C,R305*%
X140510000Y-107500000D03*
X139490000Y-107500000D03*
%TD*%
D30*
%TO.C,C405*%
X139420000Y-176600000D03*
X140380000Y-176600000D03*
%TD*%
D33*
%TO.C,PS501*%
X60842500Y-53500000D03*
D32*
X60842500Y-64250000D03*
X99342500Y-64250000D03*
X99342500Y-56250000D03*
%TD*%
D31*
%TO.C,H503*%
X50000000Y-143000000D03*
%TD*%
D29*
%TO.C,R319*%
X125990000Y-79000000D03*
X127010000Y-79000000D03*
%TD*%
D31*
%TO.C,H104*%
X30000000Y-157000000D03*
%TD*%
%TO.C,H102*%
X157000000Y-30000000D03*
%TD*%
D10*
%TO.C,R307*%
X140510000Y-87500000D03*
X139490000Y-87500000D03*
%TD*%
D57*
%TO.C,FB101*%
X81000000Y-187062500D03*
X81000000Y-184937500D03*
%TD*%
D26*
%TO.C,C211*%
X109750000Y-133230000D03*
X109750000Y-132270000D03*
%TD*%
D60*
%TO.C,JP201*%
X103350000Y-126750000D03*
X104650000Y-126750000D03*
%TD*%
D50*
%TO.C,R205*%
X154750000Y-128010000D03*
X154750000Y-126990000D03*
%TD*%
D61*
%TO.C,Y202*%
X107250000Y-130250000D03*
X104750000Y-130250000D03*
%TD*%
D11*
%TO.C,Q303*%
X143062500Y-89050000D03*
X143062500Y-90950000D03*
X144937500Y-90000000D03*
%TD*%
D29*
%TO.C,R316*%
X167240000Y-86000000D03*
X168260000Y-86000000D03*
%TD*%
D26*
%TO.C,C205*%
X112250000Y-113980000D03*
X112250000Y-113020000D03*
%TD*%
D10*
%TO.C,R311*%
X168260000Y-94750000D03*
X167240000Y-94750000D03*
%TD*%
D57*
%TO.C,FB401*%
X120000000Y-187062500D03*
X120000000Y-184937500D03*
%TD*%
D13*
%TO.C,J401*%
X110250000Y-182212500D03*
D14*
X107750000Y-182212500D03*
X107750000Y-184212500D03*
X110250000Y-184212500D03*
D12*
X103000000Y-187072500D03*
X115000000Y-187072500D03*
%TD*%
D62*
%TO.C,R201*%
X120000000Y-71287500D03*
X120000000Y-74212500D03*
%TD*%
D51*
%TO.C,U404*%
X107950000Y-173862500D03*
X107000000Y-173862500D03*
X106050000Y-173862500D03*
X106050000Y-176137500D03*
X107000000Y-176137500D03*
X107950000Y-176137500D03*
%TD*%
D63*
%TO.C,D401*%
X117787500Y-167600000D03*
X116212500Y-167600000D03*
%TD*%
D30*
%TO.C,C206*%
X121020000Y-117250000D03*
X121980000Y-117250000D03*
%TD*%
D50*
%TO.C,R504*%
X92500000Y-124010000D03*
X92500000Y-122990000D03*
%TD*%
%TO.C,R502*%
X92000000Y-94010000D03*
X92000000Y-92990000D03*
%TD*%
D26*
%TO.C,C210*%
X161000000Y-122480000D03*
X161000000Y-121520000D03*
%TD*%
D64*
%TO.C,D203*%
X42330000Y-173500000D03*
X43170000Y-173500000D03*
%TD*%
%TO.C,D204*%
X37500000Y-173500000D03*
X36660000Y-173500000D03*
%TD*%
%TO.C,D202*%
X45170000Y-173500000D03*
X44330000Y-173500000D03*
%TD*%
D32*
%TO.C,K502*%
X61707500Y-131207500D03*
X66707500Y-131207500D03*
X56707500Y-131207500D03*
X61707500Y-123707500D03*
X66707500Y-123707500D03*
X56707500Y-123707500D03*
D33*
X81707500Y-131207500D03*
D32*
X81707500Y-123707500D03*
%TD*%
D29*
%TO.C,R203*%
X110990000Y-132250000D03*
X112010000Y-132250000D03*
%TD*%
D64*
%TO.C,D205*%
X34580000Y-173500000D03*
X35420000Y-173500000D03*
%TD*%
D56*
%TO.C,C215*%
X98000000Y-185020000D03*
X98000000Y-185980000D03*
%TD*%
D13*
%TO.C,C204*%
X90250000Y-74097349D03*
D14*
X90250000Y-77597349D03*
%TD*%
D65*
%TO.C,C502*%
X111250000Y-62240000D03*
X111250000Y-67840000D03*
%TD*%
D10*
%TO.C,R304*%
X140510000Y-79000000D03*
X139490000Y-79000000D03*
%TD*%
D22*
%TO.C,D502*%
X87000000Y-131050000D03*
X87000000Y-128950000D03*
%TD*%
D31*
%TO.C,H103*%
X157000000Y-157000000D03*
%TD*%
D30*
%TO.C,C407*%
X135520000Y-173500000D03*
X136480000Y-173500000D03*
%TD*%
D29*
%TO.C,R204*%
X105490000Y-132250000D03*
X106510000Y-132250000D03*
%TD*%
D66*
%TO.C,C402*%
X111050000Y-171600000D03*
X112950000Y-171600000D03*
%TD*%
D67*
%TO.C,J102*%
X45715000Y-186350000D03*
X34285000Y-186350000D03*
D68*
X44445000Y-177460000D03*
D69*
X43175000Y-180000000D03*
X41905000Y-177460000D03*
X40635000Y-180000000D03*
X39365000Y-177460000D03*
X38095000Y-180000000D03*
X36825000Y-177460000D03*
X35555000Y-180000000D03*
D70*
X47750000Y-183048000D03*
X32250000Y-183048000D03*
%TD*%
D22*
%TO.C,D501*%
X87000000Y-101050000D03*
X87000000Y-98950000D03*
%TD*%
M02*
