%TF.GenerationSoftware,KiCad,Pcbnew,6.0.5+dfsg-1~bpo11+1*%
%TF.CreationDate,2023-01-20T09:08:56+00:00*%
%TF.ProjectId,nascontrol,6e617363-6f6e-4747-926f-6c2e6b696361,0.1*%
%TF.SameCoordinates,Original*%
%TF.FileFunction,Soldermask,Bot*%
%TF.FilePolarity,Negative*%
%FSLAX46Y46*%
G04 Gerber Fmt 4.6, Leading zero omitted, Abs format (unit mm)*
G04 Created by KiCad (PCBNEW 6.0.5+dfsg-1~bpo11+1) date 2023-01-20 09:08:56*
%MOMM*%
%LPD*%
G01*
G04 APERTURE LIST*
G04 Aperture macros list*
%AMRoundRect*
0 Rectangle with rounded corners*
0 $1 Rounding radius*
0 $2 $3 $4 $5 $6 $7 $8 $9 X,Y pos of 4 corners*
0 Add a 4 corners polygon primitive as box body*
4,1,4,$2,$3,$4,$5,$6,$7,$8,$9,$2,$3,0*
0 Add four circle primitives for the rounded corners*
1,1,$1+$1,$2,$3*
1,1,$1+$1,$4,$5*
1,1,$1+$1,$6,$7*
1,1,$1+$1,$8,$9*
0 Add four rect primitives between the rounded corners*
20,1,$1+$1,$2,$3,$4,$5,0*
20,1,$1+$1,$4,$5,$6,$7,0*
20,1,$1+$1,$6,$7,$8,$9,0*
20,1,$1+$1,$8,$9,$2,$3,0*%
G04 Aperture macros list end*
%ADD10C,4.000000*%
%ADD11R,1.600000X1.600000*%
%ADD12C,1.600000*%
%ADD13C,3.500000*%
%ADD14RoundRect,0.249999X-1.300001X1.300001X-1.300001X-1.300001X1.300001X-1.300001X1.300001X1.300001X0*%
%ADD15C,3.100000*%
%ADD16RoundRect,0.249999X1.025001X1.025001X-1.025001X1.025001X-1.025001X-1.025001X1.025001X-1.025001X0*%
%ADD17C,2.550000*%
%ADD18C,2.000000*%
%ADD19C,6.400000*%
%ADD20C,3.000000*%
%ADD21R,3.000000X3.000000*%
%ADD22C,2.374900*%
%ADD23C,0.990600*%
%ADD24C,2.100000*%
%ADD25C,1.750000*%
%ADD26C,3.250000*%
%ADD27R,1.500000X1.500000*%
%ADD28C,1.524000*%
%ADD29C,2.300000*%
G04 APERTURE END LIST*
D10*
%TO.C,J402*%
X127490000Y-184089669D03*
X152490000Y-184089669D03*
D11*
X134450000Y-182669669D03*
D12*
X137220000Y-182669669D03*
X139990000Y-182669669D03*
X142760000Y-182669669D03*
X145530000Y-182669669D03*
X135835000Y-185509669D03*
X138605000Y-185509669D03*
X141375000Y-185509669D03*
X144145000Y-185509669D03*
%TD*%
D13*
%TO.C,J502*%
X26100000Y-93500000D03*
X26100000Y-87500000D03*
X26100000Y-81500000D03*
D14*
X44100000Y-81500000D03*
D15*
X44100000Y-87500000D03*
X44100000Y-93500000D03*
%TD*%
D16*
%TO.C,SW102*%
X164400000Y-100000000D03*
D17*
X159600000Y-100000000D03*
X154800000Y-100000000D03*
X150000000Y-100000000D03*
%TD*%
D18*
%TO.C,U501*%
X120000000Y-56500000D03*
X120000000Y-59040000D03*
X120000000Y-61580000D03*
%TD*%
D16*
%TO.C,SW101*%
X164400000Y-110000000D03*
D17*
X159600000Y-110000000D03*
X154800000Y-110000000D03*
X150000000Y-110000000D03*
%TD*%
D13*
%TO.C,J501*%
X26100000Y-51500000D03*
X26100000Y-63500000D03*
X26100000Y-57500000D03*
D14*
X44100000Y-51500000D03*
D15*
X44100000Y-57500000D03*
X44100000Y-63500000D03*
%TD*%
D11*
%TO.C,C202*%
X111250000Y-74097349D03*
D12*
X111250000Y-77597349D03*
%TD*%
D19*
%TO.C,H502*%
X50000000Y-44000000D03*
%TD*%
%TO.C,H101*%
X30000000Y-30000000D03*
%TD*%
D20*
%TO.C,K501*%
X61707500Y-101207500D03*
X66707500Y-101207500D03*
X56707500Y-101207500D03*
X61707500Y-93707500D03*
X66707500Y-93707500D03*
X56707500Y-93707500D03*
D21*
X81707500Y-101207500D03*
D20*
X81707500Y-93707500D03*
%TD*%
D16*
%TO.C,SW104*%
X164400000Y-80000000D03*
D17*
X159600000Y-80000000D03*
X154800000Y-80000000D03*
X150000000Y-80000000D03*
%TD*%
D22*
%TO.C,J202*%
X101845000Y-118635000D03*
X106925000Y-118635000D03*
X106925000Y-115460000D03*
D23*
X105401000Y-120540000D03*
X103369000Y-120540000D03*
D22*
X101845000Y-115460000D03*
D23*
X104385000Y-115460000D03*
%TD*%
D24*
%TO.C,SW201*%
X87765000Y-182547500D03*
X94775000Y-182547500D03*
D25*
X93525000Y-185037500D03*
X89025000Y-185037500D03*
%TD*%
D13*
%TO.C,F502*%
X26100000Y-99500000D03*
X26100000Y-105500000D03*
D14*
X44100000Y-99500000D03*
D15*
X44100000Y-105500000D03*
%TD*%
D13*
%TO.C,J503*%
X26100000Y-117500000D03*
X26100000Y-123500000D03*
X26100000Y-111500000D03*
D14*
X44100000Y-111500000D03*
D15*
X44100000Y-117500000D03*
X44100000Y-123500000D03*
%TD*%
D16*
%TO.C,D102*%
X154800000Y-60000000D03*
D17*
X150000000Y-60000000D03*
%TD*%
D16*
%TO.C,SW103*%
X164400000Y-90000000D03*
D17*
X159600000Y-90000000D03*
X154800000Y-90000000D03*
X150000000Y-90000000D03*
%TD*%
D11*
%TO.C,C203*%
X100750000Y-74097349D03*
D12*
X100750000Y-77597349D03*
%TD*%
D11*
%TO.C,J101*%
X71250000Y-182212500D03*
D12*
X68750000Y-182212500D03*
X68750000Y-184212500D03*
X71250000Y-184212500D03*
D10*
X76000000Y-187072500D03*
X64000000Y-187072500D03*
%TD*%
D16*
%TO.C,D101*%
X154800000Y-70000000D03*
D17*
X150000000Y-70000000D03*
%TD*%
D19*
%TO.C,H501*%
X24000000Y-44000000D03*
%TD*%
D13*
%TO.C,F503*%
X26100000Y-135500000D03*
X26100000Y-129500000D03*
D14*
X44100000Y-129500000D03*
D15*
X44100000Y-135500000D03*
%TD*%
D13*
%TO.C,F501*%
X26100000Y-69500000D03*
X26100000Y-75500000D03*
D14*
X44100000Y-69500000D03*
D15*
X44100000Y-75500000D03*
%TD*%
D19*
%TO.C,H504*%
X24000000Y-143000000D03*
%TD*%
D21*
%TO.C,PS501*%
X60842500Y-53500000D03*
D20*
X60842500Y-64250000D03*
X99342500Y-64250000D03*
X99342500Y-56250000D03*
%TD*%
D19*
%TO.C,H503*%
X50000000Y-143000000D03*
%TD*%
%TO.C,H104*%
X30000000Y-157000000D03*
%TD*%
%TO.C,H102*%
X157000000Y-30000000D03*
%TD*%
D11*
%TO.C,J401*%
X110250000Y-182212500D03*
D12*
X107750000Y-182212500D03*
X107750000Y-184212500D03*
X110250000Y-184212500D03*
D10*
X103000000Y-187072500D03*
X115000000Y-187072500D03*
%TD*%
D20*
%TO.C,K502*%
X61707500Y-131207500D03*
X66707500Y-131207500D03*
X56707500Y-131207500D03*
X61707500Y-123707500D03*
X66707500Y-123707500D03*
X56707500Y-123707500D03*
D21*
X81707500Y-131207500D03*
D20*
X81707500Y-123707500D03*
%TD*%
D11*
%TO.C,C204*%
X90250000Y-74097349D03*
D12*
X90250000Y-77597349D03*
%TD*%
D19*
%TO.C,H103*%
X157000000Y-157000000D03*
%TD*%
D26*
%TO.C,J102*%
X45715000Y-186350000D03*
X34285000Y-186350000D03*
D27*
X44445000Y-177460000D03*
D28*
X43175000Y-180000000D03*
X41905000Y-177460000D03*
X40635000Y-180000000D03*
X39365000Y-177460000D03*
X38095000Y-180000000D03*
X36825000Y-177460000D03*
X35555000Y-180000000D03*
D29*
X47750000Y-183048000D03*
X32250000Y-183048000D03*
%TD*%
M02*
