G04 #@! TF.GenerationSoftware,KiCad,Pcbnew,6.0.5+dfsg-1~bpo11+1*
G04 #@! TF.CreationDate,2023-01-20T09:08:37+00:00*
G04 #@! TF.ProjectId,nascontrol,6e617363-6f6e-4747-926f-6c2e6b696361,0.1*
G04 #@! TF.SameCoordinates,Original*
G04 #@! TF.FileFunction,Legend,Bot*
G04 #@! TF.FilePolarity,Positive*
%FSLAX46Y46*%
G04 Gerber Fmt 4.6, Leading zero omitted, Abs format (unit mm)*
G04 Created by KiCad (PCBNEW 6.0.5+dfsg-1~bpo11+1) date 2023-01-20 09:08:37*
%MOMM*%
%LPD*%
G01*
G04 APERTURE LIST*
%ADD10C,4.000000*%
%ADD11R,1.600000X1.600000*%
%ADD12C,1.600000*%
%ADD13C,3.500000*%
%ADD14C,3.100000*%
%ADD15C,2.550000*%
%ADD16C,2.000000*%
%ADD17C,6.400000*%
%ADD18C,3.000000*%
%ADD19R,3.000000X3.000000*%
%ADD20C,2.374900*%
%ADD21C,0.990600*%
%ADD22C,2.100000*%
%ADD23C,1.750000*%
%ADD24C,3.250000*%
%ADD25R,1.500000X1.500000*%
%ADD26C,1.524000*%
%ADD27C,2.300000*%
G04 APERTURE END LIST*
%LPC*%
D10*
X127490000Y-184089669D03*
X152490000Y-184089669D03*
D11*
X134450000Y-182669669D03*
D12*
X137220000Y-182669669D03*
X139990000Y-182669669D03*
X142760000Y-182669669D03*
X145530000Y-182669669D03*
X135835000Y-185509669D03*
X138605000Y-185509669D03*
X141375000Y-185509669D03*
X144145000Y-185509669D03*
D13*
X26100000Y-93500000D03*
X26100000Y-87500000D03*
X26100000Y-81500000D03*
G36*
G01*
X42799999Y-79950000D02*
X45400001Y-79950000D01*
G75*
G02*
X45650000Y-80199999I0J-249999D01*
G01*
X45650000Y-82800001D01*
G75*
G02*
X45400001Y-83050000I-249999J0D01*
G01*
X42799999Y-83050000D01*
G75*
G02*
X42550000Y-82800001I0J249999D01*
G01*
X42550000Y-80199999D01*
G75*
G02*
X42799999Y-79950000I249999J0D01*
G01*
G37*
D14*
X44100000Y-87500000D03*
X44100000Y-93500000D03*
G36*
G01*
X165675000Y-98974999D02*
X165675000Y-101025001D01*
G75*
G02*
X165425001Y-101275000I-249999J0D01*
G01*
X163374999Y-101275000D01*
G75*
G02*
X163125000Y-101025001I0J249999D01*
G01*
X163125000Y-98974999D01*
G75*
G02*
X163374999Y-98725000I249999J0D01*
G01*
X165425001Y-98725000D01*
G75*
G02*
X165675000Y-98974999I0J-249999D01*
G01*
G37*
D15*
X159600000Y-100000000D03*
X154800000Y-100000000D03*
X150000000Y-100000000D03*
D16*
X120000000Y-56500000D03*
X120000000Y-59040000D03*
X120000000Y-61580000D03*
G36*
G01*
X165675000Y-108974999D02*
X165675000Y-111025001D01*
G75*
G02*
X165425001Y-111275000I-249999J0D01*
G01*
X163374999Y-111275000D01*
G75*
G02*
X163125000Y-111025001I0J249999D01*
G01*
X163125000Y-108974999D01*
G75*
G02*
X163374999Y-108725000I249999J0D01*
G01*
X165425001Y-108725000D01*
G75*
G02*
X165675000Y-108974999I0J-249999D01*
G01*
G37*
D15*
X159600000Y-110000000D03*
X154800000Y-110000000D03*
X150000000Y-110000000D03*
D13*
X26100000Y-51500000D03*
X26100000Y-63500000D03*
X26100000Y-57500000D03*
G36*
G01*
X42799999Y-49950000D02*
X45400001Y-49950000D01*
G75*
G02*
X45650000Y-50199999I0J-249999D01*
G01*
X45650000Y-52800001D01*
G75*
G02*
X45400001Y-53050000I-249999J0D01*
G01*
X42799999Y-53050000D01*
G75*
G02*
X42550000Y-52800001I0J249999D01*
G01*
X42550000Y-50199999D01*
G75*
G02*
X42799999Y-49950000I249999J0D01*
G01*
G37*
D14*
X44100000Y-57500000D03*
X44100000Y-63500000D03*
D11*
X111250000Y-74097349D03*
D12*
X111250000Y-77597349D03*
D17*
X50000000Y-44000000D03*
X30000000Y-30000000D03*
D18*
X61707500Y-101207500D03*
X66707500Y-101207500D03*
X56707500Y-101207500D03*
X61707500Y-93707500D03*
X66707500Y-93707500D03*
X56707500Y-93707500D03*
D19*
X81707500Y-101207500D03*
D18*
X81707500Y-93707500D03*
G36*
G01*
X165675000Y-78974999D02*
X165675000Y-81025001D01*
G75*
G02*
X165425001Y-81275000I-249999J0D01*
G01*
X163374999Y-81275000D01*
G75*
G02*
X163125000Y-81025001I0J249999D01*
G01*
X163125000Y-78974999D01*
G75*
G02*
X163374999Y-78725000I249999J0D01*
G01*
X165425001Y-78725000D01*
G75*
G02*
X165675000Y-78974999I0J-249999D01*
G01*
G37*
D15*
X159600000Y-80000000D03*
X154800000Y-80000000D03*
X150000000Y-80000000D03*
D20*
X101845000Y-118635000D03*
X106925000Y-118635000D03*
X106925000Y-115460000D03*
D21*
X105401000Y-120540000D03*
X103369000Y-120540000D03*
D20*
X101845000Y-115460000D03*
D21*
X104385000Y-115460000D03*
D22*
X87765000Y-182547500D03*
X94775000Y-182547500D03*
D23*
X93525000Y-185037500D03*
X89025000Y-185037500D03*
D13*
X26100000Y-99500000D03*
X26100000Y-105500000D03*
G36*
G01*
X42799999Y-97950000D02*
X45400001Y-97950000D01*
G75*
G02*
X45650000Y-98199999I0J-249999D01*
G01*
X45650000Y-100800001D01*
G75*
G02*
X45400001Y-101050000I-249999J0D01*
G01*
X42799999Y-101050000D01*
G75*
G02*
X42550000Y-100800001I0J249999D01*
G01*
X42550000Y-98199999D01*
G75*
G02*
X42799999Y-97950000I249999J0D01*
G01*
G37*
D14*
X44100000Y-105500000D03*
D13*
X26100000Y-117500000D03*
X26100000Y-123500000D03*
X26100000Y-111500000D03*
G36*
G01*
X42799999Y-109950000D02*
X45400001Y-109950000D01*
G75*
G02*
X45650000Y-110199999I0J-249999D01*
G01*
X45650000Y-112800001D01*
G75*
G02*
X45400001Y-113050000I-249999J0D01*
G01*
X42799999Y-113050000D01*
G75*
G02*
X42550000Y-112800001I0J249999D01*
G01*
X42550000Y-110199999D01*
G75*
G02*
X42799999Y-109950000I249999J0D01*
G01*
G37*
D14*
X44100000Y-117500000D03*
X44100000Y-123500000D03*
G36*
G01*
X156075000Y-58974999D02*
X156075000Y-61025001D01*
G75*
G02*
X155825001Y-61275000I-249999J0D01*
G01*
X153774999Y-61275000D01*
G75*
G02*
X153525000Y-61025001I0J249999D01*
G01*
X153525000Y-58974999D01*
G75*
G02*
X153774999Y-58725000I249999J0D01*
G01*
X155825001Y-58725000D01*
G75*
G02*
X156075000Y-58974999I0J-249999D01*
G01*
G37*
D15*
X150000000Y-60000000D03*
G36*
G01*
X165675000Y-88974999D02*
X165675000Y-91025001D01*
G75*
G02*
X165425001Y-91275000I-249999J0D01*
G01*
X163374999Y-91275000D01*
G75*
G02*
X163125000Y-91025001I0J249999D01*
G01*
X163125000Y-88974999D01*
G75*
G02*
X163374999Y-88725000I249999J0D01*
G01*
X165425001Y-88725000D01*
G75*
G02*
X165675000Y-88974999I0J-249999D01*
G01*
G37*
X159600000Y-90000000D03*
X154800000Y-90000000D03*
X150000000Y-90000000D03*
D11*
X100750000Y-74097349D03*
D12*
X100750000Y-77597349D03*
D11*
X71250000Y-182212500D03*
D12*
X68750000Y-182212500D03*
X68750000Y-184212500D03*
X71250000Y-184212500D03*
D10*
X76000000Y-187072500D03*
X64000000Y-187072500D03*
G36*
G01*
X156075000Y-68974999D02*
X156075000Y-71025001D01*
G75*
G02*
X155825001Y-71275000I-249999J0D01*
G01*
X153774999Y-71275000D01*
G75*
G02*
X153525000Y-71025001I0J249999D01*
G01*
X153525000Y-68974999D01*
G75*
G02*
X153774999Y-68725000I249999J0D01*
G01*
X155825001Y-68725000D01*
G75*
G02*
X156075000Y-68974999I0J-249999D01*
G01*
G37*
D15*
X150000000Y-70000000D03*
D17*
X24000000Y-44000000D03*
D13*
X26100000Y-135500000D03*
X26100000Y-129500000D03*
G36*
G01*
X42799999Y-127950000D02*
X45400001Y-127950000D01*
G75*
G02*
X45650000Y-128199999I0J-249999D01*
G01*
X45650000Y-130800001D01*
G75*
G02*
X45400001Y-131050000I-249999J0D01*
G01*
X42799999Y-131050000D01*
G75*
G02*
X42550000Y-130800001I0J249999D01*
G01*
X42550000Y-128199999D01*
G75*
G02*
X42799999Y-127950000I249999J0D01*
G01*
G37*
D14*
X44100000Y-135500000D03*
D13*
X26100000Y-69500000D03*
X26100000Y-75500000D03*
G36*
G01*
X42799999Y-67950000D02*
X45400001Y-67950000D01*
G75*
G02*
X45650000Y-68199999I0J-249999D01*
G01*
X45650000Y-70800001D01*
G75*
G02*
X45400001Y-71050000I-249999J0D01*
G01*
X42799999Y-71050000D01*
G75*
G02*
X42550000Y-70800001I0J249999D01*
G01*
X42550000Y-68199999D01*
G75*
G02*
X42799999Y-67950000I249999J0D01*
G01*
G37*
D14*
X44100000Y-75500000D03*
D17*
X24000000Y-143000000D03*
D19*
X60842500Y-53500000D03*
D18*
X60842500Y-64250000D03*
X99342500Y-64250000D03*
X99342500Y-56250000D03*
D17*
X50000000Y-143000000D03*
X30000000Y-157000000D03*
X157000000Y-30000000D03*
D11*
X110250000Y-182212500D03*
D12*
X107750000Y-182212500D03*
X107750000Y-184212500D03*
X110250000Y-184212500D03*
D10*
X103000000Y-187072500D03*
X115000000Y-187072500D03*
D18*
X61707500Y-131207500D03*
X66707500Y-131207500D03*
X56707500Y-131207500D03*
X61707500Y-123707500D03*
X66707500Y-123707500D03*
X56707500Y-123707500D03*
D19*
X81707500Y-131207500D03*
D18*
X81707500Y-123707500D03*
D11*
X90250000Y-74097349D03*
D12*
X90250000Y-77597349D03*
D17*
X157000000Y-157000000D03*
D24*
X45715000Y-186350000D03*
X34285000Y-186350000D03*
D25*
X44445000Y-177460000D03*
D26*
X43175000Y-180000000D03*
X41905000Y-177460000D03*
X40635000Y-180000000D03*
X39365000Y-177460000D03*
X38095000Y-180000000D03*
X36825000Y-177460000D03*
X35555000Y-180000000D03*
D27*
X47750000Y-183048000D03*
X32250000Y-183048000D03*
M02*
